<?xml version="1.0" standalone="no"?>
<!DOCTYPE svg PUBLIC "-//W3C//DTD SVG 1.1//EN" "http://www.w3.org/Graphics/SVG/1.1/DTD/svg11.dtd" >
<svg xmlns="http://www.w3.org/2000/svg" xmlns:xlink="http://www.w3.org/1999/xlink" version="1.1">
<metadata>
Created by FontForge 20201107 at Wed Jan 24 06:42:27 2024
 By 
Copyright (c) 2024 by Khurasan. All rights reserved.
</metadata>
<defs>
<font id="TheLostDungeon" horiz-adv-x="356" >
  <font-face 
    font-family="The Lost Dungeon"
    font-weight="400"
    font-stretch="normal"
    units-per-em="1000"
    panose-1="0 0 0 0 0 0 0 0 0 0"
    ascent="800"
    descent="-200"
    x-height="651"
    cap-height="673"
    bbox="-134 -204 686 880.182"
    underline-thickness="50"
    underline-position="-100"
    unicode-range="U+000D-2122"
  />
<missing-glyph 
 />
    <glyph glyph-name=".notdef" 
 />
    <glyph glyph-name=".null" horiz-adv-x="0" 
 />
    <glyph glyph-name="nonmarkingreturn" unicode="&#xd;" 
 />
    <glyph glyph-name="NULL" horiz-adv-x="0" 
 />
    <glyph glyph-name="NULL" horiz-adv-x="0" 
 />
    <glyph glyph-name="space" unicode=" " 
 />
    <glyph glyph-name="exclam" unicode="!" horiz-adv-x="273" 
d="M186 482q7 4 10 9.5t4 11t1.5 11.5t3.5 12q-2 -48 -8 -96t-12.5 -95.5t-11.5 -95t-5 -94.5q-12 -1 -27 0t-29.5 3t-27.5 5.5t-21 7.5q-14 9 -22.5 21t-10.5 29q-4 26 -8 51.5t-4 51.5q-5 72 -1.5 142.5t12.5 140.5q4 22 8.5 43t9.5 42q8 26 17.5 30.5t35.5 -5.5
q5 -1 9.5 -3t9.5 -4l11 36q3 11 5.5 20.5t6.5 20.5q2 4 7.5 9.5t7.5 4.5l28 -10t26 -13q5 -2 5 -11t-1 -15q1 -17 -1 -34.5t-3 -34.5v-1q10 -7 6 -21zM37 -41q-18 7 -17 24q2 18 8.5 34.5t20.5 30.5q6 5 15.5 9t17.5 3q16 -3 32 -7.5t31 -6.5q22 -6 16 -28q-2 -7 -4.5 -13.5
t-5.5 -14.5q11 -24 0.5 -33.5t-31 -10.5t-44.5 3.5t-39 9.5zM199 629q11 9 11 19.5v21.5q-4 -11 -6.5 -21t-4.5 -20zM216 561h-4l2 27q1 -1 4 -1zM181 399q-3 -1 -7 -1q0 -5 1.5 -11t3.5 -10h3q-3 11 -1 22zM185 468v-8t-1 -8h5q2 5 2.5 8t0.5 8h-7zM192 589h6v16t-1 16z
M183 531h1l2 29h-1z" />
    <glyph glyph-name="quotedbl" unicode="&#x22;" 
d="M141 564q-18 5 -27 10q-5 2 -8.5 3t-9.5 -1q-12 -4 -18 2.5t-4 20.5q2 11 4.5 20.5t4.5 20.5q2 16 5 31.5t6 32.5q10 1 20 -2t22 0q14 3 25.5 -10.5t9.5 -29.5q-3 -26 -11 -49.5t-19 -48.5zM260 564q-18 5 -27 10q-5 2 -8.5 3t-9.5 -1q-12 -4 -18 2.5t-4 20.5
q2 11 4.5 20.5t4.5 20.5q2 16 5 31.5t6 32.5q10 1 20 -2t22 0q14 3 25.5 -10.5t9.5 -29.5q-3 -26 -11 -49.5t-19 -48.5z" />
    <glyph glyph-name="numbersign" unicode="#" horiz-adv-x="615" 
d="M437 511q19 0 35 0.5t30 -0.5q30 -2 44 -16.5t13 -48.5q-23 0 -47 0.5t-47 -0.5q-15 -1 -23 -2.5t-13 -5.5t-8 -12t-6 -22q-1 -6 -1 -13.5t-1 -15.5q13 -6 24 -8q6 -1 12 -0.5t11 -0.5q36 -4 51 -17t25 -46q-35 2 -70.5 5t-73.5 7q-7 -38 -14 -73.5t-12 -69.5t-8.5 -68
t-5.5 -67q-2 -20 0.5 -40t3.5 -41q-19 5 -38 16t-36 29q1 -6 2 -11.5t1 -12.5q-22 8 -31.5 24t-14.5 35q-27 12 -34.5 24.5t-3.5 40.5q5 32 10.5 64t12.5 64q1 4 1 8.5t1 12.5q-14 -3 -26.5 -5.5t-29.5 -5.5l-10 -80t-10 -79q-5 1 -12 3t-16 4v-8.5t-1 -8.5q-14 5 -27.5 6.5
t-23.5 9.5q-12 9 -16 19t-4 21.5t2 23t3 22.5q-2 1 -2 2.5t-1 1.5q-29 7 -33 14t6 33q2 5 4 8.5t4 8.5q2 14 -1 19.5t-19 6.5q-14 1 -20.5 9t-10.5 19q-5 12 0 19.5t14 12.5q8 5 16.5 8.5t16.5 7.5q9 5 19 8.5t12 10.5q8 14 9.5 30t2.5 31q1 9 1 15t8 14q5 3 6 10.5t4 13.5
q9 34 18 69t19 70q0 4 2 7t4 8q30 -6 37.5 -26t5.5 -46q10 21 19 42.5t19 42.5q20 -9 24 -15.5t-1 -23.5q-6 -25 -13.5 -50t-15.5 -51q-1 -4 -1 -9.5t-1 -13.5q19 2 37 4t35 3q12 1 15 8.5t7 14.5q11 26 20.5 52t19.5 52q10 24 24 48q13 25 35 36t49 10q10 0 20 -7.5
t19 -14.5q2 -2 1 -9t-4 -12q-11 -37 -23.5 -75t-24.5 -78zM209 396q-2 3 -3.5 6.5t-3.5 8.5q-9 -6 -13.5 -12t6.5 -17l8 8t6 7q3 -4 5 -9t6 -5q9 0 19.5 0.5t21.5 0.5q3 10 5 18t5 19q-20 -2 -37 -3t-25 -22zM188 303q-3 -11 -4.5 -19t-3.5 -17q33 -11 43.5 -3.5t14.5 44.5
q-12 -2 -24 -2.5t-26 -2.5zM162 272q6 -3 8 -3l3.5 14t3.5 12q-6 2 -9 2q-1 -6 -2.5 -12.5t-3.5 -12.5zM150 171v19h-3v-19h3z" />
    <glyph glyph-name="dollar" unicode="$" horiz-adv-x="528" 
d="M327 745q-3 -19 -5 -35t-5 -33q32 0 56.5 -11t37.5 -45q19 14 30 21t21 7.5t22 -6t33 -18.5q4 -1 8.5 2.5t9 6t9 1t9.5 -11.5q-35 -29 -52 -68.5t-25 -81.5q-11 -8 -19.5 -13.5t-18.5 -11.5q-5 7 -11.5 12t-13.5 10t-13 11t-9 15q-1 3 -4 3.5t-6.5 0.5t-6.5 1t-4 6l-2 16
t-3 18q-17 -2 -32.5 -9.5t-32.5 -15.5q-8 -6 -8 -13q-5 -42 -10.5 -83t-10.5 -83q8 -3 14 -5t11 -3q51 -12 88 -44.5t65 -80.5q13 -20 10.5 -43t-20.5 -41q-20 -20 -40.5 -37.5t-42.5 -32.5q-22 -14 -44.5 -22t-45.5 -17q-12 -5 -25 -7q-6 -46 -13 -87q-12 -2 -19.5 -1
t-12 8.5t-8 23t-8.5 44.5h-32h-62q-15 0 -26.5 7t-22.5 17q-7 8 -13 15t-15 8q-2 0 -5 10q8 6 17.5 7t18.5 1t18.5 1.5t17.5 8.5q-9 -2 -18 -2.5t-18 -2.5q-9 -1 -18.5 -0.5t-23.5 0.5q6 4 8.5 5.5t4.5 2.5q41 5 78.5 21t77.5 27q12 3 16.5 11t5.5 22q2 27 3.5 54.5
t5.5 56.5q-14 4 -26 7l-24 6q-43 11 -72 39q-5 5 -10 8t-10 7q-74 46 -28 124q36 59 83 103.5t103 75.5q37 22 36 63q-1 10 1.5 18t6.5 15.5t7.5 15t5.5 15.5q0 3 8 5.5t12 1.5q9 -5 18 -10.5t18 -10.5zM366 223q-3 5 -6 9.5t-8 5.5q-21 6 -43 10.5t-47 9.5q-2 -27 -4 -52
t-6 -55q23 13 42 22t38 19q8 -6 17.5 -12.5t20.5 -14.5q10 11 20 22.5t21 25.5q-6 3 -11.5 7t-11 6.5t-11 2.5t-11.5 -6zM215 461q-14 -8 -29.5 -21.5t-29 -28t-23.5 -29.5t-14 -26q20 -4 41 -6t44 -4q3 29 6 57.5t5 57.5zM226 565q-55 -33 -102 -77t-79 -104q6 -8 7 -8
q2 -1 4 -1t5 -1q14 31 33 56.5t41 48t45 43.5t46 43zM335 147q-27 -5 -51 -17.5t-34 -27.5q24 7 44 17t41 28zM309 616q2 -4 2 -7q8 3 16.5 5.5t17.5 6.5q-10 1 -20 4t-16 -9z" />
    <glyph glyph-name="percent" unicode="%" horiz-adv-x="570" 
d="M238 318q35 72 72.5 140t82.5 132q-2 -5 -5 -10.5t-5 -10.5q-29 -60 -58 -119.5t-55 -120.5q-15 -36 -25 -74t-21 -77q-12 -48 -23.5 -96t-22.5 -97q-2 -11 -4 -23.5t-4 -23.5q-10 3 -19 7t-20 7q-15 6 -14 22q1 6 2 12.5t2 12.5q1 5 2.5 11.5t-0.5 10.5q-6 12 -7 23
t1 22.5t4.5 22.5t4.5 22q1 8 2.5 16t3.5 16q-13 6 -19.5 14t-9.5 17.5t-2 20.5t3 22q26 105 64 206.5t103 190.5q2 3 3 5t3 5v3q-17 -3 -38.5 -14.5t-42.5 -26t-37.5 -31t-22.5 -30.5q5 -6 10.5 -13t10.5 -15q25 -28 3 -60q-11 -15 -24.5 -26.5t-31.5 -17.5q-14 -5 -27 -4
t-25 15q-6 5 -14 8.5t-16 6.5q-30 11 -41 28.5t-3 49.5q12 49 54 83q5 4 12.5 8.5t14.5 5.5q15 1 26.5 7t22.5 13q63 41 127.5 75.5t133.5 61.5q6 2 11 5t12 6q8 5 18 4.5t19.5 -5t16 -12t7.5 -16.5q0 -5 -3 -9.5t-6 -9.5q-62 -86 -113 -176t-89 -188q-3 -8 -5 -15t-4 -15
q1 0 5 -2zM187 604q17 4 35.5 11t34.5 15.5t28.5 17.5t18.5 18q-32 -17 -60.5 -32t-56.5 -30zM89 516q-8 -11 -13 -20t-3 -23q11 9 16 18t0 25zM403 410q11 -4 20.5 -7t16.5 -9q32 -27 59 -59q11 -12 13 -26.5t-2 -30.5q-17 -70 -73 -110q-23 -16 -38.5 -13.5t-33.5 23.5
q-5 8 -11.5 12.5t-14.5 8.5q-18 9 -28 22.5t-10 33.5q1 44 19.5 78t48.5 63q6 6 15.5 8t18.5 6zM418 199q-8 -3 -16 -5.5t-17 -5.5q1 -2 2 -3t1 -2q8 4 16.5 4t12.5 13q5 2 9 4.5t9 4.5l-4 4q-3 -4 -6.5 -7t-6.5 -7zM347 230q17 32 31.5 61t29.5 58q-26 -23 -41 -52t-20 -67
zM433 315q-19 -14 -31 -33t-20 -46q23 17 35 36.5t16 42.5z" />
    <glyph glyph-name="ampersand" unicode="&#x26;" horiz-adv-x="669" 
d="M526 475q28 8 43 -4t12 -40q-2 -61 -22 -115t-49 -106q-14 -24 -28 -47t-28 -47q-7 -9 -7 -16.5t14 -15.5q3 6 6 11t7 11q1 -2 1.5 -2t1.5 -1q-2 -7 -4.5 -13.5t-7.5 -15.5q42 -42 85 -81t100 -62q-1 -3 -1.5 -5t-0.5 -4h-23q-11 2 -20 2t-17 -12t-20.5 -10.5t-23.5 5.5
q-17 8 -33 15t-31 18q-18 11 -34.5 24t-34.5 27q-11 -6 -20 -15.5t-18 -18.5t-20 -16.5t-26 -9.5q18 18 36 35t36 35q-8 8 -13.5 12.5t-12.5 10.5q-16 -17 -30 -32.5t-28 -30.5q-5 -4 -10 -9.5t-10.5 -9t-12.5 -4.5t-16 3q-2 2 -5.5 -1t-7.5 -3q-14 -7 -27.5 -13.5
t-29.5 -13.5q16 -15 33.5 -14t36.5 -2q-49 -13 -85 10q-5 4 -12.5 6.5t-12.5 1.5q-35 -2 -65 10.5t-53 36.5t-36 58t-13 76q0 68 22.5 125t66.5 107q11 12 22 24.5t19 27.5q-9 -3 -16.5 -8.5t-14.5 -12t-14.5 -12.5t-16.5 -10q9 11 17 21.5t19 19.5q14 12 16 24.5t-4 31.5
q-13 37 -16.5 77t1.5 81q5 43 21.5 80t45.5 69q31 32 68 46.5t82 3.5q32 -9 56.5 -36.5t31.5 -60.5q1 -10 5 -18.5t6 -17.5q2 -8 3.5 -17.5t-0.5 -18.5q-7 -19 -14.5 -38.5t-18.5 -37.5q-29 -50 -59.5 -98t-60.5 -98q-7 -12 -6 -16.5t12 -18.5q49 70 96.5 138.5t80.5 147.5
q-4 -13 -7 -26.5t-8 -24.5q-22 -40 -43 -78t-43 -75q-14 -25 -31 -49t-34 -51q17 -22 36 -43.5t39 -46.5q24 42 39 82t29 82q14 39 26.5 80.5t8.5 88.5q8 -2 13.5 -3t7.5 -4q14 -14 28 -27.5t28 -27.5q-3 -19 -5.5 -39t-4.5 -40q8 20 12 40t-4 39zM457 385q-10 4 -14.5 -2
t-7.5 -14q-19 -42 -37.5 -82t-36.5 -81q-2 -4 0 -8t2 -8q17 24 28.5 47t22.5 48t22 49.5t21 50.5q2 11 4 21t4 21q-8 -11 -12 -21t4 -21zM327 741q-24 -2 -45.5 -16.5t-39.5 -37.5t-31.5 -52t-22 -58.5t-10 -58t4.5 -50.5q8 0 10 2q35 32 66.5 66.5t55.5 76.5
q8 14 14.5 29.5t8.5 31.5q5 17 4.5 35t-15.5 32zM209 202q-6 -16 -16 -29t-20 -25t-18.5 -25.5t-11.5 -29.5q-5 -33 -5.5 -65t18.5 -64q50 20 85 53t67 75q-25 28 -49 54.5t-50 55.5zM124 -12q-8 25 -6 48.5t8 46t13.5 45t11.5 45.5q-32 -43 -37 -88.5t10 -96.5zM317 558
q-15 -12 -31.5 -27.5t-34.5 -30.5q-17 -15 -34 -30.5t-34 -32.5q2 0 4 -2l4 -4q38 29 70.5 60.5t55.5 66.5zM256 763q-32 -5 -53.5 -21t-29.5 -40q19 14 41 30t42 31zM515 363q-1 1 -1 2t-2 2q0 -1 -0.5 -2t-0.5 -2q-3 -5 -4 -9.5t-2 -9.5h1q3 5 5 9.5t4 9.5z" />
    <glyph glyph-name="quotesingle" unicode="'" horiz-adv-x="234" 
d="M141 564q-18 5 -27 10q-5 2 -8.5 3t-9.5 -1q-12 -4 -18 2.5t-4 20.5q2 11 4.5 20.5t4.5 20.5q2 16 5 31.5t6 32.5q10 1 20 -2t22 0q14 3 25.5 -10.5t9.5 -29.5q-3 -26 -11 -49.5t-19 -48.5z" />
    <glyph glyph-name="parenleft" unicode="(" horiz-adv-x="336" 
d="M144 635q4 3 7.5 6.5l7.5 7.5q25 26 49 52t56 45q10 8 21 10q5 2 9.5 0.5l10.5 -3.5q-159 -139 -193 -351q-3 -20 -2.5 -42.5t3.5 -44.5q5 -34 13 -67.5t16 -67.5q1 -5 5 -10.5t9 -11.5q4 -5 7 -11t5 -11q11 -22 21.5 -43.5t20.5 -42.5q14 -26 31 -50.5t41 -43.5
q-5 -6 -8.5 -12t-10.5 -9q-7 -4 -15.5 -5t-16.5 -3q-10 -2 -19 -0.5t-17 -4.5q-2 -2 -11 2t-15 9q-47 38 -79 91q-60 100 -82.5 202t-6.5 208q11 73 38 137.5t69 121.5q20 29 43.5 54t51.5 46q5 4 10.5 7.5t12.5 5.5q14 7 34 -3q19 -12 17 -24q-16 -13 -30.5 -23t-27.5 -24
q-19 -19 -35.5 -39.5t-33.5 -40.5q-2 -4 -3 -8t-3 -9q-3 -4 -6.5 -7t-6.5 -6q2 -2 3 -2.5t3 -2.5q2 5 3.5 9.5t3.5 8.5z" />
    <glyph glyph-name="parenright" unicode=")" horiz-adv-x="316" 
d="M-51 -103q5 6 6 10t3 6q32 13 52 36t35 49q20 33 38 66.5t38 68.5q1 7 6 21q-7 -1 -11.5 -1.5t-9.5 -1.5q-8 8 -9.5 15.5t1.5 17.5q8 43 14.5 85t12.5 86q9 48 6.5 95t-9.5 95q-10 58 -29.5 112t-52.5 108q-4 6 -6.5 14t-7.5 20q14 -4 22.5 -6.5t16.5 -4.5
q5 -2 11.5 -4.5t8.5 7.5q0 2 4.5 2.5t7.5 -0.5q20 -8 38.5 -18.5t27.5 -30.5q5 -11 9.5 -22.5t23.5 -17.5q2 -1 3.5 -6t3.5 -9q17 -35 26 -71.5t15 -74.5q9 -72 13.5 -144.5t-5.5 -144.5q-7 -48 -18.5 -95t-30.5 -92q-5 -11 -11 -21.5t-24 -12.5q-5 0 -7.5 -6t-6.5 -11
q-16 -23 -31.5 -45.5t-31.5 -45.5q-6 -9 -15 -16t-20 -14q-16 -13 -39 -5q-9 3 -20 2.5t-20 0.5q-6 1 -13 1.5t-15 2.5z" />
    <glyph glyph-name="asterisk" unicode="*" horiz-adv-x="400" 
d="M106 525q-9 7 -17.5 12.5t-17.5 12.5q18 20 41 33t40 34q-16 0 -27 -8.5t-22 -17.5q-11 -8 -21.5 -16.5t-21.5 -18.5q-8 10 -5 17.5t10 12.5q12 10 24 19.5t24 18.5q5 5 10 9t12 9q-17 17 -32.5 33t-32.5 34q14 10 26 10.5t23 -4t21.5 -11t21.5 -10.5q2 14 3 27.5t1 27.5
q15 -2 23.5 -4.5t14 -8.5t8.5 -17t6 -30q16 8 32 15.5t33 15.5q10 5 19.5 8t20.5 6q23 6 34 -15q5 -10 11.5 -18.5t2.5 -21.5q-30 -17 -61 -33.5t-63 -33.5q17 -23 32 -44t29 -42h-51q3 -7 5.5 -11.5t5.5 -11.5q-14 -1 -21 6l-14 14t-13 14.5t-15 18.5q-5 -28 -8.5 -52.5
t-8.5 -50.5q-11 3 -19.5 4.5t-16.5 3.5q-12 2 -15 6.5t-1 16.5q2 14 4.5 29t4.5 33q-11 -7 -20.5 -11.5t-18.5 -9.5z" />
    <glyph glyph-name="plus" unicode="+" horiz-adv-x="348" 
d="M13 245q17 11 32.5 10t30.5 1q11 2 15.5 7t1.5 19q-15 1 -30 1t-32 2q1 8 1.5 14.5t1.5 13.5q2 20 9 26.5t28 7.5h19q5 0 10.5 0.5t12.5 1.5q4 14 7.5 27t8.5 27q5 16 12 18t21 -7q5 -5 11 -5q39 -1 31 -39v-10t-2 -13q8 -1 14.5 -2t13.5 -2q8 -1 16 -0.5t16 -0.5
q20 -1 23.5 -6.5t-4.5 -25.5q-2 -8 -9 -18q-7 -20 -30 -18h-43q-8 0 -9.5 -2t-5.5 -15h49v-4q-13 -1 -25.5 -2t-26.5 -2q-8 -26 -16.5 -51.5t-16.5 -51.5q-13 1 -20.5 9t-15.5 19l-5.5 -11t-4.5 -10q-18 9 -21 13.5t-1 20.5q2 14 4.5 29.5t5.5 33.5q-20 -1 -38.5 -2
t-38.5 -3z" />
    <glyph glyph-name="comma" unicode="," horiz-adv-x="234" 
d="M-19 -58q21 40 28.5 79.5t18.5 77.5q15 8 29 7t27 -9q12 -6 18.5 -10.5t9 -9.5t1 -13.5t-4.5 -21.5q-5 -21 -11 -41.5t-14 -40.5q-3 -8 -8 -14.5t-10 -13.5q-14 7 -25 9t-24 -2q-6 -4 -15 -1.5t-20 4.5zM91 81q-11 -33 -21 -64.5t-20 -61.5q9 10 17 26.5t14 35t9 36
t1 28.5z" />
    <glyph glyph-name="hyphen" unicode="-" horiz-adv-x="447" 
d="M360 324q2 -19 -7 -35t-20 -33h-326q2 6 5 11.5t6 11.5q5 14 13 26t8 28q0 22 24 21q17 -1 34.5 -2t34.5 -3l216 -21q6 0 12 -4zM238 267q-20 2 -41.5 3.5t-41.5 3.5q20 -11 41 -10t42 3zM360 324q-14 5 -27.5 9.5t-27.5 6.5q-23 4 -46.5 6.5t-46.5 6.5q39 -3 78 -3
t81 -9q-4 -5 -6.5 -9t-5.5 -8h1z" />
    <glyph glyph-name="period" unicode="." horiz-adv-x="223" 
d="M61 2q-32 0 -46 30q-5 15 -4 30t13 29q10 13 22.5 15t26.5 -1q19 -3 32 -13.5t17 -28.5q3 -8 1 -17.5t-6 -18.5q-2 -6 -7 -11.5t-10 -13.5h-39z" />
    <glyph glyph-name="zero" unicode="0" horiz-adv-x="479" 
d="M377 686q11 -7 15.5 -17t6.5 -21q18 -67 24 -134.5t4 -136.5q0 -16 -2 -31.5t-4 -31.5q-1 -9 -1 -18t-14 -14q-3 -2 -4 -10t-2 -13q-8 -49 -19 -96t-28 -94q-8 -20 -18 -39t-18 -38q-18 2 -32.5 3.5t-28.5 3.5q1 10 5 19q-3 0 -6 -0.5t-7 -1.5q3 7 4.5 12t3.5 13
q-7 -5 -12 -8t-10 -5t-11 -4.5t-10 -1.5q-27 4 -53 7t-52 8q-7 1 -13.5 3.5t-13.5 4.5q-19 0 -30 9.5t-16 26.5q-1 7 -2.5 12.5t-3.5 10.5q-18 104 -19.5 207.5t22.5 207.5q4 16 9 31t10 32q3 8 6 15l6 14q8 16 15.5 25.5t16.5 14t21.5 4.5t29.5 -3q5 4 9.5 7.5t9.5 8.5
q20 17 41 21t45 -7q10 -5 20.5 -7t20.5 -5q11 -2 22 -5t23 -6q-3 11 -7 21.5t-8 20.5q13 10 22.5 9t16.5 -15q8 -12 12.5 -25.5t7.5 -27.5q5 -16 7.5 -31t7.5 -31q-2 28 -5.5 54t-13.5 52zM260 641q-9 -11 -19.5 -20t-18.5 -20q-12 -20 -24.5 -40.5t-20.5 -43.5
q-16 -45 -29 -91t-28 -92t-14 -92t13 -92q5 -22 13 -44t24 -42q8 7 15.5 11.5t12.5 12.5q11 15 23 30t22 32q35 63 53 130t24 139q2 35 0 68.5t-10 68.5q-5 21 -12.5 43t-23.5 42zM190 69q17 11 30 25t24 31q23 38 40.5 78.5t29.5 83.5q50 163 -2 321q-2 5 -5 11t-5 11
q45 -156 15 -294.5t-127 -266.5zM119 625q-31 -32 -42.5 -71.5t-19.5 -81.5q16 38 31.5 76.5t30.5 76.5zM186 638q2 -2 3.5 -4t2.5 -4q10 7 18.5 13t17.5 14q-3 3 -3 6q-11 -6 -20.5 -12.5t-18.5 -12.5z" />
    <glyph glyph-name="one" unicode="1" horiz-adv-x="236" 
d="M200 722q-14 -31 -21 -63t-13 -65q-12 -73 -15.5 -147t-5.5 -150v-36t3 -35q4 54 6.5 108.5t5.5 110.5q4 54 13 107t23 107q-2 -21 -4.5 -41.5t-4.5 -40.5q-8 -84 -7.5 -166t2.5 -166q2 -50 5.5 -99t5.5 -99q2 -23 6.5 -45.5t17.5 -43.5q-22 -4 -40 5.5t-36 14.5
q-6 2 -10.5 12t-7.5 19q-5 19 -7.5 38t-5.5 39q-3 -1 -7 -1q1 -15 1.5 -31t0.5 -31q-45 -14 -48 27q-9 73 -9 143q-1 72 0 142.5t0 142.5q-11 0 -22 -1t-22 1q-5 -1 -10.5 3.5t-7.5 8.5t1 9.5t7 10.5q4 6 9 11.5t9 12.5q15 32 29.5 63t27.5 63q8 19 12.5 38t10.5 40
q13 -2 26.5 -5.5t25.5 -0.5q17 5 30 1t26 -11zM153 55q-2 11 -4 25h-1q2 -14 4 -25h1zM145 128q1 -6 1.5 -11t1.5 -10q1 0 2 1q-1 5 -1.5 9.5t-1.5 10.5h-2zM147 169q-2 0 -3 -1q1 -5 1.5 -8.5t1.5 -8.5h3q-1 5 -1.5 9t-1.5 9zM145 188q3 0 5 3q-1 4 -1.5 8t-2.5 8h-3
q0 -5 0.5 -9.5t1.5 -9.5z" />
    <glyph glyph-name="two" unicode="2" horiz-adv-x="491" 
d="M350 625q-2 1 -3 2t-2 1q-90 -14 -153 -60.5t-98 -127.5q-4 -10 -5.5 -19.5t-3.5 -18.5v-13t1.5 -8.5t5 -7t10.5 -9.5q-1 -1 -1 -1.5t-1 -1.5l-1 -1q-17 4 -34 6.5t-32 10.5q-14 8 -19.5 22.5t-7.5 29.5q-4 36 13 75q33 72 88 120.5t133 71.5q28 9 57 7.5t55 -18.5
q24 -18 47.5 -38.5t37.5 -50.5q0 1 2 -3q3 1 7 3q6 3 10 6q8 -7 14.5 -14.5t14.5 -15.5q-5 -7 -8.5 -12t-6.5 -10q-22 -29 -40.5 -59.5t-33.5 -63.5q-22 -44 -46.5 -86t-48.5 -86q-9 -15 -18.5 -31.5t-19.5 -33.5q-4 5 -6.5 8.5t-7.5 7.5q-11 -15 -21 -29.5t-22 -31.5
q7 -1 12.5 -1.5t10.5 -0.5q31 0 61 0.5t62 1.5q14 0 26.5 -5t18.5 -19q2 -2 4.5 -5t5.5 -4q18 -7 25.5 -22.5t15.5 -31.5q-53 4 -105 4.5t-103.5 -6t-101.5 -21.5t-99 -40q-11 17 -22 35.5t-23 38.5q10 16 24.5 24t30.5 14q14 5 23 13t17 21q43 69 87.5 137.5t86.5 139.5
q21 34 39 69t35 72q11 22 12.5 35.5t0.5 30.5zM330 653q-17 3 -32.5 -1t-30.5 -9q-52 -22 -94 -55.5t-74 -80.5q-12 -19 -21.5 -40t-19.5 -41q-2 -6 -3.5 -15.5t8.5 -17.5q30 102 99 164.5t168 95.5zM398 618q-1 -10 -1 -16.5t-1 -14.5q-1 -6 -1.5 -12.5t-2.5 -13.5
q-2 -10 3 -13.5t13 -4.5q14 26 12 43t-22 32zM223 245q-9 -14 -18.5 -27.5t-18.5 -27.5q-9 -13 -18 -25t-12 -29q20 25 40 50.5t27 58.5zM302 119h-32q0 -1 -2 -2h34v2z" />
    <glyph glyph-name="three" unicode="3" horiz-adv-x="441" 
d="M236 582q-50 -17 -96.5 -38t-89.5 -50q-29 24 -61 49q9 20 26.5 29.5t33.5 22.5q-8 3 -16 5t-14.5 6t-11.5 10t-6 17q4 6 7 7q57 16 113 31t113 29q29 7 59 10.5t59 6.5q11 2 21 0t19 -6q12 -5 19.5 -15t2.5 -26q5 -1 9.5 -2t9.5 -2q-1 -3 -1 -6t-1 -3q-10 -6 -16 -13
t-8 -20q-2 -8 -7 -14t-10 -13q-25 -30 -49 -60t-48 -61q-6 -8 -11 -15.5t-13 -16.5q38 -5 61.5 -27.5t43.5 -47.5q14 -17 14 -38t-5 -43q-7 -29 -19.5 -55.5t-29.5 -50.5q-41 -60 -93 -105.5t-117 -78.5q-17 -11 -34 -15q-18 -5 -35 -3.5t-31 18.5q-5 6 -13 9.5t-16 8.5
q-18 9 -23 18.5t-3 32.5q4 -1 7.5 -1.5t5.5 -3.5q11 -14 23.5 -13.5t26.5 7.5q29 12 55.5 29.5t49.5 38.5q38 33 72.5 68t62.5 77q12 17 21 35.5t19 37.5q4 8 5 16.5t4 20.5q-33 -2 -60 -11t-46 -35q-13 -17 -22.5 -35t-20.5 -36q-4 -7 -8 -13.5t-10 -12.5q6 24 18.5 45
t23.5 44q-13 -5 -20.5 -14t-13 -19.5l-11 -21t-14.5 -17.5q-21 9 -33 14.5t-16.5 11.5t-4 14t4.5 22q-3 2 -6 2.5t-6 2.5q-22 14 -8 36q23 34 45.5 67t46.5 65q18 25 37.5 48t38.5 46z" />
    <glyph glyph-name="four" unicode="4" horiz-adv-x="472" 
d="M72 275q-9 -3 -12 -8t-3.5 -11t-0.5 -12.5t-3 -11.5q-4 2 -7 3t-5 3q-5 9 -12 11t-15 2q-10 2 -17 6.5t-12 17.5q6 5 11.5 10t12.5 9q15 6 19 17.5t5 26.5q9 78 20.5 155.5t31.5 153.5q4 21 13 45q21 -12 39 -25.5t23 -38.5q8 -35 9.5 -69.5t-1.5 -70.5q-6 -59 -9 -125
q33 11 64 21t61 19q12 75 16.5 150.5t21.5 150.5q11 -2 25 -4q-1 -4 -1.5 -7t-1.5 -7q10 3 17 1t12.5 -6.5t10.5 -10.5t11 -11l6 12t5 12q20 -6 26 -13.5t3 -24.5l-8 -64t-9 -64q-2 -18 -4.5 -36t-6.5 -35q-2 -12 1 -22t14 -18q4 -1 13 -13q-11 -5 -19.5 -10.5t-19.5 -11.5
q-5 -53 -11.5 -107t-12.5 -108q-7 -53 -9 -106t3 -107q-3 -1 -5 -1.5t-4 -0.5q-3 6 -6.5 11.5t-6.5 11.5q-2 8 -3.5 15.5t-0.5 15.5q2 19 -7.5 29.5t-24.5 16.5l-8 2t-9 3q-17 6 -25 16t-8 29q0 47 3 94l15 132q1 5 0.5 9.5t-0.5 11.5q-32 -5 -61.5 -15.5t-60.5 -20.5
q0 -12 -1 -24.5t-2 -26.5q-14 4 -27 8t-27 9q-1 -16 -2 -30.5t-3 -30.5q-12 6 -15.5 14.5t-3.5 17.5t1 18t-2 18zM92 461q-1 0 -2.5 0.5t-2.5 0.5q-8 -33 -13.5 -66.5t-6.5 -68.5q7 3 12 6t6 7q2 31 3.5 60.5t3.5 60.5z" />
    <glyph glyph-name="five" unicode="5" horiz-adv-x="459" 
d="M459 648q-16 13 -31.5 15t-31.5 -15q8 -4 18 -8t15 -11q4 -6 2.5 -16t-1.5 -21q-14 -1 -27 -2.5t-27 -1.5q-52 2 -101.5 -3.5t-100.5 -14.5q-5 -1 -9.5 -2.5t-11.5 -2.5q-5 -38 -8 -76.5t-7 -80.5q11 4 19.5 6t16.5 4q54 20 104.5 6.5t82.5 -58.5q39 -52 39 -122
q-1 -76 -27 -148q-11 -33 -33 -59t-51 -47q-42 -30 -92 -15q-16 4 -39 6q-14 1 -27 4.5t-29 14.5q6 4 10.5 6t9.5 4q-1 2 -1 3t-1 3q-6 1 -13 1.5t-14 1.5q-26 3 -50.5 6t-49.5 6q-10 2 -17 5.5t-8 15.5q0 2 -3.5 4t-6.5 7q6 -1 11.5 -1t11.5 -1q22 -5 42.5 -3.5t40.5 6.5
q33 9 64.5 26t57 43t43 61t21.5 80q1 21 -1.5 41t-12.5 40q-8 16 -17 19.5t-28 -3.5q-18 -9 -34.5 -19.5t-26.5 -30.5q-4 -8 -14 -14t-21 -15q-8 2 -18.5 5t-20.5 7q-20 7 -26 21t-6 31q0 18 0.5 35t1.5 34q3 50 5.5 99t4.5 100q1 11 2.5 22t-6.5 23q-2 2 1 9.5t7 11.5
q18 8 37 14q54 10 109 14t110 2q28 -2 54.5 -3t52.5 -5q50 -7 56 -64zM115 61q16 0 38.5 10t43.5 25.5t36 34t17 34.5q-26 -37 -60.5 -62t-74.5 -42zM311 378q-17 19 -33 23t-37 -4q11 -12 22 -23.5t23 -25.5q2 11 5 20t20 10zM85 611v-57q2 17 3 30t3 27h-6zM74 422v12h-1
v-12h1z" />
    <glyph glyph-name="six" unicode="6" horiz-adv-x="510" 
d="M153 401q6 8 12 16.5t13 16.5q-4 -14 -11.5 -27t-14.5 -25.5t-12.5 -26t-6.5 -28.5q-2 -29 -5 -58.5t-4 -58.5q-3 -58 20 -115q22 3 39 11t34 20q14 11 10 28q-14 51 -15.5 102t5.5 103q4 29 13 56t28 50q2 3 5.5 6t6.5 7q35 33 68.5 33t69.5 -45l15 -21q35 -38 40 -81.5
t-8 -90.5q-18 -60 -50 -110.5t-74 -95.5q-5 -5 -9.5 -10.5t-9.5 -9.5q2 -11 2.5 -19t2.5 -17q-2 -1 -2.5 -1.5t-2.5 -0.5q-5 5 -9 10.5t-8 10.5q-12 -8 -23.5 -15.5t-23.5 -13.5q-77 -40 -132 30q-5 7 -11 13.5t-13 11.5q-32 23 -50 58q-3 6 -8 12t-8 12q-4 7 -7 13.5
t-4 14.5q-4 17 -6 35.5t-5 35.5q-8 39 -7 78.5t6 79.5q9 70 36.5 132t70.5 119q21 27 45 51q13 12 21.5 18.5t16 7t17 -4t23.5 -13.5q13 5 25 11t26 11l1 -1q1 -1 1.5 -2t1.5 -2q-5 -15 -17.5 -21.5t-23.5 -14.5v-6q1 -3 3 -5t4 -7q13 8 26 15.5t27 16.5q11 -4 10.5 -15
t4.5 -18q5 -6 12 -12t12 -12q-29 -31 -56 -58.5t-53 -56.5t-48 -59.5t-41 -64.5q2 -1 2.5 -2t2.5 -1zM169 85q6 -8 12.5 -10.5t16.5 2.5q11 7 21 13t20 11q-7 11 -9 13.5t-7 0.5q-13 -8 -26 -15.5t-27 -15.5q-5 0 -10 0.5l-15 1.5q5 -8 7.5 -11t5.5 -5q2 -2 5 -2.5t6 -0.5
v18zM34 400q-4 1 -8.5 2t-9.5 3q-8 -32 -11 -64.5t3 -64.5q4 32 9 63t16 62q5 14 11 28.5t11 28.5q-9 -14 -16 -28t-5 -30zM390 421q-27 -10 -42.5 -26t-26.5 -38q-15 -29 -21.5 -60.5t-9.5 -63.5v-29q21 23 39.5 47t32 50t21.5 55.5t7 64.5zM151 630q-19 -21 -35 -42.5
t-24 -50.5q16 21 30.5 42t28.5 42q2 2 1 4.5t-1 4.5zM290 438q17 14 35 24t44 12q-22 10 -41 0t-38 -36zM218 693q-6 -2 -10 -3t-6.5 -3.5t-5.5 -6t-8 -10.5q9 7 15.5 12t14.5 11z" />
    <glyph glyph-name="seven" unicode="7" horiz-adv-x="472" 
d="M83 547q-12 5 -24.5 10t-27.5 10q10 9 17.5 15.5t15.5 12.5l-4 10l-4 10q-11 2 -21.5 4t-20.5 5.5t-18.5 11t-14.5 21.5q8 5 15.5 10.5t15.5 8.5q31 8 61 17.5t61 14.5q51 8 103 11.5t103 9.5q37 3 66 -12t55 -39q5 -5 7.5 -11t6.5 -12q-11 -2 -21.5 -3t-21.5 -2v-6
l10 -6t10 -7q19 -14 21.5 -24.5t-8.5 -30.5q-21 -42 -41.5 -84t-40.5 -84q-4 -6 -6.5 -12.5t-5.5 -14.5q5 -3 9 -5.5t8 -6.5q5 -5 10 -9.5t-9 -12.5q-5 -4 -2 -9.5t10 -6.5q7 -2 15 -1.5t19 0.5l-20 -10q6 -5 12 -8.5t12 -7.5q-2 -2 -4 -6l-14 -2q-16 -2 -32 -3t-31 -3
q-22 0 -31 -24q-28 -78 -52 -157t-33 -162q-2 -6 -2 -13l-11 3q-20 5 -27 12t-6 28q2 54 5 106.5t14 105.5q2 11 2.5 22.5t-10.5 23.5q-8 -25 -16 -49t-16 -47t-12.5 -47t-18.5 -45q3 51 15 99t26 97l-11 -2q-12 -10 -23 -12t-21 0.5t-19.5 8.5t-18.5 13q-11 7 -20.5 13
t-13.5 21q4 14 15 23t25 14l48 16t50 15q17 4 26 12.5t15 25.5q19 51 40.5 101t50.5 98q1 2 1.5 5t3.5 8q-27 -2 -52 -3t-49 -6q-31 -6 -61.5 -14t-61.5 -17q-6 -2 -11.5 -6.5t-10.5 -9.5zM376 671q-11 3 -34.5 1.5t-53.5 -5.5t-62.5 -10t-61 -13t-50 -14.5t-28.5 -13.5
q73 14 145.5 27.5t144.5 27.5zM285 382q14 12 24 35.5t9 43.5q-14 -17 -20 -38t-13 -41zM83 547l40 4q-13 -11 -24 -16zM336 493q-2 2 -3.5 2.5t-2.5 1.5q-7 -16 -10 -30z" />
    <glyph glyph-name="eight" unicode="8" horiz-adv-x="501" 
d="M369 254q8 -4 14 -9l12 -10q28 -23 38 -52t-2 -58q-20 -48 -51.5 -86t-78.5 -64q-21 -12 -44.5 -18.5t-49.5 1.5q-32 10 -64 21.5t-61 31.5q-95 60 -83 166q5 51 23 94t49 82q14 17 15 34.5t-10 37.5q-30 54 -13 107q26 80 82 127t146 58q29 3 54.5 -6t43.5 -37
q5 -7 13 -10q23 -9 31.5 -25.5t9.5 -36.5q-1 -8 0 -16.5t10 -13.5q10 -6 11.5 -15t-1.5 -17q-5 -20 -10.5 -40.5t-11.5 -39.5q-17 -51 -34.5 -101.5t-37.5 -104.5zM187 114q10 47 27.5 90t33.5 88q-14 6 -26 11.5t-24 11.5q-7 -11 -13 -20t-13 -18q-12 -17 0 -34
q0 -2 0.5 -3t-0.5 -3q-3 2 -7 3t-9 3q-15 -30 -25 -60.5t-14 -64.5q-2 -23 2 -45.5t19 -44.5q25 0 54.5 13.5t56.5 34t47 45t27 48.5q-6 6 -12.5 11.5t-13.5 11.5v-5q-11 2 -32 4q-8 -24 -16 -48.5t-16 -49.5q-13 5 -24 10.5t-22 10.5zM259 320q3 7 4.5 12t3.5 10
q12 49 20.5 98t27.5 94q8 20 11 42t8 43q1 5 1 11.5t2 15.5q-20 -7 -36.5 -12t-28.5 -18q6 -7 11.5 -13t10.5 -12q-34 -26 -58 -55.5t-43 -64.5q-8 -14 -14.5 -28t-5.5 -31q-12 -9 -6.5 -18t11.5 -19q14 -22 35.5 -33t45.5 -22zM224 0q5 2 11 3.5t11 4.5q47 24 82 58t58 80
q4 8 6 17l4 18q3 19 -16 38q1 -18 1 -29.5t-2 -21.5t-6.5 -18.5t-11.5 -20.5q-6 -9 -12 -17.5t-13 -17.5q-23 -28 -51.5 -51t-60.5 -43zM382 509l6 -2q8 23 17 45t15 45q3 8 2 18t-2 19q-2 14 -21 15q2 -37 0 -72.5t-17 -67.5zM60 135q3 12 5.5 24.5t7.5 25.5q4 14 9 26
t9 26q3 11 11 21t2 24q-44 -67 -44 -147zM335 668q0 3 -1 6q-58 -6 -97 -42q26 9 49.5 18t48.5 18z" />
    <glyph glyph-name="nine" unicode="9" horiz-adv-x="418" 
d="M263 351q-11 -9 -20 -18l-20 -20q-8 -7 -16 -13.5t-18 -12.5q-18 -10 -35 -11t-37 11q-15 10 -32 16t-34 11q-23 8 -34.5 21t-16.5 33q-7 49 7 101q14 54 39 102.5t70 88.5q10 10 21 17l22 14q22 15 45.5 15.5t46.5 -11.5q45 -26 92 -58q3 3 8.5 8t11.5 6q8 0 17 -3.5
t17 -7.5q6 -2 11 -7t10 -8q8 -5 9.5 -10.5t-0.5 -13.5q-11 -53 -22 -105.5t-23 -105t-27 -104.5t-34 -103q-15 -45 -35.5 -86.5t-40.5 -85.5q-2 -6 -6 -11.5t-8 -12.5q-14 -20 -23.5 -23.5t-34.5 4.5q-7 2 -13.5 3.5t-14.5 3.5q17 15 29 32.5t22 36.5t19 38t19 37
q9 16 16 32.5t16 35.5q-13 1 -15 -4.5t-4 -10.5l-38 -74t-37 -74q-8 -14 -18 -27t-30 -19l-6 6l-5 5q11 18 22 35t17 35q29 69 57 139.5t55 140.5q0 2 2 10q-2 2 -3 2zM259 632q-29 -13 -58 -47t-50 -74.5t-31 -81.5t-2 -67q35 28 62.5 59t53.5 65q-10 5 -13 6
q-22 8 -23.5 13.5t9.5 23.5t20.5 35.5t20.5 34.5q3 7 5 14.5t6 18.5zM67 429q1 0 2 -1q17 32 33 64t33 62q19 33 45.5 58t61.5 47q-13 3 -19 1q-11 -8 -23 -15t-22 -17q-30 -26 -50.5 -58t-34.5 -68q-8 -18 -13.5 -36.5t-12.5 -36.5zM294 459q-36 -40 -76 -82
q-20 -20 -44 -37t-55 -30q18 -5 28.5 0t20.5 11q18 10 39.5 29t40.5 39t32 39t14 31z" />
    <glyph glyph-name="colon" unicode=":" horiz-adv-x="243" 
d="M110 295q-32 0 -46 30q-5 15 -4 30t13 29q10 13 22.5 15t26.5 -1q19 -3 32 -13.5t17 -28.5q3 -8 1 -17.5t-6 -18.5q-2 -6 -7 -11.5t-10 -13.5h-39zM82 84q-32 0 -46 30q-5 15 -4 30t13 29q10 13 22.5 15t26.5 -1q19 -3 32 -13.5t17 -28.5q3 -8 1 -17.5t-6 -18.5
q-2 -6 -7 -11.5t-10 -13.5h-39z" />
    <glyph glyph-name="semicolon" unicode=";" horiz-adv-x="243" 
d="M-15 43q28 36 42 73.5t31 73.5q16 6 29.5 2t25.5 -13q11 -8 16.5 -13.5t7 -11.5t-1 -13.5t-8.5 -20.5q-17 -40 -38 -76q-5 -8 -11 -13.5t-12 -11.5q-12 9 -22.5 13t-24.5 2q-7 -2 -15 2t-19 7zM117 162q-16 -31 -31.5 -60t-30.5 -58q10 8 21 23.5t20 32.5t15 34t6 28z
M110 295q-32 0 -46 30q-5 15 -4 30t13 29q10 13 22.5 15t26.5 -1q19 -3 32 -13.5t17 -28.5q3 -8 1 -17.5t-6 -18.5q-2 -6 -7 -11.5t-10 -13.5h-39z" />
    <glyph glyph-name="equal" unicode="=" horiz-adv-x="378" 
d="M58 399q14 1 27.5 0.5t26.5 -0.5q44 -2 86 -3t84 -3q9 0 18.5 -2t20.5 -4q-7 -28 -15 -52q-7 -21 -30 -21h-96l-150 -4l6 47q4 3 9 3t9.5 -1t8.5 0.5t6 7.5h-27q-7 17 -4 23.5t20 8.5zM290 266q0 -14 1 -26t-1 -23t-10 -12.5t-16 -1.5q-17 0 -34 2.5t-35 2.5
q-22 0 -43.5 -1.5t-44.5 -3.5q-20 -2 -39.5 -5.5t-39.5 -6.5q-3 12 -3 22h-13.5t-9.5 10q-2 8 2 13.5t11 7.5q18 8 36 14.5t37 7.5q48 0 93 0.5t91 0.5q4 0 8 -0.5t10 -0.5zM100 365q-1 3 -1 5l-23 -3z" />
    <glyph glyph-name="question" unicode="?" horiz-adv-x="512" 
d="M128 669q6 3 12 5.5t11 6.5q57 39 118 66t129 40q21 4 42.5 6t42.5 -3q14 -2 25.5 -8t18.5 -17q10 -16 19.5 -32t15.5 -34q4 -8 2.5 -18.5t-5.5 -19.5q-7 -15 -16 -29l-18 -28q-11 -18 -22.5 -36t-22.5 -36q-4 -5 -7 -9.5t-7 -9.5q-51 -76 -101.5 -151.5t-99.5 -151.5
q-14 -20 -23 -41t-19 -43q-6 -10 -9 -20q-9 5 -10.5 11.5t0 13t3 13.5t-1.5 14q-5 -8 -8.5 -14t-7.5 -13q-7 5 -12.5 8.5t-11.5 6.5q-16 7 -10 26q5 15 2.5 27t-20.5 20q-9 3 -12 10.5t3 18.5q3 3 5 7.5t5 9.5l192 252q7 8 14 15t19 11q6 2 11.5 9t10.5 13q10 12 19 24.5
t19 25.5q10 11 19.5 21t20.5 19q14 12 24 28.5t23 34.5q-29 5 -53 2.5t-48 -7.5q-25 -6 -55 -15q-8 -3 -16.5 -5.5t-12.5 -13.5q-2 -3 -6 -4.5t-7 -2.5q-53 -17 -97.5 -46.5t-88.5 -61.5q-7 -5 -13.5 -10.5t-12.5 -10.5q-9 -8 -11 -17.5t-5 -20.5q-2 -11 1.5 -19t10.5 -16
q5 -5 8.5 -11.5t7.5 -12.5q-8 -7 -15.5 -6.5t-15.5 4.5q-21 9 -37 24t-30 32q-24 30 -4 67q18 33 43.5 57t54.5 45q6 4 12 7t13 8q-2 -11 -4 -15q-2 -1 -5 -1t-6 -2q-16 -14 -32.5 -27.5t-30.5 -30.5q-11 -12 -19.5 -26t-16.5 -28q-15 -26 4 -50q2 12 5 23.5t6 22.5
q9 27 27 48.5t38 41.5q15 14 29 29zM292 320q10 14 17.5 26t15.5 23q-23 -17 -29 -26t-4 -23zM87 21q1 37 30 54q17 8 30 3.5t26 -14.5q8 -6 14 -14q11 -13 16.5 -22t5 -17t-7.5 -16.5t-20 -19.5t-20.5 -12t-23.5 7q-7 4 -14 7t-14 7q-11 7 -15.5 16.5t-6.5 20.5zM44 630
l-2 1l6 8l6 8q4 -2 5 -2z" />
    <glyph glyph-name="at" unicode="@" horiz-adv-x="693" 
d="M122 256q-4 -15 -3.5 -30.5t8.5 -30.5q0 -2 1 -3.5t1 -4.5q-1 -15 4 -25t13 -16.5t18.5 -10.5t21.5 -7q40 -13 80 -12.5t81 11.5q25 6 50 11.5t49 13.5t46.5 20t44.5 23q8 4 16 6t16 -2q8 -3 16 -3.5t16 -2.5q5 -8 11 -16.5t12 -16.5q12 -13 1 -25q-3 -2 -6.5 -5t-7.5 -6
q-40 -29 -83 -52.5t-91 -42.5q-46 -19 -93 -21.5t-97 9.5q8 -7 16.5 -11.5t20 -8t27 -6t38.5 -4.5q-58 -11 -119 23q-20 11 -40.5 21.5t-40.5 21.5q-47 25 -83.5 66.5t-55 93.5t-15.5 111t35 118q40 73 101.5 114.5t140.5 60.5q43 11 85.5 8.5t83.5 -19.5q16 -7 30.5 -16
t29.5 -19q10 -6 19 -14.5t19 -15.5q36 -26 52.5 -62t20.5 -80q2 -19 -4 -36.5t-17 -32.5q-31 -42 -76 -67q-23 -15 -52 -5q-11 4 -22.5 6t-23.5 4q-15 -11 -31.5 -23.5t-33.5 -24.5q-14 -10 -29 -11.5t-32 11.5q-7 5 -17 7l-20 4q-22 5 -30 16t-5 33q7 82 72 139
q14 14 31 19t34 8q10 1 23 -4q11 -6 20 0q10 4 19 2.5t14 -15.5q5 -16 21 -9q11 4 20 -6.5t7 -24.5q0 -7 -2 -12t-3 -12q-1 -5 -2 -11t-3 -15q48 41 50 95q2 28 -7 52.5t-25 47.5q-6 9 -15 12t-20 4q-62 8 -117 -9t-103 -55q-22 -15 -40.5 -34t-36.5 -39q-35 -42 -47.5 -90
t-7.5 -102q1 -4 1.5 -8t1.5 -8q0 -2 2 -3t6 -5v47q0 12 11 12h-1zM382 403q-18 -7 -35 -23.5t-29 -37.5t-17 -43t0 -39q13 9 25.5 17.5t23.5 17.5q4 4 8 7.5t5 8.5q5 23 9.5 46t9.5 46zM58 251q0 107 52 179.5t142 121.5q-48 -15 -89.5 -46.5t-69.5 -72t-38.5 -88t3.5 -94.5
zM564 429q-8 -49 -33.5 -81t-61.5 -56q22 6 40 20t31 32t19.5 40t4.5 45zM253 311q-1 -5 -1.5 -11t-1.5 -11q2 -1 4 -1q1 6 1.5 12t2.5 11h-5zM193 83q0 -2 -0.5 -3.5t-0.5 -3.5q6 -2 11 -3t11 -3v7q-5 2 -10.5 3t-10.5 3zM123 256q-8 6 -7.5 13t6.5 15v-28h1z" />
    <glyph glyph-name="A" unicode="A" horiz-adv-x="436" 
d="M345 -110q-17 2 -22.5 6t-8.5 21q-1 6 -1.5 12.5t-3.5 13.5v-52q-16 3 -22 7.5t-8 18.5q-2 15 -3.5 30.5t-2.5 29.5q-2 59 -3 117t-3 116v21q-27 -2 -52 -7.5t-51 -10.5q-2 -1 -4 -4.5t-6 -8.5q23 -3 44 -4.5t41 -3.5q0 -2 -0.5 -3.5t-0.5 -3.5h-68q-24 0 -31 -24
l-20 -44t-21 -45q-5 -10 -10.5 -18.5t-11.5 -18.5q-9 4 -18 9q10 19 19 36.5t18 36.5q-11 -4 -17 -6.5t-10 -6t-7 -9t-8 -14.5q-2 -4 -3.5 -7.5t-3.5 -7.5q-11 -19 -19.5 -19t-24.5 18q6 13 11.5 26t12.5 27q-27 5 -43 22t-30 35q-21 27 9 48q12 8 24.5 14.5t26.5 11.5
q16 5 24.5 16t14.5 25q31 66 61.5 131t62.5 129q15 29 33 57t35 57q11 17 21 35.5t21 35.5q5 8 11 14.5t11 13.5q6 -4 9 -6.5t6 -4.5q7 -5 15.5 -8.5t12.5 -10.5l14 -28t6 -34q-4 -85 -4.5 -170.5t-2.5 -171.5q-1 -12 2 -22.5t14 -18.5q12 -9 14 -22t0 -27q-12 0 -31 3
q5 -88 11.5 -174.5t13.5 -177.5h-43zM264 306q2 13 3 33.5t0.5 42.5t-2 41t-4.5 28q-16 -38 -31.5 -75t-32.5 -78q20 2 36 4t31 4zM156 320q4 -2 7 -3q22 42 44 82t45 81q8 14 9.5 27.5t-3.5 33.5q-26 -58 -51.5 -112.5t-50.5 -108.5zM338 640q8 15 8.5 31.5t-2.5 33.5
q-7 -17 -11 -32.5t5 -32.5zM314 322q2 -2 3 -2v61h-3v-59zM192 327q-2 0 -4 2q-2 -5 -4 -8.5t-4 -8.5q1 -1 2 -1h1q3 4 5 8z" />
    <glyph glyph-name="B" unicode="B" horiz-adv-x="497" 
d="M75 547q-2 9 4.5 11t11.5 5q8 5 11 11t-1 17q-14 -4 -26 -11.5t-23 -16.5l-22 -18t-23 -16q-30 21 -3 44q12 11 25.5 19t27.5 18l-21 18q-12 12 -11.5 24.5t14.5 20.5q17 9 34.5 16t35.5 11q60 15 120 22t121 -1q44 -6 80 -22q11 -5 20 -14t14 -19q15 -27 23 -59
q2 -11 1 -22.5t-4 -22.5q-5 -22 -17.5 -40t-27.5 -32q-26 -26 -53.5 -49t-53.5 -48q-5 -4 -11 -9t-16 -13q28 -2 48.5 -11t36 -23t26.5 -32t20 -39q19 -46 -4 -86q-11 -18 -24 -34t-29 -29q-137 -119 -304 -183q-17 -7 -35 -10.5t-38 -8.5q-2 10 -8.5 18t-12.5 15.5
t-9.5 16.5t1.5 22q26 8 52.5 15t49.5 23q3 133 6 265t20 266q-8 -2 -14.5 -4t-12.5 -4zM243 159q-1 2 -1.5 2t-0.5 2q16 13 32.5 25.5t33.5 25.5q17 14 33 28t27 34q-2 2 -2.5 3t-2.5 2q-39 11 -78 13t-78 -1q-7 0 -13.5 -3.5t-11.5 -6.5q-2 -52 -3.5 -101t8.5 -102
q23 14 43 25.5t40 25.5q30 20 60 40.5t55 49.5q7 9 13 19t9 27q-9 -8 -14 -14t-10 -10q-12 -9 -24 -17.5t-24 -16.5q-8 -4 -16 -5.5t-15 -6.5q-16 -9 -30.5 -19t-29.5 -19zM425 631q-18 5 -45.5 7.5t-58 2t-61 -3t-55 -7t-40.5 -10.5t-18 -13l4.5 -4.5t4.5 -5.5q5 3 9 6.5
t7 2.5q12 -5 23.5 -1.5t23.5 6.5q16 4 31.5 8t29.5 6q23 5 46 7t46 -6q-5 -10 -7 -12t-11 -1q-38 3 -75 -3.5t-73 -16.5q-8 -45 -13 -91t-6 -97q65 55 125.5 107.5t112.5 118.5zM107 41q16 7 19 10.5t3 17.5t-4.5 28t-17.5 30v-86zM276 353q1 -2 2 -3t2 -3l44 -8t48 -9
q-17 17 -35.5 22.5t-37.5 9.5q-5 2 -10.5 -2t-12.5 -7zM74 548q-5 -4 -11.5 -8.5t-15.5 -10.5q10 11 13.5 13.5t14.5 4.5z" />
    <glyph glyph-name="C" unicode="C" horiz-adv-x="503" 
d="M474 703q12 11 20.5 6t17.5 -12q-46 -64 -71 -135t-47 -145q-14 2 -26.5 3t-26.5 2q-4 -8 -7.5 -17.5t-7.5 -19.5q-14 -23 -37 -10q-10 5 -10.5 12t3.5 17q15 37 19 75t5 78q1 23 -15 35.5t-39 6.5q-14 -4 -25 -11t-22 -15q-24 -19 -39 -44t-26 -54q-11 -28 -22 -62
q-5 -15 -7.5 -29.5t2.5 -31.5q4 -14 2.5 -29.5t-1.5 -30.5q-1 -36 1 -71t10 -70q2 -8 5 -17t7 -17q6 -15 13 -19.5t23 0.5q12 4 24 8.5t23 11.5q29 19 50.5 43t35.5 56q4 9 10 14t11 12q7 8 12 17t11 19q5 -2 10.5 -3t8.5 -4q17 -20 39.5 -27.5t42.5 -20.5q3 -3 7 -5t10 -6
q-4 -8 -7 -16t-8 -14q-29 -38 -61 -74t-69 -68q-29 -23 -65 -42q-29 -15 -62 -7q-7 2 -19 4q-66 6 -108.5 47.5t-57.5 104.5q-14 66 -12.5 131t16.5 131q11 48 27.5 93.5t43.5 87.5q24 37 55 61.5t78 29.5q19 2 37.5 8.5t38.5 2.5q11 -2 21 -4t20 -6q14 -4 29 -9l30 -10
q8 12 15 22l14 20q5 7 11 11t16 5q23 2 24 -20q-8 2 -12.5 -1.5t-8.5 -8.5q-8 -14 -17 -26.5t-17 -26.5q-2 -4 -3 -9t-4 -13q17 24 32 45t29 41zM118 83q39 -82 81 -28q-20 7 -39 13.5t-42 14.5zM306 671q15 -17 28.5 -31t29.5 -30q-5 25 -18.5 39t-39.5 22z" />
    <glyph glyph-name="D" unicode="D" horiz-adv-x="507" 
d="M471 569q-1 -36 -1.5 -72.5t-0.5 -71.5q-1 -81 -32.5 -147t-86.5 -122q-39 -42 -86 -80q-22 -17 -44.5 -32.5t-47.5 -26.5q-29 -14 -61 -23t-63 -20q-11 -5 -23 6q-15 14 -34 31q3 2 6 3.5t3 3.5q-1 10 2.5 16.5t9.5 11t12.5 8t12.5 7.5q3 2 5.5 4.5t4.5 3.5
q-2 8 -5.5 15.5t-2.5 15.5q3 48 7 94.5t9 94.5q7 68 14 135.5t14 135.5q0 5 -2 11q-20 0 -37 -11.5t-37 -39.5q-23 11 -26 22t14 28q8 8 17 15.5t17 15.5q3 3 6 7.5t8 11.5q-18 -1 -29.5 -8t-19.5 -15q-9 -8 -15 -19t-13 -22q-10 13 -10 20t10 19q14 18 31.5 31t37.5 22
q17 8 31 17t25 23q4 5 12.5 7.5t16.5 4.5q33 8 67 12t69 7q90 7 156 -50q17 -16 30.5 -35.5t27.5 -38.5q-6 -4 -7.5 -7.5t0 -6.5t4 -6t4.5 -6zM176 168q8 7 13 9.5t9 5.5q8 8 18.5 11t21 5.5t19 7t12.5 16.5q7 15 19 27t22 26q21 29 33.5 62.5t18.5 69t8 72.5t3 73
q0 7 -1 14l-2 14h-7q1 -8 1 -16.5t1 -16.5q2 -8 4 -16.5t-9 -15.5q-5 31 -21 53.5t-38 34.5t-48.5 14t-53.5 -7q6 -110 -4 -219t-19 -224zM397 644q8 -13 15 -25t15 -26q-2 17 -7.5 30.5t-22.5 20.5zM354 566v17t-3 9t-9 5t-17 4q8 -10 14.5 -18.5t14.5 -16.5zM481 540h-1
v16h1v-16z" />
    <glyph glyph-name="E" unicode="E" horiz-adv-x="512" 
d="M477 79q7 -12 11 -24t2 -28q-11 7 -21 9.5t-19.5 2.5t-19.5 -1t-19 -2q-57 -5 -113.5 -12.5t-113.5 -21.5q-15 -5 -21 -11.5t-6 -21.5h-72q-5 8 -11.5 18.5t-14.5 21.5q9 5 17.5 9.5t16.5 9.5q-1 2 -2 3t-1 2q-11 -2 -20 -5.5t-16 -14.5q-14 -20 -29 -2q-8 10 -8 24t9 24
q6 7 13 12.5t15 13.5q-6 2 -10 3t-7 1q-18 -1 -27 8.5t-11 26.5q-2 27 -4 53.5t0 52.5q5 88 19.5 173.5t44.5 169.5q3 8 4 16.5t-7 17.5q-8 11 -5.5 21.5t10.5 21.5q14 14 30 25t37 17q51 14 103 24t107 5q8 -1 15.5 -1.5t15.5 -2.5q20 -5 40 -11t41 -6q9 0 18 -3.5
t10 -17.5h-58q46 -8 60 -24t6 -49q-18 2 -35.5 -2.5t-33.5 -21.5q-2 13 -8 16.5t-15 2.5q-19 -2 -37.5 -3t-37.5 -3q-38 -4 -75.5 -7t-79.5 -7q-2 -33 -5 -66t-7 -69h22q27 1 53.5 2.5t52.5 1.5q18 0 32 -9t22 -24q5 -6 5 -15t2 -19l-28 14q0 -5 2 -10t3.5 -9.5t1 -8.5
t-4.5 -8q8 -6 14 -12.5t1 -18.5q-47 2 -93 -6.5t-94 -16.5q-3 -48 -4.5 -95t-0.5 -95q26 4 49 7.5t47 5.5q34 2 68 3.5t69 3.5q14 0 27 -3.5t21 -16.5q6 -8 9 -17.5t8 -20.5h41zM214 35q11 -2 20.5 -0.5t19.5 3.5q5 2 12 2.5t8 9.5q8 -1 16.5 -1.5t16.5 -2.5v4h-33zM80 114
q3 6 6 31t4.5 54t2 55.5t-1.5 36.5q-2 -3 -4.5 -5t-2.5 -4l-6 -76t-5 -75q0 -4 2.5 -8t4.5 -9zM144 43q57 4 113 12t113 19q-57 -4 -113 -10t-113 -21zM104 441q4 -1 8 -4q2 13 3.5 25t3.5 24q-2 0 -3 0.5t-3 0.5q-2 -12 -4 -23.5t-5 -22.5zM293 362h-34v-3h34v3zM70 621
q2 -1 2.5 -2.5t1.5 -2.5l12 9q-1 2 -1.5 2.5t-1.5 2.5q-3 -2 -6 -4.5t-7 -4.5z" />
    <glyph glyph-name="F" unicode="F" horiz-adv-x="500" 
d="M143 159q-1 -21 -1.5 -42.5t-0.5 -42.5v-101v-37q-33 11 -59 22q-5 2 -7 8t-4 11q-4 21 -6.5 42.5t-7.5 42.5v-98q-24 8 -48 17q-10 3 -13.5 10.5t-3.5 15.5q-1 25 -1 49.5t2 48.5q5 53 10 105l10 104q4 22 -10 41q-9 12 -11 24.5t0 26.5q2 11 1 22t-1 22q11 5 19.5 10.5
t18.5 10.5q7 48 15 99q-8 1 -12.5 1t-10.5 1q-2 10 -3.5 18.5t-3.5 18.5q-6 4 -13 8.5t-11 11.5q-14 15 -11 29.5t21 21.5q25 11 49.5 19.5t50.5 14.5q45 11 90.5 15t91.5 6q42 1 82.5 4.5t81.5 5.5q17 2 34.5 1.5t34.5 -2.5q28 -2 39 -15.5t13 -46.5q-20 15 -41.5 16
t-43.5 1q-49 2 -96.5 -2.5t-95.5 -12.5l-52 -8t-52 -12q23 2 47.5 2.5t47.5 7.5q48 12 94.5 12.5t93.5 0.5q15 0 29 -2l28 -4q24 -3 29 -28q3 -14 6.5 -27t-0.5 -26q-17 2 -32 3.5t-31 2.5q-78 3 -155 -0.5t-155 -11.5q-3 0 -5.5 -1.5t-4.5 -3.5h-24q-5 -48 -9 -90
q13 -4 15.5 0.5t4.5 11.5q3 20 3 40t10 39q-2 -23 -2.5 -45t-1.5 -47q24 2 46.5 3.5t44.5 2.5q31 2 62.5 2.5t63.5 1.5q29 0 43 -24q3 -6 6 -17.5t5 -24t3 -24.5t0 -19q-13 10 -26.5 10t-27.5 -2q-98 -12 -202 -27q-8 -1 -14.5 -3t-14.5 -4q1 -3 1 -7q5 -1 10 -2.5t14 -4.5
q-14 1 -19.5 -4t-6.5 -16q-2 -27 -3 -54t-4 -53q-2 -18 -6 -36t-7 -37q-2 4 -3.5 8.5t-1.5 9.5q4 38 7.5 75.5t7.5 75.5q0 5 -0.5 10.5t-0.5 10.5q-21 0 -21 -17q1 -42 -5 -83.5t1 -84.5q0 -2 -2 -8q-2 -12 -1.5 -34.5t5.5 -39.5q2 11 3 22t3 22q2 9 4 17zM110 280
q11 12 8.5 26.5t-4.5 28.5q-1 -14 -1.5 -28t-1.5 -28q-2 -12 -2.5 -23.5t-1.5 -23.5h6q-1 12 -1 24t-2 24zM146 586q-9 -23 -11 -45t-2 -45q16 46 13 90zM105 165v23h-1v-23h1zM136 367q0 -2 0.5 -3.5t0.5 -3.5q5 -2 10 -2t9 11q-6 -1 -10.5 -1t-9.5 -1z" />
    <glyph glyph-name="G" unicode="G" horiz-adv-x="641" 
d="M137 224q5 -48 16.5 -91t37.5 -81q19 6 46.5 28t55.5 52.5t52.5 65t39.5 66.5h-88q12 5 25 6.5t25.5 2t25 2.5t24.5 9q-37 5 -73.5 5t-73.5 -7q-2 11 -4.5 20.5t-4.5 18.5q-6 34 29 42q11 2 22.5 2t22.5 1q14 1 26 2t26 0q33 -2 66.5 -0.5t66.5 -9.5q20 -6 40 -8t40 -6
q21 -5 28.5 -22t-3.5 -36q-4 -7 -8.5 -7.5t-11.5 0.5q-17 2 -34 2.5t-34 1.5q-6 0 -9 -6q22 -7 44 -8t47 -6q-8 -8 -15 -4.5t-14 2.5q-8 -1 -14.5 0t-14.5 1h-35q-9 -100 -48 -193q-19 -45 -36 -90t-51 -82h-52q-8 10 -4 17t9 12q23 29 37.5 62.5t29.5 67.5q1 2 0 3t-3 5
q-8 -8 -16 -15.5t-17 -15.5q-20 -17 -42 -29.5t-48 -7.5q-26 4 -51 4t-50 4q-40 4 -69.5 25t-51.5 55q-23 40 -32.5 83t-10.5 89q0 89 22 171t70 157q26 42 63.5 72t88.5 38q21 4 44 3.5t44 -4.5q25 -6 49 -16t47 -21q32 -17 48 -45t22 -63q5 -26 -0.5 -51t-16.5 -49
q-3 -8 -8 -12.5t-16 -2.5q-17 4 -30 1t-21 -22q-7 4 -7 7.5t1.5 7.5l3 8t-2.5 8q-10 -8 -22 -11t-26 5q15 29 18.5 58.5t1.5 61.5q-1 31 -16 60q-10 18 -28 10l-10 -6t-10 -5q-3 -2 -6.5 -3t-3.5 0q-10 10 -16 5.5t-13 -8.5q-26 -17 -46 -41t-34 -52q-34 -70 -53 -143
t-18 -151q1 -38 9 -71t26 -59q-3 11 -6 21t-5 21q-5 21 -6 42q-1 11 -0.5 23t0.5 24zM420 141q-35 -41 -70.5 -76t-84.5 -58q22 1 47.5 14t48 32t39 42.5t20.5 45.5z" />
    <glyph glyph-name="H" unicode="H" horiz-adv-x="629" 
d="M128 -68q3 -14 1 -16.5t-19 -6.5q-2 20 -5 38.5t-6 40.5q-8 -1 -15 -1t-15 -2q-16 -2 -21 2t-5 21q0 26 1 52l2 52l3 57q0 22 -18 39q-8 8 -14.5 18.5t-11.5 21.5q-2 3 1 8.5t6 8.5q4 4 9 6.5t11 6.5v23q-8 5 -22 -2t-19 -18q-14 8 -14.5 12.5t10.5 11.5q11 6 22 10.5
t24 10.5q2 36 3 72.5t3 72.5q3 49 7 97t15 95q2 8 4.5 15t4.5 15q8 17 24 19t29 -12q-1 0 -1 -4q-11 -17 -15 -33t-3 -33q4 11 8.5 23t8.5 25q1 4 1 8.5v9.5q13 -5 26.5 -10t28.5 -10q1 -12 2.5 -24.5t0.5 -25.5q-3 -63 -6.5 -125t-6.5 -125v-18q9 -1 17.5 -3t16.5 -1
q53 5 105.5 11t105.5 11q15 2 19 6t6 19q8 70 14.5 139.5t14.5 140.5q1 9 5 22q26 -4 34 -12.5t7 -31.5q-1 -36 -1.5 -72.5t-0.5 -73.5q0 -5 0.5 -9.5t3.5 -8.5q5 37 10.5 75t10.5 76q1 11 -3 21.5t4 21.5q5 7 8 9q18 -6 21.5 -10t2.5 -21q0 -29 -2 -59t-4 -59
q-2 -34 -4.5 -68.5t-4.5 -69.5q-1 -7 -2 -14.5t2 -13.5q5 -12 3 -22t-8 -19q12 -11 19 -18t10 -13.5t2.5 -13.5t-2.5 -18q-7 2 -14 4.5t-17 5.5q-5 -82 -8.5 -161.5t-2.5 -160.5q-11 0 -21 -0.5t-23 -1.5v-68h-51q-18 -1 -22 2.5t-4 20.5q0 31 -1 61.5t1 62.5q2 48 5 97
l6 98v29q-66 -8 -130 -17t-131 -17v-162t11 -161q-17 -2 -26.5 5t-20.5 16v53v-53zM167 307q26 4 48.5 7.5t46.5 5.5q24 4 48 6t49 5q14 1 28.5 2t28.5 2q8 1 12 4.5t0 14.5q-32 -2 -65 -4.5t-66 -2.5q-32 0 -65 -2t-65 -10v-28zM171 671q-2 0 -6 2q-3 -9 -6.5 -17t-5.5 -16
q-4 -32 -6 -62t-5 -62t-6.5 -64t-6.5 -64q-1 -9 -0.5 -18t0.5 -19q9 2 9 3q8 73 16.5 146t16.5 147q1 6 0.5 12t-0.5 12zM122 75q2 1 7 1q0 19 0.5 37.5t-0.5 37.5q0 18 2 36.5t-5 36.5q-10 -37 -8 -74t4 -75zM134 327q-8 -6 -9.5 -12t9.5 -13v25zM123 36v13h-1v-13h1z" />
    <glyph glyph-name="I" unicode="I" horiz-adv-x="176" 
d="M154 610q11 -7 10.5 -13.5t-1.5 -14.5q-9 -54 -18.5 -107.5t-15.5 -107.5q-10 -81 -18.5 -162t-6.5 -162q0 -19 2 -37.5t4 -41.5q-5 6 -6.5 9.5t-3.5 5.5q-5 3 -11 4.5t-9 6.5q-4 5 -5 11.5t-3 12.5q-4 6 -9 7q-23 9 -37 24.5t-16 38.5q-4 32 -4.5 63.5t0.5 62.5
q5 70 10 138.5t13 137.5q4 35 10.5 71t12.5 71q2 16 11 26.5t24 18.5q4 -8 7.5 -16t6.5 -16q5 7 9.5 14.5t11.5 9.5q6 2 10 0t8 -6t7 -9t8 -9q-11 -3 -16 -11t-8 -18q-4 -20 -9 -40.5t-6 -42.5l6 8t8 11q-8 -44 -16.5 -85t-7.5 -83q12 57 23.5 114.5t24.5 115.5z" />
    <glyph glyph-name="J" unicode="J" horiz-adv-x="469" 
d="M166 290q-20 8 -29.5 5t-18.5 -22q-18 -40 -26.5 -80.5t6.5 -85.5q9 -25 28 -30.5t39 11.5q21 18 37.5 39.5t30.5 46.5q33 57 50.5 117t24.5 126q3 31 3 62t2 61v32q-40 -6 -76 -16.5t-69 -24.5q-8 11 -14.5 20.5t-14.5 19.5q-11 13 -9.5 29.5t15.5 24.5q17 10 34 18
t35 13q36 11 74 16t76 7h14q28 -1 48 -13.5t26 -41.5q2 -8 5 -15t5 -14.5t1 -15.5t-7 -17q-8 20 -22.5 23t-34.5 -3q2 -7 2.5 -14t2.5 -14q14 -94 13.5 -186t-28.5 -184q-13 -39 -31 -75t-45 -66q-78 -84 -183 -43q-23 8 -41 11q-38 9 -65 36t-33 65q-7 49 0.5 95t26.5 91
l3.5 7t3.5 6q8 13 18 23.5t22.5 14t28 0t35.5 -17.5q5 -3 9.5 -6t9.5 -6q6 -6 11.5 -12t10.5 -11q-1 -3 -4 -6zM186 40q2 -2 2 -2.5t2 -2.5q3 1 6.5 1t5.5 2q14 11 28.5 20.5t25.5 22.5q35 38 57 82.5t38 93.5q23 78 28 156.5t-2 159.5q0 2 -1 3.5l-3 4.5q-3 -3 -6 -4v-10.5
t1 -10.5q7 -74 1 -145.5t-27 -142.5q-21 -66 -54.5 -123t-91.5 -100q-2 -2 -4.5 -2.5t-5.5 -2.5zM62 257q9 15 18 29.5t18 29.5q-28 -10 -36 -59z" />
    <glyph glyph-name="K" unicode="K" horiz-adv-x="670" 
d="M638 195q-3 -10 -10 -12.5t-15 -2.5q-7 0 -13.5 2t-12.5 3q-11 -23 -21.5 -44.5t-21.5 -44.5q-85 28 -170.5 49t-175.5 35q1 -71 1.5 -139.5t18.5 -136.5q-3 -2 -7 -4q-5 8 -9.5 15t-10.5 13q-5 6 -12 11t-15 10q-3 -4 -4.5 -7t-3.5 -5q-1 0 -2.5 -0.5t-2.5 0.5
q-9 16 -21.5 29.5t-26.5 25.5q-6 6 -9 15.5t-5 18.5q-3 17 -4 33t-3 33q-4 26 -8 51.5t-9 51.5q-9 2 -16 -0.5t-14 -6t-13.5 -8t-13.5 -5.5q-7 4 -8 9.5t0.5 10.5t3 10.5t-1.5 9.5q-12 2 -23 2t-21 3q-5 2 -9 9t-9 15q18 14 34 26t33 24q10 8 20.5 15t21.5 14q15 10 15 29
v57.5t3 57.5q3 50 7.5 98t9.5 97l4 18l4 18q30 -12 19 -29q-14 -24 -15.5 -49.5t-4.5 -51.5q-5 -45 -7.5 -89.5t-5.5 -90.5q-2 -17 4 -31q0 5 0.5 11t0.5 13q1 63 8 125.5t17 125.5q2 8 2 17.5t11 11.5q7 1 10.5 -1.5t5 -6.5t3 -9t3.5 -9q2 -2 1 -4t0 -4q-1 -7 -1.5 -13
t-1.5 -13h5q0 13 -3 27q2 5 5 10.5t5 11.5q5 14 8.5 28t8.5 31q7 -5 13 -8t8 -8q10 -17 16.5 -35.5t4.5 -40.5q-3 -38 -5 -76t-3 -76q-1 -7 -1 -14t12 -5q7 -2 11.5 -0.5t8 5t6.5 7.5t7 6t7 3t7 3q6 5 12 10.5t12 10.5l-1 -1q6 5 11.5 9.5t12.5 9.5l-1 -1q10 5 19 11.5
t19 11.5q8 5 15 8.5t15 5.5q-5 -6 -10.5 -12t-10.5 -14q-22 -3 -29 -24q-5 -2 -10.5 -4.5t-10.5 -5.5q2 -2 2.5 -3.5t2.5 -1.5l16 16q7 6 13.5 12t14.5 11q9 6 17.5 11t16.5 10q32 24 62.5 47t62.5 47q3 3 11 7q8 -6 9 -8q17 -20 18 -31t-28 -28q-18 -11 -34 -23.5
t-33 -26.5q-54 -45 -110 -86t-116 -78q-22 -14 -29.5 -30.5t0.5 -42.5q8 -2 16 -3t16 -1q94 -8 185 -19.5t183 -32.5q5 -2 11 -3t11 -4q20 -8 15 -29zM445 201q-21 13 -34.5 15.5t-29.5 -1.5q17 -4 32.5 -7.5t31.5 -6.5zM248 464q-4 -2 -7 -6t-6.5 -7.5t-8 -5t-11.5 0.5
q7 5 14 10.5t15 11.5l4 -4l-4 4q7 5 13 10t12 11q-2 -5 -3.5 -9.5t-3.5 -9.5q-4 -2 -7 -3t-7 -3zM432 610q3 5 6 9l6 8q1 0 1.5 -1t1.5 -1l-7.5 -7.5t-8.5 -7.5h1zM431 610l-8 -6t-9 -6l-2 4l10 4l10 4h-1zM328 535q4 3 7.5 6t6.5 6q1 -1 1.5 -2t1.5 -2q-8 -6 -14 -10
q-1 0 -3 2zM297 508q4 5 7.5 8.5t7.5 8.5q3 -3 3 -2q-2 -4 -3.5 -7.5t-3.5 -7.5l1 1h-13zM286 491q-5 -1 -15 -1q7 5 13 9t13 9l-1 1q-2 -5 -5.5 -9.5t-5.5 -9.5z" />
    <glyph glyph-name="L" unicode="L" horiz-adv-x="536" 
d="M260 726q-15 -47 -23 -93t-16 -94q-14 -100 -24 -201t-13 -203q-1 -10 -0.5 -18.5t0.5 -19.5q36 2 70.5 5.5t68.5 4.5q30 1 60.5 0t60.5 -3l10 -2t9 -4q9 -5 18 -17t16 -27t11 -29.5t2 -24.5q-10 4 -19.5 9t-19.5 5q-32 1 -62.5 0.5t-61.5 -3.5q-55 -5 -109 -16t-107 -29
q-20 -6 -40.5 -12t-34.5 -26q-3 -4 -9 -3t-10 8q-2 4 -4 7.5t-4 7.5q-5 11 -10.5 21t-19.5 15t-15.5 17t10.5 23q10 9 12 19t1 21q-3 88 -0.5 173.5t7.5 173.5q5 63 13 126.5t27 125.5q8 28 20 54t25 52q7 13 15.5 15.5t22.5 -3.5q8 -3 15.5 -6.5t16.5 -7.5
q-5 -20 -10.5 -40t-10.5 -40q-5 -18 -8 -36.5t-8 -35.5q-20 -73 -23 -147.5t-6 -149.5q-1 -26 -1.5 -50.5t1.5 -50.5q3 49 6.5 97.5t5.5 96.5q3 81 17 160t41 156q0 2 1 4l2 4q11 29 28 30.5t36 -23.5q-19 -39 -27.5 -81t-16.5 -84q-17 -81 -26.5 -162t-17.5 -163
q-3 -35 -4.5 -69t-3.5 -69q-2 -13 6 -25q4 10 4 17q6 112 19 222.5t35 221.5q7 35 16.5 68.5t18.5 68.5q3 10 8 19.5t9 19.5zM411 53q-35 8 -69.5 3.5t-69.5 -6.5q-18 -1 -35.5 -4t-35.5 -6q-6 -1 -10.5 -3t-3.5 -12q57 8 112.5 14.5t111.5 13.5zM156 17q-2 3 -3.5 6t-3.5 8
q-4 -6 -6 -10t-7 -12zM63 93q-2 0 -4 1v-25h4v24zM451 51h-17v-3h17v3z" />
    <glyph glyph-name="M" unicode="M" horiz-adv-x="687" 
d="M496 463q5 11 13.5 20t9.5 23q-11 -9 -29.5 -32t-40 -54t-44 -66.5t-42.5 -70t-35.5 -64.5t-21.5 -49q6 7 10 10t6 7q9 16 18 31.5t19 30.5q2 2 5 4t5 5q-17 -34 -32.5 -67.5t-32.5 -71.5q-2 6 -2.5 10t-1.5 8q-7 2 -14 0.5t-14 -2.5t-14.5 0.5t-14.5 9.5v-15
q-5 2 -20 11l22 -54q-24 -11 -39 -7.5t-26 25.5q-12 24 -21.5 49.5t-19.5 51.5q-5 12 -9.5 24t-10.5 23q-3 -73 -9 -146t5 -148l-23 3l-20 4q-11 18 -11 37.5t1 38.5q3 62 8 123t10 124q1 20 3.5 39t2.5 39q0 13 -3.5 26.5t-6.5 32.5q-3 -12 -6.5 -39.5t-6.5 -63.5t-5 -78
t-3.5 -84t-2 -79.5t0.5 -65.5l-24 4q-11 1 -17.5 1.5t-10.5 3.5t-5 11t-1 23q0 37 1.5 73.5t3.5 73.5q3 75 5.5 149.5t6.5 149.5q2 26 4.5 51.5t2.5 51.5q-4 -14 -7.5 -29t-8.5 -29q-3 0 -4 1q2 14 5 27.5t5 27.5q4 20 11 38.5t3 40.5q-2 8 3 11.5t13 4.5t18 -1t20 -7.5
t18 -12.5t12 -14q40 -78 70 -160.5t60 -164.5l18 -48q9 15 16.5 27t13.5 24q45 83 98 158t113 148q23 27 45 53.5t40 57.5q6 12 12 23t14 25q11 -8 23 -13.5t11 -20.5q0 -11 -5.5 -22.5t-10.5 -22.5q11 -3 22.5 -6t23.5 -5l-14 -50q3 0 3 -2l19 24q3 0 4 -1l-2 -14l-52 -292
q-5 -28 -8.5 -55t-6.5 -55q-1 -10 1.5 -19.5t0.5 -20.5l-16 -184v-8q-11 -10 -14.5 -20.5t-4 -22t1 -23t0.5 -23.5q-2 -11 -1.5 -23.5t0.5 -25.5h-56q-2 78 -2.5 155t-1.5 154q-11 -79 -17.5 -157.5t2.5 -162.5q-11 5 -18 8.5t-15 5.5q-15 67 -10 138q5 88 14 175t23 175
q2 12 3 24.5t3 26.5l-24 -14q-5 10 2 16.5t11 14.5zM581 395q11 50 22.5 100t24.5 101q-8 -9 -16 -30t-15 -49.5t-11 -60t-5 -61.5zM655 687q-44 -32 -21 -74zM178 335q-4 0 -6 -1l20 -61q1 0 5 2q-5 15 -9.5 30.5t-9.5 29.5zM385 291q5 6 9 12t9 14q-2 -9 -4.5 -17
t-13.5 -9zM370 259q4 7 7 15t7 16q4 -11 -2.5 -17.5t-11.5 -13.5zM258 102q-17 6 -15 26zM469 427q4 1 7 1t7 2q2 -9 -2.5 -9.5t-11.5 6.5zM602 164h2v21h-2v-21zM596 117h2v19h-2v-19zM609 219h1v12h-1v-12zM243 129v1h1zM244 130q0 -1 -1 -2v1zM483 430v2l1 -1zM385 291
q0 -1 -1 -1v1h1zM484 431q-1 0 -1 1z" />
    <glyph glyph-name="N" unicode="N" horiz-adv-x="460" 
d="M388 488q14 61 26.5 120.5t26.5 120.5q23 -1 31.5 -9.5t3.5 -31.5q-9 -45 -19 -88.5t-20 -88.5q-12 -63 -24.5 -125.5t-21.5 -126.5q-6 -36 -7 -74t-3 -76q-2 -26 -5 -53.5t-5 -54.5q-1 -5 -3 -9.5t-5 -12.5q-8 8 -14.5 13.5t-12.5 11.5q-7 -5 -13.5 -10.5t-14.5 -8.5
q-17 -5 -30 2t-16 24q-5 20 -13 36t-19 33q-28 40 -47.5 84t-36.5 90q-15 38 -28.5 77t-28.5 81q-4 -20 -6 -37t6 -34q4 -7 4.5 -14.5t0.5 -15.5q4 -166 6 -335q0 -1 -0.5 -2t-0.5 -3q-12 2 -14.5 9.5t-2.5 16.5q2 48 2.5 95t2.5 95q1 30 1.5 60.5t0.5 60.5q0 6 -5 13
q-8 -84 -7.5 -167.5t-0.5 -170.5q-13 -2 -24.5 -2t-22.5 -2q-11 12 -11 24.5v26.5q-2 35 -2 70.5t1 70.5q0 51 1 102t1 102v22t-2 22q-6 -26 -8.5 -52.5t-3 -53t-1.5 -52.5t-5 -52q-1 5 -2 9t-1 8q0 83 -0.5 164t0.5 163q1 20 1.5 39.5t-6.5 39.5q-2 8 -1.5 16.5t11.5 13.5
q2 1 3 2.5t3 3.5q7 10 11 15t8.5 6t11 -1.5t18.5 -7.5q3 -2 6.5 -2.5t6.5 -2.5q14 -6 21.5 -15.5t4.5 -26.5q-2 -10 0 -20.5t6 -18.5q34 -74 68 -146.5t68 -145.5q2 -2 4 -4.5l6 -7.5q2 32 3.5 60.5t5.5 57.5q4 45 8 88.5t10 88.5q5 34 11.5 66.5t14.5 65.5q4 21 10 24.5
t26 -4.5q9 -4 17.5 -9.5t18.5 -10.5q1 4 3.5 9.5t5.5 11.5q5 6 16.5 5.5t16.5 -6.5q8 -8 8.5 -17.5t-1.5 -20.5q-12 -46 -23.5 -90.5t-14.5 -92.5q-1 -7 -1 -13.5v-13.5q1 0 2.5 -0.5t3.5 -0.5zM339 223q4 33 10.5 66.5t12.5 66.5t10 66.5t3 68.5q-20 -66 -29 -132.5
t-7 -135.5z" />
    <glyph glyph-name="O" unicode="O" horiz-adv-x="468" 
d="M179 25q2 -26 11 -48.5t23 -42.5q-11 1 -20.5 1.5t-18.5 -0.5q-39 -5 -57 30q-7 15 -13 31t-11 33q-5 13 -9.5 24t-12.5 22q-20 26 -29 56.5t-12 61.5q-2 31 -1.5 61t-0.5 60q-2 34 -3.5 67t-5.5 67q-3 -40 -6.5 -80t-7.5 -80h-4q2 31 2.5 61.5t4.5 60.5q5 45 12 89
t16 88q8 35 29.5 62t48.5 50q6 6 16 8q34 11 68.5 13.5t69.5 -8.5q69 -21 102 -70.5t44 -115.5q14 -88 5 -172t-44 -167q-13 -30 -30 -57.5t-43 -50.5q-16 -15 -35 -27t-39 -27q15 4 30 7.5t34 7.5q-15 -13 -28 -19t-28 -5q-14 1 -28 4t-29 5zM222 121q58 121 92 250
q15 54 10.5 108t-24.5 107q-6 16 -14.5 24t-19 9.5t-21.5 -2.5t-21 -12q-28 -22 -39 -56q-11 -35 -21 -70t-19 -71q-5 -20 -8.5 -41t-1.5 -41q2 -38 6 -76t9 -76q4 -28 9 -56t10 -57q22 6 40 17t22 22q-5 5 -13 9zM207 649q27 1 52 -3.5t50 -19.5q-17 42 -43.5 50t-58.5 -27
zM131 277q-3 -16 -3 -41.5t3 -52t8 -49t11 -31.5q-5 45 -9.5 88t-9.5 86zM165 25q-2 -1 -4 -1.5t-4 -1.5q3 -9 6 -17.5t6 -17.5q1 1 5 1q-2 9 -4.5 18t-4.5 19z" />
    <glyph glyph-name="P" unicode="P" horiz-adv-x="510" 
d="M100 -199q-9 18 -11.5 35.5t-3 34.5t0 34t-2.5 34l-18 3q-5 1 -10.5 2.5t-5.5 3.5q-2 9 -7 16.5t-11 14.5t-10.5 15t-4.5 19q2 47 3 93t3 93q1 14 0 26t-24 16q9 10 15.5 16t13.5 13q4 75 8 150.5t9 152.5q-8 2 -14 4.5t-11 4.5q-3 16 7.5 21.5t17.5 14.5q0 9 1 17.5
t1 18.5q-4 1 -9.5 1t-10.5 1.5t-9 5t-5 11.5q14 11 31 16l34 10q8 3 15 6t12 12q3 7 10.5 12t15.5 6q20 3 40.5 5.5t40.5 -0.5q41 -5 81.5 -12t81.5 -17q34 -8 64 -26t50 -47q15 -22 23 -45t0 -50q-3 -9 0 -20q11 -35 1.5 -66.5t-30.5 -60.5q-23 -30 -52 -55t-64 -42
q-39 -18 -78.5 -33t-78.5 -31q-5 -2 -8.5 -3t-8.5 -2q-20 -3 -20 -27q-4 -81 -7.5 -161t-6.5 -161q-1 -20 -0.5 -41.5t0.5 -43.5q-9 1 -15.5 4.5t-7.5 15.5q0 11 -1 21.5t-1 21.5q0 14 2.5 29.5t2.5 30.5l2 20t-10 19q-3 3 -3 10v12v40.5t1 40.5q3 -12 3.5 -24t1 -25
t2.5 -26t8 -26l28 262q-11 -2 -19 -3.5t-19 -3.5q-3 -26 -6 -51t-5 -51q-3 -39 -4.5 -78t-6.5 -77q-5 -35 -6 -70t1 -71q0 -3 -6 -16zM216 507q-4 -48 -8.5 -95t-6.5 -98q42 14 80 30.5t72 45.5q-9 4 -16 2t-13.5 -5t-12.5 -6.5t-13 -2.5q8 5 14.5 9.5t12.5 9.5
q18 17 36.5 34t34.5 37q11 14 17.5 30.5t10.5 33.5q5 17 1.5 34t-18.5 26q-14 10 -30 17t-33 9q-37 7 -73 1.5t-71 -10.5q-9 -78 -17 -153.5t-16 -153.5q6 4 10.5 5.5t5.5 4.5q3 5 3.5 10.5t1.5 11.5q6 40 10.5 79.5t10.5 79.5q1 4 3 7t4 7zM109 660q9 -5 16 -10t14 -5
q22 1 43.5 2.5t42.5 6.5q9 2 15.5 1.5t14.5 -3.5l36 12q-42 8 -84.5 12.5t-85.5 -0.5q7 -2 13.5 -2t13.5 -2q3 -1 6.5 -3t6.5 -4q-25 6 -52 -5zM296 652q0 2 -0.5 3t-0.5 3l-39 -6h40zM190 665h-20q5 0 10 0.5t10 1.5v-2z" />
    <glyph glyph-name="Q" unicode="Q" horiz-adv-x="494" 
d="M196 649q12 38 32 69.5t46 58.5q-7 -4 -14 -7.5t-15 -8.5q35 47 87 38q40 -7 68 -24.5t46.5 -42t27.5 -54t11 -61.5q2 -42 -3.5 -83t-13.5 -82q-13 -66 -31 -130t-45 -126q-14 -30 -29.5 -59.5t-32.5 -62.5q23 1 43 -3.5t31 -26.5q3 -6 3 -9.5t-3 -14.5q-8 1 -17 2.5
t-17 -0.5q-26 -2 -51 -6t-50 -11h31h29t29 -1q18 -1 25 -8.5t10 -28.5q-63 2 -124 -10.5t-123 -26.5q-3 5 -6 10.5t-7 10.5q-3 5 -6 7.5t-9 0.5q-14 -2 -19.5 5.5t-9.5 17.5q-6 19 10 30l22 12t22 14q-8 3 -13 6t-11 6q-62 28 -88 88q-35 76 -34 158q0 70 15 135.5t51 126.5
q12 20 26.5 37.5t30.5 33.5q14 16 33 22.5t43 -2.5zM238 564q-5 -19 -8.5 -37.5t-8.5 -36.5l4.5 -1.5t4.5 -0.5q2 19 3.5 38t3.5 38q9 5 9 13t2 16q-3 0 -6 1q-2 -8 -2 -15t-2 -15zM307 708q8 11 15 21.5t15 20.5q-15 -5 -30 -20t-27 -34t-19.5 -39.5t-5.5 -36.5q8 19 13 28
q9 16 15 34t25 27q-23 -41 -37 -93t-20.5 -108t-7 -112.5t3.5 -105t11.5 -86t16.5 -55.5q4 7 8.5 13.5t8.5 14.5q11 23 22 46.5t20 46.5q12 31 21.5 62t19.5 62q2 7 3 14.5t-12 13.5q-11 -33 -21 -66t-21 -65q0 20 0.5 39t2.5 38q4 31 9.5 61.5t8.5 61.5q6 55 10 109t-2 109
q-2 8 -3.5 16.5t-3.5 19.5q-12 -11 -21 -20t-18 -17zM264 134q-7 0 -12 2.5t-9 5.5t-8.5 5.5t-10.5 1.5q-21 -1 -26.5 4t-10.5 25q-17 74 -24 148t2 150q2 14 2 28t1 28q-12 -13 -15 -31q-15 -65 -18.5 -129.5t7.5 -130.5q5 -30 12 -59t21 -57q5 -11 12 -21t14 -21
q21 8 35 20t28 31zM100 277q1 125 33 245q-28 -58 -33 -119.5t0 -125.5zM74 167q2 -24 11 -43t28 -32q-21 37 -39 75zM217 317l2 -1v104q-3 -2 -3 -7v-96h1zM473 643q-1 0 -1 -0.5t-2 -0.5v-78h3v79zM408 643q3 9 2 17.5t-9 17.5v-35h7z" />
    <glyph glyph-name="R" unicode="R" horiz-adv-x="568" 
d="M275 767q-2 8 -8.5 9t-12.5 1q-31 1 -61.5 -0.5t-60.5 -8.5q-9 -2 -17 1q75 20 147 18.5t141 -44.5q23 -13 46.5 -24t45.5 -24q42 -23 56.5 -56t1.5 -80q-17 -54 -40.5 -105t-61.5 -98q-14 8 -25.5 4t-22.5 -12q-24 -17 -49 -31t-50 -29q-6 -4 -13 -7t-15 -8
q66 -62 129.5 -122t129.5 -122q-8 -5 -14 -8.5t-12 -8.5l-74 62q-12 -12 -1 -21q5 -5 12 -10t12 -10q6 -5 11 -11.5t14 -16.5q-9 0 -13.5 -0.5t-8.5 0.5q-7 3 -12 8q-45 32 -89 63.5t-85 69.5q-20 20 -42 37.5t-43 35.5l-21 12q-2 -8 -3 -15t-1 -12q-3 -55 -6 -109t-7 -110
q0 -6 -0.5 -12t-1.5 -13q-34 -1 -57 23q-8 -12 -11.5 -25t-5.5 -26t-3.5 -26t-6.5 -25q-5 0 -9 -1t-8 1q-11 2 -17 3.5t-8.5 5.5t-2.5 10.5v17.5q4 60 8 119.5t7 119.5q2 18 1.5 35.5t-0.5 37.5l-34 -12q-14 6 -22.5 15.5t-3.5 30.5l68 31l33 332q-7 -2 -13.5 -3t-13.5 -2
q-5 -29 -9 -56t-9 -55h-6l5 105q-14 -5 -27.5 -9t-27.5 -9l4 55q0 8 -2 16t2 13q11 20 31 32q60 30 122.5 44.5t130.5 12.5q2 0 5 -1.5zM179 647q-2 -72 -3.5 -142.5t-3.5 -145.5q31 20 58 37t55 34q33 20 56 48.5t42 61.5q18 30 12 67q-3 18 -21 25q-47 16 -95 19t-100 -4z
M415 675q-87 51 -191 33q49 -3 96.5 -9.5t94.5 -23.5zM430 451l-5 6l-39 -33q2 -1 2 -2t2 -3zM311 767v5l-18 -2t-18 -3h36zM26 486q-1 -4 -1 -12v12h1z" />
    <glyph glyph-name="S" unicode="S" horiz-adv-x="431" 
d="M290 704q4 21 7 39.5t6 36.5q4 14 12 20q4 2 10 2.5t9 -1.5q5 -2 6.5 -7.5t2.5 -10.5q-2 -8 -4 -14t-4 -13q-2 -13 -4.5 -26.5t-1.5 -27.5q5 14 9.5 28t8.5 28q2 6 3 11t4 10q7 17 15 18.5t25 -11.5q-15 -58 -13 -115.5t9 -115.5q-17 -2 -21 -4t-9 -11q-16 4 -31.5 8
t-31.5 7q-20 6 -22 27q-2 12 -3.5 24t-3.5 24q-2 8 -5 16.5t-7 20.5q-10 -10 -19 -17t-15 -16q-11 -14 -20 -29t-16 -32q-23 -51 -36 -103.5t-18 -107.5q-1 -2 0 -4t2 -6q8 1 15 2t14 3q18 4 40 9t45 7.5t44.5 1t37.5 -10.5t25.5 -30t14.5 -49t5.5 -59t-2 -61t-6.5 -55
t-9 -40q-17 -51 -50 -84t-81 -52q-46 -21 -90 9q-9 6 -19.5 8.5t-19.5 6.5q-11 5 -22.5 9t-13.5 12q-3 10 -10 16.5t-18 16.5q11 -2 16.5 -2t9.5 -2q19 -10 35.5 -5.5t32.5 15.5q104 71 124 199q3 17 2.5 35t1.5 41q-17 -6 -30.5 -10.5t-27.5 -9.5q-12 -4 -24 -7t-23 -4
q-8 -1 -16 5.5t-12 4.5t-12.5 -5t-17.5 -5.5t-17.5 -4t-11.5 0.5q-13 6 -19 16t-10.5 21t-8.5 23t-13 22t-13 26t-3 31q2 75 21.5 144.5t60.5 132.5q8 11 16.5 21t19.5 18q28 28 56.5 32.5t68.5 -12.5q14 -5 25 -13t25 -16zM152 655q7 2 17 8.5t19.5 14t18 15t11.5 13.5
q-18 2 -32.5 -9.5t-33.5 -41.5zM227 335q-11 3 -26 2t-29 -4.5t-26 -10t-18 -13.5q26 7 49.5 13t49.5 13zM113 -13q34 -19 79 34q-20 -10 -40 -18t-39 -16z" />
    <glyph glyph-name="T" unicode="T" horiz-adv-x="315" 
d="M426 779q0 -5 -1 -11t1 -8q14 -11 14 -24.5t2 -28.5l-10 -8t-9 -7q-22 4 -42.5 8.5t-40.5 7.5t-40.5 5t-44.5 4q-13 -225 -17 -444.5t-1 -442.5q-13 -1 -24.5 -1.5t-23.5 -0.5q-26 0 -29 29q-2 15 -3 29.5t-4 28.5q-1 8 -4 15.5t-6 15.5q-1 -1 -2 -1t-3 -1q0 -8 1 -11
q-9 3 -18.5 6t-18.5 8q-10 5 -12 18q-4 16 -7 32t-4 33q-7 83 -5 165t8 166q3 41 5 82t7 82q5 44 12 86.5t14 86.5q1 5 1 10t2 11q-11 -3 -11 -10t-2 -12t-3.5 -10.5t-5.5 -10.5q0 10 1 20t2 22q-5 1 -9 2t-9 1q-39 -1 -77.5 -1t-78.5 -8q-8 -2 -10.5 0t-9.5 15q10 4 20 7
t24 8h-39q2 9 7 12t10 4t10 1.5t7 2.5q4 16 7.5 28.5t6.5 23.5q35 16 72.5 20t74.5 6q51 2 101 1t101 -1q27 0 54 -3.5t53 -13.5q29 -12 18 -39q-2 -2 -5.5 -3t-6.5 -3q-4 13 -13 17t-20 5q-56 7 -114 12q-10 2 -19.5 1.5t-19.5 -0.5q48 -7 95 -12t92 -22zM173 637
q5 10 6 13.5t-1 14.5q-1 -6 -2 -13t-3 -15q-1 -8 -1 -14.5t-1 -13.5h4q0 7 -0.5 14t-1.5 14zM139 -30q5 120 8.5 239t7.5 239q-4 -30 -7.5 -72.5t-6 -90t-4.5 -96.5t-2.5 -92.5t0.5 -77t4 -49.5zM161 511v-16h2q-1 5 -1 8.5v7.5h-1zM166 570v-6.5t1 -6.5h1v13h-2z" />
    <glyph glyph-name="U" unicode="U" horiz-adv-x="482" 
d="M486 679q-2 -21 -3.5 -42.5t-5.5 -42.5q-18 -122 -41.5 -241.5t-55.5 -238.5q-7 -25 -16.5 -49t-18.5 -48q-4 -8 -10 -16t-11 -16q-26 -32 -57.5 -35.5t-63.5 22.5q-11 8 -21 12t-24 2t-26 3.5t-23 13.5q-9 5 -16 14t-20 5q-2 0 -5.5 7t-5.5 12q-5 10 -9 20l-8 20
q-2 0 -3 -0.5t-2 -0.5v-39h-6q-2 11 -2.5 23t-2.5 25q-5 32 -9 63.5t-12 63.5q-3 11 -5.5 23t-3.5 25q-1 109 10.5 215t41.5 212l6 16t6 17q2 2 3 4.5t4 7.5q6 0 13 0.5t14 -1.5q9 -2 21 3q6 3 14 4t16 -1q11 -2 19 -6.5t15 -7.5q-7 -17 -14 -32t-12 -32q-59 -188 -48 -384
q8 59 17.5 117t18.5 117q3 0 5 -1l-4 -42t-3 -43q-4 -41 -7.5 -81.5t-6.5 -81.5q-4 -47 6.5 -89.5t33.5 -82.5q3 -6 8 -12.5t10 -13.5q17 13 26.5 29t16.5 33q22 61 42 126q27 94 44 190t31 194q3 20 6.5 39.5t6.5 39.5q24 9 31 7.5t15 -17.5q12 -2 22 -2.5t21 -2.5v-32
l10 -4l10 -4q3 5 6 9.5t5 9.5q2 -1 3.5 -1t3.5 -1zM76 358q8 49 14 94t14 90t19 89t28 87q-10 -8 -20 -31.5t-19 -55.5t-17 -69.5t-13 -75t-7 -71t1 -57.5zM207 -7q26 -21 48.5 -18t36.5 31q-22 -3 -42.5 -6t-42.5 -7zM175 -3q-11 11 -20.5 8.5t-20.5 -2.5q6 -5 9.5 -7.5
t7 -3t9 0.5t15.5 4zM159 76l-3 -1.5t-3 -2.5q3 -5 6.5 -10.5t5.5 -10.5q2 1 3.5 2t3.5 2q-3 5 -6.5 10.5t-6.5 10.5z" />
    <glyph glyph-name="V" unicode="V" horiz-adv-x="516" 
d="M218 -20q8 8 16 16.5t18 18.5q-17 5 -30.5 9t-28.5 9q-2 -5 -3 -9.5t-3 -8.5q-2 -3 -4.5 -7t-6.5 -5q-31 -12 -55.5 -2t-37.5 42q-10 26 -17.5 53t-13.5 53q-17 67 -30 134t-18 136q-3 60 -4 119.5t7 119.5q1 12 2.5 18.5t5.5 10t10.5 5t18.5 4.5q17 4 30.5 2.5
t28.5 -7.5q3 -57 5 -113t4 -114q2 54 -0.5 107.5t2.5 107.5q5 0 7 2q2 -5 4 -8.5t3 -7.5q9 -119 27 -234.5t43 -232.5q3 -24 16 -47q6 17 12 33.5t12 33.5q49 148 89.5 296.5t78.5 300.5q2 12 5.5 23.5t5.5 23.5q2 9 6.5 12.5t12.5 5.5q17 1 30.5 -3.5t30.5 -12.5
q-2 -11 -3 -21t-5 -21q-4 -12 -1.5 -22t15.5 -18q2 1 5.5 3t7.5 3q4 -1 8 -6t6.5 -11t3.5 -13t-1 -11q-33 -100 -67 -198t-67 -197q-11 -32 -20 -64.5t-15 -65.5q9 23 18.5 45t18.5 45q8 23 16.5 46.5t17.5 46.5q8 23 16.5 46.5t17.5 46.5q8 25 16 48.5t16 48.5
q9 23 16.5 45.5t15.5 45.5q9 22 12.5 47t17.5 45h7v-11.5t-2 -10.5q-34 -168 -83 -329.5t-122 -316.5q-12 -26 -25 -53t-27 -53q-8 -15 -19.5 -24.5t-33.5 -3.5q-8 3 -18 1t-21 -2q0 2 -0.5 2.5t-0.5 2.5zM262 111q-1 -8 -5.5 -15l-9 -14t-6.5 -15t2 -18q4 6 9 8t10.5 3.5
t10 4.5t7.5 10q5 13 3 19t-21 17zM121 406v24h-2v-24h2zM294 27l-6 3q-2 -5 -5 -10.5t-5 -11.5q2 -1 2.5 -1t2.5 -1q2 5 5.5 10.5t5.5 10.5zM125 377v-18h1v18h-1z" />
    <glyph glyph-name="W" unicode="W" horiz-adv-x="723" 
d="M663 770q-36 -194 -59.5 -387t-51.5 -388q0 -1 7 -8q10 23 13 45t6 45q7 57 12 114t13 114q8 66 17.5 131.5t19.5 131.5q6 42 12.5 84t13.5 84q1 5 2.5 10.5t3.5 10.5q2 2 5.5 2t8.5 1q-5 -46 -8.5 -90t-7.5 -89q-18 -200 -33 -397q-4 -36 -6 -72t-8 -71q-2 -19 -8 -37.5
t-12 -36.5q-7 -19 -32 -21h-30t-30 -3q-14 -2 -28 6t-22 22q-8 15 -16.5 31t-15.5 32q-28 69 -47 138.5t-33 141.5q-5 23 -9.5 45.5t-11.5 48.5l-7.5 -10.5t-4.5 -8.5q-46 -94 -86 -189t-77 -192q-5 -15 -11.5 -29.5t-12.5 -29.5q-2 -5 -4.5 -11t7.5 -14q17 23 25 50.5
t22 51.5q-6 -27 -14 -53.5t-22 -51.5q-4 -5 -9 -8.5t-10 1.5q-11 11 -22.5 10.5t-23.5 -0.5q-49 -2 -63 44q-6 20 -10.5 39.5t-6.5 39.5q-7 60 -2 120.5t13 120.5q15 103 38.5 203.5t54.5 200.5q3 8 6 17t6 17q19 8 33.5 0.5t28.5 -15.5q13 -8 20 -13t9 -11.5t1 -15.5
t-5 -23q-26 -94 -47 -188t-38 -191q-7 -38 -11 -77t-9 -77q-1 -8 -0.5 -15.5t4.5 -16.5q2 5 3.5 9t3.5 9q38 116 87 226.5t100 221.5l13.5 27t14.5 26q2 4 5 7t7 4q9 3 21.5 -0.5t23 -11t18 -18t7.5 -20.5q0 -5 -1 -5q-9 -5 -11.5 -11.5t-1.5 -13t3 -13t4 -12.5
q13 -55 27 -109.5t29 -110.5q11 -44 24.5 -86t26.5 -86q2 -7 5.5 -15t10.5 -17l3 18q5 59 8.5 118.5t8.5 119.5q8 102 17.5 202.5t26.5 201.5q6 30 17.5 36.5t40.5 -1.5q10 -3 21 -9zM481 43q-34 114 -59 229.5t-47 232.5q-2 -12 3 -47.5t14.5 -83t21.5 -100.5t24.5 -100.5
t23.5 -83t19 -47.5z" />
    <glyph glyph-name="X" unicode="X" horiz-adv-x="416" 
d="M98 425q-4 5 -7 8.5t-4 8.5q-20 62 -35 123.5t-23 125.5q-2 12 -1.5 17.5t4 8.5t10 5t17.5 5h5q7 -1 14.5 0t14.5 1.5t14 -1t14 -5.5q13 -10 14 -24t6 -28q10 -30 19 -60.5t17 -60.5q2 -4 3.5 -8t4.5 -11q34 51 64 102.5t65 100.5q5 -4 8 -7t7 -5q11 1 17.5 7t12.5 14
q11 18 22 34.5t22 33.5q5 8 10.5 13.5t16.5 2.5q18 -2 11 -21q16 5 25 -2.5t16 -16.5q2 -4 0.5 -10t-3.5 -10q-7 -14 -16 -25.5t-17 -23.5q-45 -71 -91 -141t-92 -142q-8 -12 -15 -23.5t-13 -25.5q-7 -11 -2 -25q24 -73 49 -145t50 -145q5 -13 12 -25t14 -25
q-5 -4 -9.5 -7.5t-9.5 -7.5q-14 4 -26.5 7.5t-20.5 17.5q-8 12 -15 24t-12 25q-11 23 -20.5 46.5t-20.5 46.5q-3 7 -6.5 14t-8.5 13q13 -54 31.5 -105t41.5 -102q-20 26 -33 55.5t-25 60.5q-5 11 -10 24.5t-10 24.5q-5 10 -7 21t-17 13q-4 1 -6 9t-4 15q-3 7 -6 15t-7 19
q-17 -29 -32 -55.5t-27 -53.5q-13 -32 -26 -63.5t-28 -63.5q-8 -16 -17.5 -31t-20.5 -29q-2 -4 -8 -6.5t-11 -0.5q-23 4 -32.5 21.5t-1.5 44.5q2 11 7 22.5t10 23.5q8 20 17.5 40.5t14.5 42.5q14 61 42 115t54 111q2 5 1 11.5t0 12.5q16 -2 13 13q-5 16 -10 30.5t-9 29.5
q-2 0 -3 -0.5t-2 -0.5q2 -9 4 -18.5t6 -19.5zM383 22q-11 6 -16.5 13.5t-8.5 16t-4.5 17t-4.5 16.5q8 -14 16 -28.5t18 -34.5zM297 244q4 -8 6 -13h-2q-2 2 -3.5 5.5t-2.5 6.5q1 1 2 1z" />
    <glyph glyph-name="Y" unicode="Y" horiz-adv-x="382" 
d="M393 767q5 9 8.5 18t7.5 18q9 -7 20 -6.5t19 -8.5t11.5 -17t-1.5 -19q-5 -14 -10.5 -28.5t-9.5 -28.5q-57 -159 -109 -317.5t-101 -319.5q-9 -29 -16.5 -59.5t-15.5 -60.5q-2 -7 -4 -13.5t-5 -17.5q-15 6 -28 11.5t-27 11.5q-5 -21 -10 -44.5t-10 -49.5q-5 5 -10 8
t-9.5 6t-7 7t-0.5 11q-8 -1 -16.5 -2.5t-12.5 1.5q-5 5 -8 14t-2 17q4 29 9 56.5t10 56.5q11 50 23.5 98.5t25.5 99.5q-16 2 -26.5 9t-18 17t-12.5 22t-9 24q-20 54 -31.5 108t-20.5 109q-10 50 -16.5 99t-14.5 98q-1 5 -0.5 10.5t0.5 13.5q14 -3 27 -4q3 0 6.5 -1.5
t4.5 0.5q9 10 14.5 6t10.5 -11q4 -5 7.5 -11.5t8.5 -14.5q8 30 5.5 59t2.5 59q9 -2 16.5 -3.5t15.5 -3.5q25 -4 25 -33t2.5 -57.5t2.5 -57.5q0 -63 17.5 -121t35.5 -119l5.5 11t4.5 11q51 157 125 300q5 11 11.5 21t13.5 20q13 18 24.5 19t28.5 -11q2 -2 5 -4t8 -6zM283 522
q-6 -4 -7 -5q-20 -58 -39.5 -115.5t-39.5 -115.5q-1 -2 0.5 -6t3.5 -11q4 8 6.5 12t3.5 9q18 55 35.5 110t34.5 111q2 2 1.5 5t-0.5 6q5 11 9 20t9 20q-3 0 -7 2q-2 -11 -5 -21t-5 -21zM188 246q-29 -81 -53.5 -162t-41.5 -166q5 5 7 15l36 122t37 123q2 5 3.5 10.5
t5.5 10.5q7 11 7.5 23t-1.5 24zM364 706q-5 3 -8 3q-11 -26 -23 -52.5t-24 -52.5q2 -2 4 -2.5t4 -1.5q22 51 47 106zM235 35q-8 -35 -15 -68t-15 -67q-6 2 -8 2q8 34 16.5 67.5t16.5 67.5q1 -1 2 -1t3 -1z" />
    <glyph glyph-name="Z" unicode="Z" horiz-adv-x="520" 
d="M391 615q-78 -9 -154 -22.5t-151 -47.5q-7 9 -14.5 17t-13.5 17q-11 17 -9 28t20 22q20 10 39 19t40 16q63 22 127.5 33t130.5 15q47 2 92 0q49 0 60 -42q2 -8 3.5 -15t-14.5 -8q-4 0 -7.5 -6.5t-3.5 -11.5q-1 -11 -7 -18.5t-8 -18.5q-2 -8 -11.5 -15.5t-16.5 -15.5
q-37 -52 -73.5 -103t-71.5 -105q-36 -56 -69 -113t-67 -114l-4 -10t-5 -12q6 0 10 -0.5t8 0.5q37 4 74 5.5t75 -1.5q22 -1 38.5 -11t31.5 -24q5 -4 7 -10t7 -14q-7 1 -10.5 1t-5.5 2q-13 9 -27.5 12.5t-29.5 1.5q-50 -6 -98.5 -12.5t-98.5 -12.5q-2 0 -11 -8q14 0 23.5 0.5
t19.5 -0.5q11 -2 22.5 -3t22.5 -4q15 -5 30 -5t32 2q27 4 55 5t57 3q7 1 14 -1l14 -4q3 -1 5.5 -5l7.5 -12q-32 16 -62 15t-59 -5q-67 -11 -132.5 -22.5t-131.5 -24.5q-12 -2 -25 -7.5t-26 -10.5v17q-2 1 -2.5 1t-2.5 1q-4 -5 -5 -11q-3 -11 -11 -13.5t-16 -0.5
q-14 5 -28.5 11.5t-27.5 15.5q-20 13 -19.5 27.5t20.5 24.5q10 5 22.5 8.5t24.5 8t22 11t16 15.5q29 45 52.5 85.5t46.5 79t48.5 77.5t58.5 82q13 17 29 42.5t32 53t32 53.5t31 44q-70 -8 -136 -25.5t-131 -41.5q-5 11 -2 14.5t10 5.5q32 15 66 23.5t68 13.5q34 6 67.5 11
t66.5 10q5 0 9.5 3.5t9.5 5.5v8zM49 660q6 5 12 9.5t13 8.5q39 20 81 32t86 19q26 5 53 7l54 4q-42 -8 -84 -15t-84 -18q-29 -8 -56.5 -19t-56.5 -21q-9 -5 -19 -6zM48 661q0 -4 -3 -6.5t-6 -5.5t-3 -6.5t7 -9.5q-22 -3 -14 14q3 4 9 7t11 6zM413 39q3 1 8 1v-1h-8z" />
    <glyph glyph-name="backslash" unicode="\" horiz-adv-x="278" 
d="M116 -128q-2 4 -3.5 7.5t-4.5 7.5q-4 -2 -7.5 -3.5t-7.5 -3.5q-1 2 -2.5 2t-1.5 2q-2 19 -5.5 56t-6.5 77.5t-6 77.5t-5 57q-9 82 -16.5 164t-16.5 166q-8 64 -17.5 127.5t-20.5 127.5v21q5 0 16 3.5t22 8t19.5 7.5t10.5 1q15 -14 20.5 -28.5t10.5 -41.5q8 -35 17 -71
t17 -72q21 -88 29.5 -176t14.5 -178q1 -22 3 -62.5t4 -84.5t3.5 -84.5t2.5 -62.5q0 -14 -3 -32q-17 -3 -32.5 -6t-33.5 -7zM57 711q19 -119 25 -238t15 -239q-1 121 -7.5 240t-32.5 237z" />
    <glyph glyph-name="underscore" unicode="_" horiz-adv-x="435" 
d="M337 10q4 -18 -3.5 -32t-15.5 -28q-8 -1 -15 -2t-16 -2q-2 -20 -15 -25t-30 -5q-26 -1 -52.5 -1t-53.5 -1q-36 -1 -72 -2.5t-72 -2.5q-5 -1 -11 -0.5t-12 0.5q0 16 9 20.5t20 5.5q38 5 76 9t74 8q-21 6 -42.5 8t-44 2.5l-45 1t-45.5 2.5q7 2 14.5 3.5t17.5 4.5
q0 17 10.5 23.5t25.5 8.5q71 13 140.5 11t141.5 -2q4 0 8 -1.5t8 -3.5z" />
    <glyph glyph-name="a" unicode="a" horiz-adv-x="551" 
d="M506 375q2 -18 -0.5 -21.5t-14.5 -1.5q-43 6 -88 9q-5 0 -10.5 -1t-10.5 -1v-7q33 -3 65.5 -6.5t65.5 -6.5q9 -17 6 -30.5t-10 -27.5q-8 2 -16.5 3.5t-18.5 3.5q-7 -22 -21.5 -27t-32.5 -4q-10 2 -19 0.5t-19 -1.5q-2 -8 -3.5 -27t-2 -44t0.5 -54t2 -56.5t3 -51t5 -37.5
q-18 4 -34.5 7t-31.5 8q-11 4 -15 13t-6 20q-2 32 -5 64t-5 64q-2 25 -2.5 49.5t-1.5 50.5h-84q0 -2 -1 -3l27 -3q0 -2 1 -2q-10 -1 -20 -1.5t-24 -1.5q-10 -42 -20.5 -83t-19.5 -83q-11 -43 -19 -85.5t-18 -87.5q-8 2 -16 5t-19 6v48q-7 -5 -9.5 -11t-3 -12l-1 -12
t-3.5 -11q-13 4 -17 12.5t-2 20.5q3 17 5.5 35t5.5 37l-10 4t-12 4q17 54 35.5 106t30.5 107q-23 -52 -41 -106t-37 -108q-14 5 -17 12.5t1 18.5q12 38 23.5 75.5t22.5 75.5l4 16t5 18h-81q10 9 21 9.5t22.5 0t22.5 0t20 8.5v7q-42 4 -81 9q-12 19 -6 34.5t10 31.5
q12 7 25 8.5t26.5 1l27 -1t27.5 2.5q6 12 11 27q29 83 65.5 161.5t78.5 155.5q11 20 22.5 23.5t31.5 -7.5q12 -6 23.5 -13t21.5 -16q7 -6 11 -15t6 -18q5 -32 9 -64t6 -64t2.5 -63.5t1.5 -63.5q0 -7 0.5 -14t1.5 -18h127zM283 364q-5 2 -9.5 4t-12.5 5q13 5 24 8v144
q0 4 -1 7t-2 8q-6 -11 -15.5 -35t-18.5 -51t-16 -53t-9 -40q15 -2 29.5 -3.5t30.5 6.5zM339 405v233h-3v-233h3zM282 299h-39t-40 -1q-1 0 -2 -3t-3 -6q23 -5 47 -3t37 13zM179 101q-8 -43 -13.5 -86t-11.5 -87q-11 7 -10 16.5t2 17.5q5 31 11 62t12 61q1 4 2.5 8t2.5 8h5z
" />
    <glyph glyph-name="b" unicode="b" horiz-adv-x="520" 
d="M20 -10q-6 12 0.5 18t14.5 12q8 5 15 11.5t13 14.5q-28 -12 -55.5 -25t-54.5 -25q-2 2 -2.5 3.5t-1.5 3.5q32 17 64.5 31t60.5 37l-13.5 13.5t-10.5 14.5q-5 8 -6 17.5t-1 17.5q-2 35 -2.5 68.5t-1.5 67.5v23q-9 6 -17 10t-11 10q-5 8 -2 16.5t11 14.5q16 11 19.5 25.5
t5.5 31.5q5 65 12 129.5t14 128.5q1 5 2.5 10.5t3.5 12.5q7 -1 13 -1.5t11 -0.5q4 0 8.5 -2t8.5 -2.5t8 1t7 8.5h3q10 -4 18.5 -2t16.5 5.5t16 8t16 6.5q35 9 71.5 15t73.5 1q16 -1 32 -5t27 -14q18 -15 33.5 -34t27.5 -39q11 -17 6.5 -34.5t-12.5 -33.5q-10 -16 -21.5 -30
t-22.5 -28q-14 -14 -29 -27.5t-31 -28.5q5 -2 8.5 -4.5t7.5 -4.5q33 -17 53.5 -42t14.5 -66q0 -8 5 -20q10 -20 8 -40.5t-13 -39.5q-10 -18 -21.5 -36t-25.5 -32q-58 -59 -122.5 -109t-134.5 -95q-11 -8 -25 -14t-29 -13l-19 32q5 7 12 10t14 6.5t13 9t9 16.5
q-14 -6 -25 -12t-22 -8t-23 1.5t-23 5.5zM184 315q-2 -18 -3 -39.5t-1 -42.5t1.5 -38t3.5 -25q20 19 45 41.5t49.5 46.5t46 49.5t34.5 51.5q-21 7 -44.5 3.5t-47 -11.5t-45.5 -18.5t-39 -17.5zM360 643q-15 0 -39.5 -6.5t-50 -16.5t-47.5 -21t-32 -20q-3 -3 -6 -6.5t-3 -7.5
q1 -18 0.5 -36t4.5 -37q15 9 41 29t53 43t49 45t30 34zM287 463q4 -1 5 -1.5t3 -0.5q7 2 10 5q29 24 58 48.5t58 50.5q9 8 15 17t11 20q8 15 4.5 20.5t-23.5 10.5q0 -1 -1 -2t-2 -3q-3 -3 -1 -5q3 -21 -5 -37t-22 -29l-74 -66zM375 333q-11 -14 -20.5 -28t-21.5 -26
q-13 -13 -31.5 -29t-38 -32.5t-38 -32.5t-31.5 -28q-4 -4 -9 -8t-1 -15q24 19 53 41.5t56 47.5t49 52.5t33 57.5zM379 195q3 -2 6 -4.5t4 -1.5q7 4 12.5 8t10.5 9q11 15 20.5 31t8.5 38zM182 606q11 6 26 14t31.5 16.5t32 17t27.5 14.5q-13 0 -29 -4t-32.5 -9.5t-31 -12
t-24.5 -10.5v-26zM147 143q2 37 5.5 74t2.5 75q-4 -8 -6.5 -29t-4 -45t-1 -45.5t3.5 -29.5zM404 595q-21 -20 -41.5 -40.5t-42.5 -40.5v-3q1 0 4 -2q22 20 43.5 39.5t36.5 46.5zM162 473q8 12 9 35.5t-9 43.5v-79zM302 131q17 6 30 17t25 24q-2 1 -4 5zM162 589q8 8 8 13.5
t-8 13.5v-27zM302 131q-5 -2 -9.5 -5t-9.5 -7q1 -1 1.5 -2.5t2.5 -2.5zM-18 -16q8 2 14.5 3t14.5 2q-8 -2 -14.5 -6.5t-14.5 1.5zM-37 -25l17 8q-3 -4 -5.5 -7t-6.5 -7zM19 -10q-5 0 -7 -1q2 1 7 1zM-18 -16q-1 0 -2 -1q0 1 1 2z" />
    <glyph glyph-name="c" unicode="c" horiz-adv-x="459" 
d="M315 551q-20 -5 -36.5 -15.5t-30.5 -24.5q-38 -36 -62.5 -79.5t-39.5 -94.5q-15 -48 -19.5 -95.5t5.5 -98.5q1 -7 2.5 -13.5t3.5 -14.5q19 5 33.5 13.5t28.5 19.5q41 34 77.5 70t69.5 77q5 6 10.5 12t11.5 9q12 5 20.5 -1t19.5 -24q-2 -2 -3.5 -5.5t-4.5 -5.5
q-3 -6 -10 -13q11 -10 15.5 -21t-5.5 -27q6 2 10.5 3t12.5 3q-22 -24 -40 -50t-36 -50.5t-38.5 -47t-45.5 -39.5q-11 -1 -22 -0.5t-22 -1.5q-32 -6 -54 13q-12 8 -24 13t-26 8q-38 6 -61.5 29.5t-37.5 57.5q-16 36 -19 74t2 76q8 60 29.5 114t57.5 103q55 69 142 100
q35 12 73 -4q5 -2 11 -5t11 -5q2 2 2.5 3t1.5 2q9 23 15.5 26.5t29.5 -4.5q4 -2 5 -3q19 -11 29 -16t13 -11t1.5 -16t-5.5 -31l-18 -102q-3 -21 -10.5 -26t-29.5 0q-26 5 -35.5 15.5t-9.5 37.5q-1 16 0 32.5t2 33.5zM309 578q-18 4 -38 -0.5t-38.5 -15.5t-34.5 -27t-27 -35
q30 26 62.5 47t75.5 31zM380 238q-2 2 -6 4q-9 -11 -15.5 -22t-4.5 -28q13 24 26 46z" />
    <glyph glyph-name="d" unicode="d" horiz-adv-x="507" 
d="M459 505q0 -18 1.5 -26t3.5 -14t3.5 -14t1.5 -26q-1 -81 -32.5 -147t-86.5 -122q-39 -42 -86 -80q-22 -17 -44.5 -32.5t-47.5 -26.5q-29 -14 -61 -23t-63 -20q-11 -5 -23 6q-15 14 -34 31q3 2 6 3.5t3 3.5q-1 10 2.5 16.5t9.5 11t12.5 8t12.5 7.5q3 2 5.5 4.5t4.5 3.5
q-2 8 -6.5 16t-1.5 15q13 34 20 73.5t10 87t2.5 105.5t-0.5 130q0 5 -2 11q-20 0 -37 -11.5t-37 -39.5q-23 11 -26 22t14 28q8 8 17 15.5t17 15.5q3 3 6 7.5t8 11.5q-18 -1 -29.5 -8t-19.5 -15q-9 -8 -15 -19t-13 -22q-10 13 -10 20t10 19q14 18 31.5 31t37.5 22q8 4 1 3
t-18 -1.5t-19.5 0.5t-3.5 8q2 3 8.5 7.5t14 9t14.5 8.5t11 5q43 11 93 20.5t99.5 11t95.5 -9.5t81 -41q17 -16 30.5 -35.5t27.5 -38.5q-6 -4 -7.5 -7.5t0 -6.5t4 -6t4.5 -6zM176 168q44 29 77.5 59t56.5 66.5t35.5 84t15.5 111.5q0 7 -1 14l-2 14h-7q1 -8 1 -16.5t1 -16.5
q2 -8 4 -16.5t-9 -15.5q-5 31 -21 53.5t-38 34.5t-48.5 14t-53.5 -7q3 -55 3.5 -99.5t-1.5 -87.5t-5.5 -89t-7.5 -103zM385 580q8 -13 15 -25t15 -26q-2 17 -7.5 30.5t-22.5 20.5zM342 502v17t-3 9t-9 5t-17 4q8 -10 14.5 -18.5t14.5 -16.5zM469 476h-1v16h1v-16z" />
    <glyph glyph-name="e" unicode="e" horiz-adv-x="405" 
d="M126 214q-9 1 -12 -2t-3.5 -8.5t-0.5 -11t-3 -9.5q-13 -2 -21 2t-13.5 11.5t-9.5 17t-9 17.5q-1 -5 -2.5 -8.5t-2.5 -3.5q-10 2 -19 4.5t-17 7.5q-4 2 -6.5 9t-2.5 13q-1 29 -1 58.5t2 57.5q5 59 12 114.5t13 113.5q1 2 1 10q7 32 16.5 37t39.5 -9q5 30 22 38t39 7
q45 -3 89.5 -6.5t90.5 -8.5q10 -2 19.5 -8t23.5 -12q-8 -12 -15 -21.5t-13 -20.5q6 -4 14.5 -10.5t6.5 -24.5q-22 -1 -48.5 -2.5t-54.5 -3t-55 -3.5t-49 -3q-1 -11 -1.5 -23.5t-1.5 -25.5q6 -1 15.5 -1.5t20 -1t20 -1t14.5 -0.5q14 -2 27 -2h27q17 -2 24 -10t10 -25v-14
q0 -15 -1 -24t-5 -13.5t-12.5 -5t-22.5 0.5q-23 1 -57 0.5t-62 -0.5q-1 -24 -3 -48.5t-4 -48.5q30 0 68.5 -0.5t66.5 0.5q30 0 60 3q13 0 18.5 -7t8.5 -18q5 -20 1 -32t-17 -20q1 -3 3.5 -6t4.5 -7q-51 -1 -105 -1.5t-105 -2.5q-1 -14 3 -26t3 -23q-10 0 -15 4t-7.5 10
t-3.5 13.5t-3 13.5zM40 364q2 5 4.5 8.5t4.5 8.5q7 42 13.5 84t14.5 83q2 9 2 16.5t1 14.5q-10 -4 -10 -13q-8 -51 -15 -101.5t-14 -101.5q-1 -8 -1.5 -16t-1.5 -16h5zM118 326q4 23 9 43t-2 43q-4 -6 -5 -18t-1 -25t0.5 -25t-1.5 -18zM56 308q-1 1 -3 1v-29h3v28zM57 343
q1 0 2 -0.5t3 -0.5v27h-3q-1 -7 -1 -13t-1 -13zM363 42q-67 5 -128.5 -0.5t-123.5 -14.5q-18 -3 -35 -3t-34 9q-14 8 -18 21.5t-6 28.5q-1 17 8 23t21 10q26 6 51.5 12t51.5 7q34 1 69 0t70 -5q28 -1 38 -13t18 -43q2 -8 7.5 -15.5t10.5 -16.5zM80 13q7 -1 14 -0.5t14.5 0.5
t15.5 -2.5t16 -10.5q-9 -1 -17.5 -3t-16 -2t-14 3.5t-12.5 14.5z" />
    <glyph glyph-name="f" unicode="f" horiz-adv-x="380" 
d="M356 687q11 5 16.5 0t12.5 -11q14 -9 19 -21.5t15 -23.5q-59 14 -117 10.5t-117 -4.5v-6h23q45 -3 89 -5t89 -6q22 -2 26 -12t-7 -30q-48 7 -96 5l-96 -4q-16 -1 -19.5 -4t-5.5 -20q-2 -12 -3 -31t-2.5 -39.5t-3 -39.5t-2.5 -31v-8.5t1 -11.5q21 -2 41 -3t40 -3
q35 -2 50 -6t24 -14q-8 -11 -17 -16t-23 -1q-7 2 -14.5 2.5t-16.5 2.5q2 -5 2 -7q12 -9 18.5 -14.5t7 -10.5t-4 -11t-13.5 -17q-2 -2 -5.5 -6.5t-11.5 -4.5q-20 2 -40.5 0t-43.5 -4q-5 -78 -10.5 -154t3.5 -154q-11 -3 -22.5 -2t-22.5 -7q-11 -6 -24.5 3t-18.5 23
q-4 14 -9.5 25t-19.5 19q-4 2 -6.5 9t-3.5 13q-2 18 -3.5 36t-1.5 37q-1 26 -0.5 53.5t0.5 56.5q-5 1 -10.5 1.5t-11.5 1.5q-2 7 -2.5 13.5t-3.5 13.5q-3 8 -7 17t-9 17q-2 5 -4.5 9t-4.5 9q-8 17 10 25q11 5 20.5 8.5t12.5 19.5q1 4 8 6.5t12 5.5q2 15 4.5 37.5t4.5 46.5
t4.5 46.5t4.5 37.5q-8 4 -23 5q0 17 -3.5 34.5t-11.5 32.5t-1.5 28t22.5 17q33 8 66 14.5t67 9.5q38 2 75 1t75 -1q8 0 15 -3t15 -5h-51v-2q13 0 25 0.5t26 1.5zM153 124q2 32 3.5 62.5t3.5 62.5q-1 1 -5 1q-2 -32 -4 -63t-4 -63h6zM147 92q-1 0 -3 -2v-41h3v43z" />
    <glyph glyph-name="g" unicode="g" horiz-adv-x="509" 
d="M439 488q-11 3 -17.5 5.5t-9 5.5t-3 8.5t0.5 15.5q0 8 0.5 16.5t1.5 16.5q1 6 0.5 12.5t-2.5 13.5q-6 -10 -6.5 -20.5t-0.5 -21t-1 -21t-6 -20.5q-25 -8 -38 0t-18 34q-5 16 -8.5 32.5t-8.5 33.5q-3 13 -8 24q-6 11 -12 13.5t-17 -5.5q-26 -17 -50 -41q-26 -28 -43 -60
t-31 -66q-8 -20 -18.5 -38t-12.5 -40q-2 -9 -3.5 -17t5.5 -15q-8 -16 -4 -31.5t3 -31.5q-2 -40 4.5 -77.5t19.5 -74.5q5 -17 13.5 -32.5t17.5 -34.5q14 14 26 24.5t22 22.5q28 35 49.5 73.5t38.5 80.5q1 2 2 3t1 3q-1 6 -1 12.5t-1 11.5q-6 -1 -12 -1h-13q0 2 -0.5 4t-0.5 4
q-12 0 -23.5 -0.5t-22.5 1.5q-4 1 -8.5 5.5t-5.5 8.5q-1 5 2.5 10t7.5 9t8.5 6t9.5 4q35 14 70.5 25t73.5 17q22 4 44 -7.5t36 -34.5q-10 -2 -17.5 -2.5t-16.5 -2.5q-7 -2 -13 -4t-14 -5q-1 -1 -0.5 -4.5t0.5 -5.5h7q-2 -57 -5 -112.5t-5 -112.5q-1 -26 0 -52t10 -51
q0 -2 1 -3t0 -3q-9 -10 -10.5 -20.5t0 -21t4 -21t1.5 -20.5q-1 -6 -0.5 -11.5t0.5 -12.5h-64q-5 45 -10 91t-10 97q-8 -8 -13.5 -13t-10.5 -10q-23 -19 -47.5 -26.5t-54.5 1.5q-14 3 -27 0q-50 -12 -90.5 9t-62.5 57q-15 24 -23 50.5t-10 55.5q-1 19 -4 37t-3 37q0 24 1 48
t4 47q4 23 9.5 46t10.5 49q-4 -5 -7 -9.5t-8 -11.5q1 8 1 12.5t2 8.5q13 44 32 83.5t48 75.5q20 25 44 44t58 27q38 11 75 -8q25 -14 57 -17q16 -2 31.5 -6.5t32.5 -9.5l5 12.5t6 15.5q3 12 10 26q7 13 12 14.5t22 -7.5q-11 -22 -20 -44.5t-14 -45.5l6 -1.5t4 -1.5
q4 11 7.5 21.5t7.5 21.5q5 14 14 29q7 11 19 4q-7 -26 -13 -50.5t-11 -50.5q-2 -11 -1 -22.5t1 -22.5q1 -17 0 -32.5t-9 -31.5zM200 585q-4 2 -7 3q-4 -5 -8 -8.5t-7 -7.5q-10 -15 -18.5 -29.5t-16.5 -30.5q-44 -88 -55 -177.5t15 -183.5q6 -23 16 -43.5t27 -36.5
q2 -2 6 -3.5t10 -3.5q-40 64 -49.5 130.5t-1.5 135.5q8 68 29.5 131.5t59.5 123.5zM219 597q1 0 2 -1l16.5 16.5t17.5 16.5q-2 2 -3 2l-16.5 -16.5t-16.5 -17.5zM385 615q2 13 -3 16.5t-15 4.5q5 -6 8.5 -10t9.5 -11z" />
    <glyph glyph-name="h" unicode="h" horiz-adv-x="551" 
d="M158 278q-1 -58 -2.5 -113.5t-12.5 -114.5q-13 5 -23 9t-21 6q-11 4 -21 6.5t-20 2.5q-17 1 -22.5 6t-5.5 22q-2 45 -2.5 88.5t-1.5 87.5q-1 4 -0.5 8t0.5 7q-8 7 -15.5 12.5t-13.5 11.5q-3 4 -3.5 10t-2.5 14q-5 0 -15 -2q-4 17 -1 23.5t17 11.5q10 2 17 5q3 0 7 1.5
t9 3.5q1 56 -2 111.5t-8 112.5q26 16 48.5 8.5t45.5 -20.5q5 -3 8 -10.5t6 -13.5q13 -35 19 -70t10 -70q1 -7 1 -14t1 -14h180q2 37 4 72t4 69q2 16 2 32.5t5 30.5q8 20 14.5 39.5t7.5 41.5q2 -15 -1 -29.5t4 -31.5q6 8 8 16.5t2.5 16.5t1.5 16.5t6 16.5q6 -2 12 -3.5
t9 -5.5q11 -14 30 -22q8 -4 8.5 -12t0.5 -16q1 -51 1 -101v-101v-31q29 -6 55 -7t52 -16q-5 -8 -8.5 -13t-6.5 -10q3 -2 6 -3.5t6 -3.5q0 -3 -2 -3q-4 0 -9.5 0.5t-7.5 2.5q-8 10 -18 13t-20.5 4t-21 1t-20.5 3q-6 -14 -2.5 -23t10 -16.5t13 -15.5t6.5 -18q-6 2 -13.5 5
t-18.5 7q-4 -91 -7.5 -178.5t-7.5 -176.5q-14 1 -27 1.5t-28 1.5q-5 26 -2 53.5t1 56.5q-20 2 -28 13.5t-9 30.5q-2 35 -4 69t-4 69q-1 16 -0.5 32.5t0.5 36.5q-46 2 -89.5 4.5t-88.5 -5.5v-27h52v-3q-13 -2 -26 -4.5t-27 -4.5zM403 411q2 0 8 -2q5 62 9.5 123t9.5 127
q-11 -9 -11 -11q-5 -59 -8.5 -118t-7.5 -119zM67 229v-54h2v54h-2zM67 147v-29h2v29h-2z" />
    <glyph glyph-name="i" unicode="i" horiz-adv-x="184" 
d="M26 513q8 -2 15.5 -4.5l16.5 -5.5q5 18 12 32q26 2 33.5 -5.5t3.5 -32.5q-3 -15 -3 -29q0 -6 9 -15q3 15 5 31.5t5 32.5q11 -2 13 -9t1 -15q-2 -19 -4 -37t-4 -37q-3 -41 -6 -75t-5 -66t-4.5 -65.5t-5.5 -74.5q-2 -13 -1.5 -25t0.5 -26q-16 1 -30.5 1.5t-30.5 1.5v-107
q-14 2 -28 3.5t-30 3.5q-2 8 -4 17t-2 18q1 35 1 69.5t3 68.5q5 49 9.5 90t9 80.5t9 80.5t9.5 89q0 3 1 5t2 5zM142 579q-22 7 -42.5 14.5t-34.5 30.5q-2 4 -4.5 11t-7.5 14q-9 15 -8.5 30t4.5 31q1 8 9 9.5t17 -4.5q11 -8 22.5 -14.5t20.5 -16.5q15 -15 26.5 -31t3.5 -42
q-2 -8 -3 -15.5t-3 -16.5z" />
    <glyph glyph-name="j" unicode="j" horiz-adv-x="300" 
d="M111 -2q-7 -5 -12 -9.5t-10 -9.5q-14 -11 -28.5 -19.5t-32.5 -11.5q-31 -3 -61 -9t-61 -3q-17 2 -22 5t-11 18q3 0 6.5 0.5t6.5 0.5q4 4 5 6q-6 2 -12.5 4t-12.5 6q2 2 3 4l3 6q7 -3 14 -4.5t13 -5.5q21 -11 39 -9t37 16q29 20 55 42t37 54q17 42 22.5 89t4.5 93
q0 46 0.5 91.5t-9.5 91.5q-1 4 0.5 8.5t2.5 9.5h47q-3 16 -5.5 29t-4.5 27q-2 6 -1.5 12.5t3.5 10.5q3 5 9.5 6t13.5 -4q1 -1 2.5 -1t3.5 -1q24 -1 31 -5.5t14 -24.5q11 -29 17 -59t8 -62l6 -123q2 -33 4 -65t3 -64q0 -35 -8.5 -67t-28.5 -61q-6 -10 -8.5 -20.5t-7.5 -19.5
q-4 -10 -10 -18t-20 -5q-5 0 -9.5 -2.5t-9.5 -4.5q-4 -2 -8 -4.5t-7 -1.5q-19 6 -35.5 -1t-34.5 -9q-16 -2 -31.5 -1t-29.5 14q6 0 11 0.5t11 -0.5q40 -3 79 19q13 6 15 17t4 25zM223 190l-4 -46l-4 -46q2 -1 7 -1l6 93h-5zM147 717q6 -4 4 -8t-4 -8.5t-2 -8.5t9 -7
q2 8 4.5 15t4.5 17q8 -3 15 -4.5t15 -3.5q4 -20 7.5 -23t17.5 5q10 -13 7 -26t-3 -26q0 -14 -1 -26t-1 -26q-7 1 -9.5 4.5t-3.5 8t-2.5 9t-7.5 6.5q-7 -8 -14 -15.5t-15 -17.5q-4 1 -13.5 3.5t-10.5 0.5q-5 -9 -9 -11t-8 0t-7.5 5.5t-7.5 5.5q-2 2 -4 4.5t-2 4.5
q-2 21 -3 41.5t-2 41.5q0 2 1 4t3 2q13 3 14 12.5t8 20.5h20z" />
    <glyph glyph-name="k" unicode="k" horiz-adv-x="451" 
d="M227 448q17 23 33.5 46t35.5 44q14 14 26.5 11.5t31.5 -16.5q-4 -4 -8 -7l-8 -6q-5 -4 -9.5 -7t-7.5 -8q14 -6 22.5 -4t17.5 12q9 12 13.5 10t15.5 -19l-72 -95q-26 -32 -52.5 -64.5t-52.5 -66.5q20 -29 39.5 -58t41.5 -56t47.5 -51t58.5 -43q-11 1 -17 1t-10 -0.5t-7 -2
t-8 -4.5q23 -29 46 -55q-21 -8 -29.5 -6.5t-20.5 14.5q-5 6 -10.5 10t-11.5 9q2 -5 4 -8.5t4 -6.5q5 -8 10.5 -14.5t10.5 -14.5q-14 -4 -22 -0.5t-14 11.5q-17 19 -34 37.5t-34 38.5q-25 30 -48.5 61t-48.5 63q-22 -12 -39 -37.5t-19 -48.5q-3 -39 -5.5 -77.5t-4.5 -77.5
q0 -17 1.5 -33.5t3.5 -34.5q-24 -8 -37 -1.5t-21 29.5q-5 14 -7 31q-1 13 -11 24q-7 8 -12 17t-7 17q-4 22 -5 43.5t-1 43.5q-3 106 0.5 211t14.5 211q4 38 3 75t1 74q0 13 1 25t3 24q30 1 38 -25h28q4 20 8 40.5t9 42.5q8 0 15 2t14 -7q2 -3 6.5 -3.5t8.5 -1.5
q20 -4 27.5 -14t4.5 -30q-8 -47 -15 -92.5t-14 -92.5q-7 -51 -12.5 -102.5t-11.5 -103.5q8 -1 17 -5l-4 4l-2 2q2 3 5 6t5 7v-15l21 26q-5 -2 -10.5 -5t-10.5 -6q9 11 18 22.5t19 23.5l-8 -14l-6 -18q23 26 44.5 52.5t38.5 57.5q-7 -5 -13 -10t-12 -11zM310 54q5 -3 9.5 -6
t9.5 -7q-2 6 -5.5 10.5t-13.5 2.5zM183 391l3 6q10 12 20 25.5t21 25.5q-11 -13 -20.5 -26t-19.5 -26z" />
    <glyph glyph-name="l" unicode="l" horiz-adv-x="323" 
d="M12 -7q-2 9 0.5 15.5t7 11l8.5 8.5t6 10q-2 4 -4 4q-34 6 -34 44q0 35 -1 70.5t1 70.5q1 70 3.5 139t6.5 138q1 37 4.5 74t6.5 75q2 23 10 28t30 -2q5 0 9.5 -1.5t11.5 -3.5v29q0 20 12.5 28.5t31.5 0.5q25 -9 32.5 -18.5t6.5 -35.5q-2 -63 -6 -125t-9 -125
q-2 -29 -5.5 -56t-5.5 -56q-4 -46 -7 -91.5t-7 -91.5v-27q15 2 30 5t29 1t27.5 -9t27.5 -16l-22 -4l-22 -4q23 -8 46 -16.5t45 -27.5q-41 2 -74 -9t-62 -28q-6 -2 -10 -9t-9 -9q-16 -8 -33 -8q-11 2 -21.5 6.5t-21.5 8.5q-17 4 -39 6zM172 46q-8 1 -12.5 1t-8 -1t-7.5 -4
t-11 -8q14 5 22.5 7.5t16.5 4.5z" />
    <glyph glyph-name="m" unicode="m" horiz-adv-x="726" 
d="M618 -45q-5 -1 -11 -1.5t-13 0.5q-11 3 -22 5.5t-21 7.5q-5 2 -9.5 6.5t-8.5 9.5q-16 23 -21.5 49.5t-7.5 52.5q-7 92 -5.5 183t7.5 183q2 20 4 42t4 49q-8 -11 -13.5 -17.5t-10.5 -14.5q-38 -51 -64.5 -106t-43.5 -115l-30 -111q-4 -11 -1.5 -19t6.5 -16q3 -7 4.5 -11
t1.5 -7.5t-1.5 -8t-4.5 -11.5q-11 -1 -21.5 -1.5t-21.5 -3.5q-40 -10 -66 23q-27 32 -44 63q-23 43 -43.5 85t-42.5 85q-2 4 -4 8.5t-6 10.5q-3 -8 -3 -10q2 -70 8.5 -139t17.5 -138q2 -17 9 -32.5t31 -20.5q-18 -14 -36 -14.5t-35 -0.5q-3 0 -5.5 1.5t-5.5 1.5
q-25 -2 -34 13t-14 33q-9 42 -17.5 83t-15.5 83q-14 85 -12.5 169.5t12.5 169.5q1 13 3.5 26t5.5 26q5 18 12.5 21t23.5 -8q2 -2 4 -2.5t4 -2.5q2 2 4 3.5t5 2.5q26 11 33.5 6.5t14.5 -30.5q8 -26 16.5 -50.5t16.5 -50.5q2 1 3.5 1t3.5 1l-15 69q2 0 6 2q14 -43 28 -85.5
t29 -84.5q16 -44 34.5 -84t38.5 -82q8 9 6 17t-6 17q-14 45 -29.5 91t-31.5 91q-2 4 3 9q17 -47 34.5 -93.5t36.5 -95.5q3 5 5 8.5t3 6.5q36 87 87 163t112 146q12 14 24 25.5t26 22.5q8 7 20 11t24.5 3.5t24.5 -4.5t19 -13q5 -5 6.5 -13t3.5 -16q0 -8 0.5 -16t10.5 -14
q10 -5 8.5 -13t-3.5 -16q-4 -28 -8 -56.5t-8 -56.5q-6 -42 -11.5 -82.5t-10.5 -82.5q-2 -8 -3.5 -15.5t-10.5 -11.5q-4 -1 -6 -7t-2 -11v-105.5t2 -104.5q1 -19 5 -38.5t8 -42.5zM37 562q-3 -35 -6 -68t-5 -66q-4 -63 0 -125.5t11 -125.5q3 -29 7.5 -56t9.5 -55
q3 -14 5.5 -16.5t12.5 -8.5q-5 32 -12 64t-9 64q-5 52 -7.5 103.5t-3.5 102.5q-1 39 2 77.5t5 77.5q1 8 1 16t-11 16zM574 606q-14 -8 -19 -17.5t-5 -21.5q0 -11 -1 -23t-3 -23q-5 -48 -10 -95.5t-10 -95.5q-2 -26 -3 -52l-2 -52q7 47 11.5 94.5l9 95t12 95t20.5 95.5z
M515 58q1 -1 4 -1v77h-4v-76zM59 620q-3 1 -8 1q-2 -4 -3 -7.5t-1 -8.5q0 -1 8 -7q1 13 4 22zM521 209v-17h3v17h-3zM656 -19q-5 17 -10.5 34t-8.5 34q-7 49 -8 98.5t3 99.5q7 60 13 118.5t14 118.5q2 23 7 45t10 45q2 8 8 12q-11 -73 -17 -145t-10 -144q-4 -74 -2 -146
t18 -144q-5 -1 -9.5 -1.5t-12.5 -1.5l2 -12t3 -12v1zM656 -20q1 -6 2.5 -13t3.5 -15q-11 5 -9.5 13t3.5 16v-1z" />
    <glyph glyph-name="n" unicode="n" horiz-adv-x="467" 
d="M18 415q-2 7 -5 13.5t-3 13.5q4 38 7.5 74.5t6.5 74.5q1 15 11.5 21.5t18.5 8.5q19 7 37.5 3.5t35.5 -14.5q9 -6 14 -18q27 -71 54 -141t55 -140q8 -19 15.5 -38t15.5 -41q5 10 5 11q-2 88 10 173.5t28 172.5q3 14 4.5 28t5.5 28q2 13 5.5 20.5t9 10.5t15 2.5t23.5 -3.5
q-2 -20 -3.5 -41t-4.5 -43h3q5 20 10 40.5t10 42.5q11 -3 19.5 -5t19.5 -5v-9.5t-1 -9.5q-3 -35 -6.5 -70.5t-7.5 -70.5q-5 -60 -11 -119t-10 -119q-4 -57 -5.5 -114.5t-2.5 -115.5q0 -16 2.5 -32.5t4.5 -33.5q-6 -2 -12 -2.5t-11 -2.5q-7 6 -9 14.5t-3.5 17.5t-5.5 17.5
t-14 14.5q2 -17 3.5 -30t2.5 -27h-3l-4 10l-4 10q-2 6 -3.5 11t-3.5 13q-26 -6 -43 6t-31 32q-26 37 -46 77.5t-40 82.5q-8 17 -15 35t-15 36q-2 7 -5.5 12.5t-5.5 13.5q-5 0 -7 -1q-5 -85 -10.5 -169t-11.5 -170q-8 0 -14.5 -0.5t-14.5 0.5q-28 1 -29 28v56q0 19 -19 19
q-8 1 -15.5 4.5t-16.5 6.5q-2 8 -3 16.5t0 16.5q1 45 3 88t4 88q2 24 2.5 48.5t1.5 49.5q0 8 1.5 14t10.5 10q2 14 3 28t3 28v62q8 8 8 17.5t-2 23.5q-2 -13 -3.5 -22.5t-2.5 -18.5v-62q-2 -4 -5 -8t-3 -8q-1 -11 0 -21zM149 538q-3 -12 -4 -22.5t5 -33t20.5 -64.5
t40.5 -117q35 -100 57.5 -153.5t36.5 -68.5q-77 225 -156 459zM326 367q-8 -35 -12 -71t-4 -67.5t4 -56t12 -35.5v230zM9 393q1 -7 1 -14.5v-15.5q1 0 1.5 0.5t1.5 0.5v29h-4zM436 -44q-15 37 -15 75.5v81.5q4 -42 7.5 -80.5t7.5 -76.5z" />
    <glyph glyph-name="o" unicode="o" horiz-adv-x="445" 
d="M110 88l5.5 -16.5t4.5 -14.5q-4 -5 -9.5 -4.5t-11 1.5t-11 -1t-8.5 -12q-6 9 -12 16t-9 15q-13 37 -25.5 73.5t-22.5 74.5q-9 40 -8 78q2 72 10.5 144t28.5 143q5 20 13.5 38.5t18.5 37.5q9 19 22.5 23t37.5 -9q8 -4 15 -9.5t15 -10.5q-6 -11 -17 -23q8 1 12.5 1.5
t8.5 2.5q39 14 76 0q6 -2 10 -0.5t9 5.5q7 7 19.5 2.5t21.5 -13.5q10 -11 20 -21.5t19 -23.5q8 -12 15 -26t15 -29q0 19 -7 34t-17 32q18 -3 27 -12.5t15 -21.5q31 -67 22 -142q-17 -149 -85 -284q-8 -16 -20 -29.5t-23 -27.5q-13 -13 -29 -8q-9 2 -18.5 5t-20.5 -1
q-3 -2 -9.5 6t-14.5 16q-17 -2 -38 -4.5t-45 -4.5zM235 561q-26 -6 -41.5 -21t-26.5 -33q-11 -17 -19.5 -36t-16.5 -39q-35 -99 -28 -207q3 -20 9.5 -39t18.5 -35q14 -19 23 -19.5t26 13.5q21 18 36 40.5t26 48.5q47 107 39 228q-1 23 -6 46l-10 46q-3 14 -10 25.5t-21 21.5
l-14 -10t-17 -10q10 -6 16.5 -10.5t15.5 -9.5zM292 390v75h-2v-75h2zM103 609q2 -2 3.5 -2t3.5 -2q6 13 13 24.5t13 24.5l-6 3q-7 -12 -13.5 -23.5t-13.5 -24.5zM286 348v15h-1v-16zM312 -59q-72 2 -140 -0.5t-137 -15.5v17q-4 2 -8.5 5t-6.5 7q-3 4 -2.5 9t-1.5 10
q-1 5 -3.5 10.5t-3.5 10.5t0 10t3 10q6 2 10.5 3t9.5 1q53 3 105 4.5t104 3.5q15 1 28.5 -2.5t22.5 -17.5q4 -6 6 -13t4 -15t5 -17.5t5 -19.5z" />
    <glyph glyph-name="p" unicode="p" horiz-adv-x="402" 
d="M105 -57q-9 0 -18.5 0.5t-19.5 -0.5q-15 0 -20 3.5t-6 17.5q-5 35 -8 70t-7 70q-2 15 -2.5 29.5t-5.5 28.5h-6q-2 -15 -5 -29q-4 14 -7.5 29t-8.5 33q8 7 9.5 19t2.5 26q3 70 6 139.5t7 139.5q1 20 4.5 39.5t8.5 39.5q3 17 8 20.5t23 1.5q4 8 6.5 15.5t5.5 15.5
q5 10 9 18.5t21 3.5q2 -1 4.5 2.5t5.5 4.5l10 6t15 8q-3 -21 -5.5 -36.5t-4.5 -30.5q39 11 73 18q55 8 102 -18q25 -13 49 -30q32 -23 41.5 -49t0.5 -64q-10 -35 -25.5 -65t-36.5 -57q-45 -57 -96 -107t-116 -86q-2 -2 -4.5 -3.5t-5.5 -4.5q-1 -49 1 -98t18 -100q-5 4 -11 8
l-12 8v-36zM142 331q2 -1 4 -1.5t4 -1.5q26 28 50 58.5t44 63.5q11 19 19 39t15 40t-1.5 29t-28.5 4q-19 -5 -37.5 -13.5t-36.5 -17.5q-5 -2 -8 -9t-4 -12q-5 -45 -10 -89.5t-10 -89.5zM147 501q-13 -3 -18 -10.5t-6 -18.5q-2 -41 -3.5 -81t-3.5 -82q0 -3 6 -12
q6 54 12.5 103.5t12.5 100.5zM268 247q38 46 75.5 91.5t60.5 103.5q-16 -62 -53 -108t-83 -87z" />
    <glyph glyph-name="q" unicode="q" horiz-adv-x="425" 
d="M343 548q0 11 1 21.5t-1 21.5q-1 10 -3 20t-4 21q19 0 28.5 -8t14.5 -26q11 -39 11.5 -78.5t-2.5 -79.5q-5 -67 -19.5 -132.5t-41.5 -128.5q-6 -12 -9 -15t-13 -10q1 -9 3 -21q3 1 5.5 1t4.5 2q17 11 23 8.5t12 -22.5q2 -5 6 -9t8 -10q-8 -6 -15 -11.5t-15 -10.5
q-32 -25 -64 -49t-57 -57q-5 -5 -11 -8.5t-14 -8.5q-8 3 -16 7t-16 6q-6 3 -12 -1q-13 -8 -22.5 -4.5t-19.5 16.5q12 19 26 38t28 41h-52q-41 -1 -61.5 14t-33.5 54q-11 33 -15 67t-4 69q1 62 12 122t35 117q16 36 38 66q8 11 17.5 19t20.5 14q14 8 28.5 9.5t29.5 -10.5
q8 11 15 20.5t15 19.5q14 15 25.5 18.5t31.5 -3.5q12 -4 24 -6t24 -6q17 -5 20 -25q3 -19 6.5 -37t6.5 -36q1 0 1 1zM106 136q4 -5 7.5 -11t8.5 -11q7 11 5 22q-3 20 -7 40.5t-6 41.5q-5 56 -3 110.5t10 109.5l6 40t19 37q5 5 5.5 13t2.5 16q-7 -5 -10.5 -12.5t-8.5 -9.5
q-11 -5 -14 -14l-6 -18q-7 -20 -13 -41t-11 -41q-15 -66 -17 -132.5t11 -132.5q2 -12 5.5 -23.5t12.5 -24.5q3 5 5.5 9t2.5 8q0 6 -1.5 12.5t-3.5 11.5zM194 261q3 0 4 -1q9 22 18 42t17 41q7 17 10.5 35t7.5 35q5 31 10 61t8 62q2 17 1 34.5t-2 34.5q-1 6 -4.5 11.5
t-5.5 11.5q-21 -22 -38 -69t-28 -105t-14.5 -118.5t2.5 -109.5q2 40 4.5 79.5t4.5 80.5h5v-125zM358 432q10 46 11.5 91t-11.5 90q6 -45 4.5 -90.5t-4.5 -90.5zM248 148q1 -2 2 -2.5t2 -1.5q3 3 5 6t5 6q-1 2 -2 2t-2 2q-6 -8 -10 -12zM198 426h-2v13q1 0 2 -1v-12zM99 206
q-2 3 -4.5 6.5t-2.5 7.5q-2 25 0 50q2 -16 3.5 -32t3.5 -33v1zM106 136q-4 17 -8.5 34.5t1.5 35.5v-1q2 -17 3.5 -34.5t3.5 -34.5z" />
    <glyph glyph-name="r" unicode="r" horiz-adv-x="448" 
d="M-9 226q-9 -2 -13 -6q-15 -11 -29 -9t-28 12q15 17 29.5 32t30.5 30q15 16 23.5 25t12.5 18t5 21t2 33q3 50 7.5 98.5t16.5 96.5q5 17 -3 26t-21 20q28 23 59 36.5t63 20.5t65 9.5t67 3.5q-10 8 -13.5 9t-14.5 3q-119 8 -215 -60q-7 -5 -13.5 -8t-14.5 -1q-14 2 -18 10.5
t5 19.5q15 15 32 25q111 74 242 48q40 -7 72 -39q13 -14 25 -26.5t23 -26.5q27 -35 15 -77q-6 -19 -13.5 -38t-20.5 -34q-31 -40 -64.5 -77.5t-66.5 -75.5q-2 -2 -5 -5.5t-7 -7.5q14 -16 27 -32t26 -31q17 -19 33 -36.5t32 -34.5q17 -17 34 -33t43 -19q-8 -6 -12.5 -9.5
t-9 -3.5t-11 3.5t-17.5 9.5q-11 -26 -31.5 -30.5t-41.5 15.5q-21 18 -40 42q-36 44 -68 86l-8 10l-8 10q-12 -5 -24 -14t-13 -20q0 -22 -1 -55.5t-1 -69t1.5 -68.5t5.5 -55v-13q-9 1 -15.5 1t-11.5 0.5t-11 2.5t-13 9q-2 2 -5.5 1t-6.5 -2q-19 -5 -32.5 3t-18.5 26
q-2 6 -3 23.5t-1.5 37t-2 37.5t-2.5 24q-11 1 -19 6t-15 12t-14.5 13t-17.5 9l20 20t19 18q5 4 11.5 7.5t11.5 6.5q-2 4 -4 6q-5 -5 -10 -9.5t-10 -9.5zM264 266q-4 6 -7 11t-7 12l-5 -5q4 -5 8 -9.5t9 -9.5q26 -48 69 -88q-14 24 -30.5 46.5t-36.5 42.5zM134 462
q30 13 57 30.5t49 36.5q45 39 56.5 62t0 31.5t-40 4.5t-62.5 -19q-20 -8 -34.5 -21.5t-17.5 -34.5q-2 -21 -4 -42.5t-4 -47.5zM196 382q15 16 31 30.5t30 30.5q28 29 54.5 58.5t46.5 65.5q7 11 11 23t9 23q-1 0 -2 1t-3 2q-1 -2 -4 -7q-24 -50 -63 -91q-27 -29 -53.5 -56
t-52.5 -56q-4 -4 -8 -8.5t4 -15.5zM237 642q27 -7 39.5 -3.5t19.5 18.5h-14t-10.5 -1.5t-13.5 -4.5t-21 -9z" />
    <glyph glyph-name="s" unicode="s" horiz-adv-x="521" 
d="M142 443q44 -6 85 -12t83 -11q14 -2 28.5 -3t28.5 -2q8 0 9 -1q7 -11 16.5 -17.5t20 -11.5t21.5 -9.5t20 -10.5q11 -7 17.5 -17.5t12.5 -26.5q-8 6 -15 12.5t-14.5 11.5t-15.5 6.5t-18 -1.5q1 -6 4 -10t7 -6.5l8 -5t7 -6.5q-3 -4 -7.5 -8.5t-5.5 -9.5q0 -13 10 -26
q3 -4 8.5 -7.5t13.5 -8.5q-21 -17 -42 -34.5t-41 -34.5q2 -7 4.5 -13t4.5 -12q-2 -2 -2.5 -4t-2.5 -3q-12 -8 -24 -15.5t-25 -14.5q-63 -33 -119.5 -74.5t-110.5 -88.5q-6 -5 -13 -7t-15 3l-39 21q-6 -5 -11 -9t-11 -9q-12 5 -23 11.5t-22 11.5q-38 21 -10 52q25 26 54 46
t58 39q26 18 53.5 34t52.5 36q31 25 64.5 44t65.5 42q4 4 7.5 7t7.5 6q-9 11 -20 12t-21 2q-28 2 -55 3t-55 4q-14 1 -29 4.5t-29 6.5q-6 2 -13 3t-13 3q-9 4 -20 7t-18 11q-31 34 -42.5 73.5t8.5 87.5q13 29 32 51q37 47 84 80.5t101 57.5q41 17 75 9t64 -37
q8 -6 13.5 -12.5t10.5 -12.5q10 -12 15 -19.5t4 -14.5t-8.5 -14t-20.5 -18q-10 13 -20.5 18t-21.5 4.5t-22.5 -5.5t-22.5 -12q-41 -25 -77 -54.5t-68 -64.5q-2 -3 -5 -6.5t-5 -7.5q-2 -2 -2.5 -4.5t-3.5 -7.5zM104 15q11 8 23 16t23 17q11 8 22.5 16.5t22.5 17.5
q-2 1 -2.5 2t-2.5 3q-23 -17 -46.5 -32.5t-42.5 -37.5l-18 -12q2 -2 4 -6q5 4 8.5 7.5zM133 619q-32 -19 -57 -45t-40 -60q23 26 47.5 52t49.5 53zM274 133q0 2 -1 2.5t-2 2.5q-10 -6 -20 -12.5t-20 -12.5q1 -2 2 -3t1 -2q22 13 40 25z" />
    <glyph glyph-name="t" unicode="t" horiz-adv-x="300" 
d="M123 -12q-19 2 -23 18q-3 11 -5 21t-2 21q-2 17 -2 33t-1 31q0 5 -1.5 10.5t-4.5 8.5q-15 8 -18 21t-5 27q-1 8 -2 14.5t-3 14.5q-5 -15 -4.5 -30.5t-1.5 -32.5q-2 17 -4 33.5t-2 33.5q0 74 6.5 146.5t14.5 145.5q2 14 2.5 27t2.5 27q-5 1 -10 1t-10 1t-10 -1l-10 -4
t-10.5 -2t-12.5 5t-18.5 4t-21.5 1q-8 14 -14 26t-13 23q4 3 6.5 5.5l4.5 4.5q-8 7 -14.5 13t-14.5 13q6 14 16 15.5t21 2.5q23 4 46.5 6t46.5 4q7 0 13.5 1t12.5 2q9 1 14.5 5.5t9.5 11.5q20 40 55 15q6 -4 11.5 -8t11.5 -8q1 1 3 1t3 2q11 17 21.5 19t26.5 -15
q10 -11 19.5 -15.5t22.5 -6.5q16 -2 32 -6.5t32 -7.5q16 -2 29.5 -7.5t25.5 -19.5h-11.5t-10.5 -2q0 -11 6 -14t15 -4q8 -1 14 -4t5 -14q-8 1 -15 1.5t-15 1.5q2 -11 4.5 -23t5.5 -27q-14 1 -23.5 1h-19.5q-30 1 -60 1.5t-61 0.5q-5 -23 -7.5 -44.5t-5.5 -44.5
q-12 -87 -23.5 -172t-22.5 -173q-5 -33 -6 -66.5t7 -68.5h-48zM68 633q-36 5 -63 4.5t-40 -7.5q6 -4 18.5 -6t27 -1.5t30 3t27.5 7.5z" />
    <glyph glyph-name="u" unicode="u" horiz-adv-x="408" 
d="M162 543q-12 -51 -23 -97t-19 -93q-8 -31 9 -61q8 -14 17 -17t24 4q18 8 30 20.5t22 27.5q23 43 26 92q1 12 1.5 35.5t1.5 49t2 48.5t2 35q0 11 6 26q15 -8 20.5 -17.5t4.5 -22.5q-1 -15 -2 -41.5t-2 -55t-2.5 -55t-2.5 -42.5q-1 -45 -25.5 -80t-62.5 -66q29 5 47 20.5
t29 34.5q8 17 14.5 34.5t13.5 34.5q2 6 4.5 12t-8.5 10q-2 0 -2 4.5v7.5q2 16 4 42t4.5 54.5t4.5 55t4 42.5q8 2 17 2.5t22 2.5q2 -9 3.5 -28.5t2.5 -41t2 -41t1 -27.5q7 -48 3 -95.5t-25 -92.5q-8 -18 -19.5 -34.5t-25.5 -31.5q-14 -14 -31.5 -21.5t-38.5 -9.5
q-15 -1 -29 -3t-28 0q-11 1 -21.5 5t-19.5 9q-8 3 -13.5 8.5t-13.5 8.5q-24 12 -39.5 29t-20.5 43q-3 9 -10 20q-22 32 -24.5 66t4.5 69q4 27 10 57.5t13.5 60.5t16.5 58.5t19 52.5l16.5 -16.5t19 -18.5t18.5 -16.5t17 -10.5q11 -3 14 -10.5t4 -15t3 -13.5t11 -7zM160 170v4
t2 3q-7 1 -13 1h-11q0 -2 -1 -5q6 -1 12 -1.5t11 -1.5zM33 14q8 8 16.5 13t16.5 11q-11 8 -21 15.5t-22 17.5q13 7 22.5 11.5t20.5 8.5q32 13 64 19t66 8q17 2 34.5 1t34.5 1q27 3 48.5 -8t38.5 -28q11 -11 20 -24.5t18 -27.5q1 -2 0 -5.5t-2 -8.5q-18 11 -35.5 14t-35 1.5
t-35 -6t-34.5 -7.5q-39 -7 -76.5 -16.5t-75.5 -19.5q-8 -2 -15 -2t-14 7q-7 8 -15 13t-19 12z" />
    <glyph glyph-name="v" unicode="v" horiz-adv-x="420" 
d="M225 5q-18 2 -36 5t-38 6q3 -6 4.5 -11.5t4.5 -11.5q-25 5 -39.5 18.5t-24.5 36.5q-23 50 -28.5 101.5t-7.5 103.5q-2 23 -1.5 47t0.5 47h-5q-1 -24 -3 -48t-1 -49q2 -38 5 -75t8 -73q2 -20 7.5 -38.5t21.5 -33.5q2 -2 1 -7.5t-1 -12.5q-22 8 -32.5 22t-15.5 31
q-8 27 -14 54t-10 53q-5 42 -9 83.5t-8 83.5q-1 18 -2 53t-1 73.5t1.5 73.5t4.5 53q2 14 8 23.5t24 8.5v96q10 -6 14 -13.5t5 -15t1 -15.5t2 -15q0 27 3 54q26 -7 35.5 -18t11.5 -37q7 -2 14.5 -2.5t14.5 -3.5q9 -4 14 -7t7.5 -7.5t3 -11t0.5 -16.5q0 -29 1.5 -76t3 -97
t3.5 -97t2 -77q0 -2 0.5 -5t1.5 -11q5 11 8.5 17.5t6.5 13.5q70 166 161 318q5 9 11 18l12 18q8 12 22 14.5t27 -5.5q3 -2 5.5 -4t6.5 -4q15 -12 16 -18t-7 -24q-4 -5 -4 -10t2 -6q12 -10 18 -15.5t7.5 -10.5t-2.5 -13l-11 -22q-58 -103 -104.5 -208.5t-90.5 -214.5
q-8 -21 -16.5 -42t-18.5 -44zM173 203q2 -1 3.5 -1.5t3.5 -1.5q85 168 170 337q-2 1 -6 5q-1 -2 -1 -4t-1 -4q-13 -23 -26.5 -45t-24.5 -44q-27 -52 -53.5 -103t-52.5 -102q-5 -9 -7 -18.5t-5 -18.5z" />
    <glyph glyph-name="w" unicode="w" horiz-adv-x="695" 
d="M228 167q-2 0 -5 -1t-8 -1q-23 0 -29.5 8.5t-1.5 30.5q14 67 34 131t48 127q10 21 22.5 25t32.5 -5q8 -4 14 -11t14 -15q1 0 2 1l6 2q13 2 21.5 -5.5t6.5 -21.5q-2 -6 -3 -11t-3 -10q-24 -77 -15.5 -155t31.5 -157q2 -4 4 -8.5t6 -11.5q14 12 23.5 27t17.5 31
q22 44 36 90.5t22 95.5q11 63 16.5 125.5t4.5 126.5q0 16 -3 31t-5 32q13 5 25.5 4t24.5 -12q5 -2 9 -4t9 -4q15 -8 23.5 -11.5t14 -9t8 -15t4.5 -27.5q2 -21 3 -43t1 -44q-1 -62 -5.5 -121.5t-18.5 -119.5q-9 -43 -23.5 -84t-37.5 -78q-9 -14 -18.5 -26t-20.5 -23
q-26 -26 -67 -12q-20 7 -39 5q-63 -6 -99 45q-8 11 -16 21t-18 22q-3 -8 -6.5 -15t-6.5 -14q-9 -22 -18.5 -44t-21.5 -42q-11 -17 -21 -18.5t-32 6.5q-18 8 -37.5 14.5t-39.5 5.5q-16 0 -26 1.5t-17 6.5t-11.5 15t-10.5 27q-12 38 -16 74.5t-5 73.5q2 72 3.5 142.5
t15.5 139.5q8 39 20 78t23 77q5 12 10.5 22.5t12.5 22.5q5 -4 8.5 -7t4.5 -3q11 5 20.5 2.5t18.5 -8l18 -11t19 -7.5t14 -12t2 -21q-22 -61 -33 -123.5t-16 -127.5q-7 -75 -7 -149.5t13 -150.5q2 -7 3 -13t4 -13q0 -4 8 -11q27 45 48 92.5t36 96.5q-3 2 -5 3t-5 2
q-3 -12 -6.5 -23t-8.5 -23zM613 544q8 3 9.5 8t0 11t-4 12t-3.5 12q0 -11 -1 -21.5t0 -22.5q2 -8 2.5 -16.5t1.5 -16.5q9 18 -5 34z" />
    <glyph glyph-name="x" unicode="x" horiz-adv-x="454" 
d="M391 -24q-6 8 -13 17.5t-16 21.5q-1 -8 1 -14t5.5 -11.5l7 -11t4.5 -11.5q-6 -1 -11 -1.5t-10 -2.5q-24 -9 -42.5 -1.5t-32.5 24.5q-8 9 -18 27.5t-20.5 39t-19.5 39.5t-15 29q-10 15 -18.5 31.5t-17.5 35.5q-7 -15 -11 -26t-9 -22q-10 -32 -19.5 -64.5t-19.5 -65.5
q-4 -11 -6.5 -16.5t-6.5 -8t-11.5 -3t-20.5 -0.5q-4 0 -8 -1.5t-9 -2.5q-2 12 -7.5 16.5t-12.5 6t-15 1.5t-15 3q0 9 2 13q8 17 -13 23q-16 4 -19 11t2 21q16 43 36 87l38 76t41 76q7 14 8.5 27.5t-6.5 30.5q-14 29 -25 59t-22 61q-3 8 -4 16.5t-3 16.5q11 2 19 2.5t16 1.5
q0 1 0.5 2t0.5 2q-3 26 3 34t32 10q25 1 34 -5t17 -29q4 -17 8.5 -33.5t11.5 -36.5q6 11 10.5 18t8.5 13q35 53 69.5 105.5t68.5 106.5q7 10 16 18q8 6 18 5.5t16 -8.5q8 -7 7 -13t-6 -14q-7 -9 -13 -19t-14 -22q9 -5 18 -14q12 16 23.5 30t25.5 31l4 -10t1 -8
q-2 -6 -5.5 -11t-8.5 -11q-46 -73 -89.5 -147.5t-80.5 -154.5q-5 -13 -5 -23.5t8 -23.5q15 -25 33.5 -59t37.5 -70.5t37.5 -71.5t33.5 -60q11 -17 24.5 -30.5t24.5 -29.5q4 -3 5.5 -9t4.5 -13h-63zM95 226q-24 -39 -46 -79t-38 -82q23 39 45.5 78t38.5 83z" />
    <glyph glyph-name="y" unicode="y" horiz-adv-x="376" 
d="M14 603q8 -1 15 -1.5t16 -2.5q-8 20 -14 40.5t-14 40.5q6 3 10 5.5t6 1.5q12 -3 22.5 1.5t19.5 9t16.5 4.5t13.5 -12q7 -15 14.5 -37.5t15.5 -47t15.5 -47t13.5 -37.5q8 -23 17 -46t20 -50q20 45 37 84.5t34 79.5q-4 6 -4 5q-5 -2 -9.5 -4.5t-9.5 -4.5q2 4 2.5 7.5
t1.5 5.5q9 27 19 53t21 52q4 13 13.5 16.5t16.5 -5.5q9 -9 15 -7t13 7q14 9 20 9t20 -9q11 -8 17 -13t7.5 -10.5t-0.5 -13.5t-7 -21q-21 -63 -41.5 -125t-43.5 -125q-7 -20 -17 -39t-16 -39q-6 -17 -10 -35t-7 -36q-16 -78 -31 -155t-29 -155q-1 -8 -3 -15l-4 -14
q-29 -5 -37.5 2.5t-6.5 33.5q2 7 1 13.5t-1 13.5q-2 0 -3 0.5t-3 -0.5q-59 -12 -49 44q15 102 36 200q2 15 1 26.5t-11 24.5q-38 53 -67.5 110t-57.5 117q-11 22 -20 45t-20 46q-1 4 -0.5 9t-0.5 10q11 5 19.5 4t16.5 -10q2 -2 5.5 -2.5t6.5 -1.5q-6 -11 -3 -19.5t8 -17.5
q23 -54 47.5 -107t48.5 -106q8 -17 17 -32.5t18 -32.5q2 5 2 9t-2 9q-27 57 -53.5 112.5t-52.5 112.5q-8 17 -15.5 35t-15.5 37z" />
    <glyph glyph-name="z" unicode="z" horiz-adv-x="441" 
d="M229 690q17 14 36 18.5t40 6.5q14 2 28.5 2h28.5q12 1 21.5 -5.5t17.5 -15.5q2 -2 1.5 -7t-0.5 -10q8 1 17 3.5t22 6.5q9 -11 19.5 -21.5t19.5 -21.5q7 -8 6.5 -15t-11.5 -15q-19 -14 -41.5 -42.5t-45 -60.5t-43 -62.5t-35.5 -48.5q-4 -4 -6.5 -9t-4.5 -10
q-11 3 -14.5 -3.5t-7.5 -11.5q2 -2 3 -4t3 -4q2 5 4.5 9t4.5 8q-2 -5 -4 -11.5t-6 -14.5q10 2 17 2t13 2q8 2 15.5 2.5t12.5 -7.5q7 -8 10 -17.5t-1 -20.5l-4 -8t-5 -9q-18 0 -37 0.5t-39 -0.5q-10 0 -19 -3t-12 -18q29 1 57.5 2t57.5 2q-2 -13 -8.5 -14t-14.5 -2
q-23 -2 -46 -3.5t-46 -3.5q-5 -1 -12 -3.5t-9 -7.5q-17 -26 -32 -52t-34 -56q19 4 32.5 6.5t26.5 4.5q33 8 66.5 13.5t66.5 10.5q26 4 39 -9.5t11 -41.5q-7 -2 -14 -3t-16 -4q5 -9 10.5 -18t12.5 -20q-38 10 -72 5t-65 -8l-7 9q-10 -2 -20 -3t-20 -4q-20 -6 -38.5 -12
t-37.5 -12q-22 -6 -31 -26q-6 -17 -12.5 -32.5t-14.5 -33.5q-10 10 -10 19t3 17.5t7 16.5t3 16q-10 1 -16 -2.5t-10.5 -9t-8 -12.5t-7.5 -14q-5 3 -9.5 5.5t-6.5 5.5q-5 10 -10 19t-13 17q-3 3 -2 10t-1 12q-3 8 -5.5 16t-7.5 13q-8 8 -9 15t3 16q6 10 11.5 19.5t12.5 19.5
q16 26 32.5 50.5t34.5 50.5q-8 4 -11 12.5t-14 12.5q-8 3 -6.5 10.5t9.5 11.5q11 5 23 8t24 5q23 4 40 24q12 16 29.5 44t37 58.5t38 59t32.5 44.5q-20 -5 -48.5 -13t-58.5 -16.5t-57.5 -16t-45.5 -12.5q-1 2 -1 3.5t-1 3.5q22 7 53.5 16t65 18t65 18t52.5 17q-1 2 -1 3
t-1 3q-4 0 -7.5 0.5t-6.5 -0.5q-19 -5 -47.5 -13t-58.5 -16.5t-58.5 -16l-47.5 -12.5q-20 -5 -38 4t-25 28q-2 7 -5 12t-7 11q-7 11 -7 16.5t12 10.5q17 8 44.5 18.5t56.5 21.5t56.5 21.5t44.5 18.5q8 4 16 4.5t16 2.5q3 1 6 3t7 4h38q0 4 -1 6q-9 -2 -18 -3t-19 -3z
M199 246q-33 10 -48 -16l-14 -24t-15 -25q-9 -14 -17.5 -29t-17.5 -30q36 0 50 26q10 19 21 36.5t22 35.5q6 10 19 26zM-10 113q21 28 42.5 54.5t38.5 56.5q-26 -25 -45.5 -52.5t-35.5 -58.5zM381 694q-23 5 -46.5 5h-47.5v-5h94zM226 289q-14 -3 -24 -6t-17 -14
q9 0 14.5 0.5t9.5 2t7.5 5.5t9.5 12zM159 339q2 -1 2 -2t2 -2q7 5 11 8t6.5 6.5t3 8t1.5 12.5q-7 -9 -13.5 -16t-12.5 -15zM401 599q-1 2 -1 4t-1 4q-8 -3 -15 -5.5t-14 -4.5q1 -6 3 -8q7 2 14 5t14 5zM351 569q-5 0 -10.5 -0.5t0.5 -14.5q4 5 6 8.5t4 6.5z" />
    <glyph glyph-name="cent" unicode="&#xa2;" horiz-adv-x="451" 
d="M282 457q-5 -47 -9.5 -92.5t-9.5 -92.5q2 -2 3 -2t2 -1q6 5 12 9.5t11 9.5q6 5 12 10.5t12 10.5q28 25 46.5 22t42.5 -37q-33 -37 -72 -69.5t-77 -64.5q0 -2 1 -3t2 -3q4 2 8.5 3.5t8.5 3.5q23 20 46.5 40t47.5 40q7 7 13.5 12.5t14.5 10.5q-29 -32 -59 -61t-65 -54
q-10 -8 -15 -16t-4 -20q2 -21 2.5 -42t1.5 -43q-16 2 -31.5 2.5t-30.5 2.5q-19 3 -21 23q-2 12 -2 24t-1 20q-16 10 -30.5 17.5t-28.5 15.5q-7 1 -14 5q-59 19 -86 64t-16 108q11 54 36.5 99.5t69.5 81.5q25 20 53 31.5t63 9.5q5 23 11.5 46t13.5 48q12 2 23 3.5t22 -1.5
q19 -3 23.5 -11.5t-1.5 -27.5q-5 -18 -10 -36.5t-11 -37.5q13 -10 24.5 -17.5t22.5 -15.5q15 -11 23.5 -20.5t11 -20t-1 -23t-11.5 -29.5l-4 -6t-5 -7q-11 2 -21.5 4t-20.5 4q-14 3 -18 10t-1 21q2 11 3 21t-10 21zM191 413q1 3 4 6l5.5 5.5t3 6t-2.5 8.5q-27 -17 -51 -44
t-41 -57.5t-25 -59.5t-3 -48q9 23 17 46.5t19 46.5t24.5 42t35.5 33q-8 -11 -15.5 -22.5t-15.5 -22.5q-32 -45 -44 -98q-5 -21 -6 -41.5t10 -43.5l22 6l22 6q16 5 24.5 15.5t6.5 28.5q-1 6 -0.5 11.5t1.5 12.5q5 36 9 72.5t8 72.5q1 6 1 11t-9 7z" />
    <glyph glyph-name="sterling" unicode="&#xa3;" horiz-adv-x="519" 
d="M29 256q-9 -14 -19 -5q-5 5 -8.5 13t-4 16.5t3.5 17t13 13.5l16 8t16 9q8 4 15 7t14 8q8 46 15 90.5t15 88.5q14 78 52 142q26 46 54 53.5t73 -18.5q13 -6 25.5 -13t25.5 -16q7 -5 13 -12t11 -15q21 -46 26 -94.5t-3 -99.5q-1 -2 -6 -9q-9 2 -18 6.5t-18 8.5t-18.5 5
t-20.5 -4q-9 12 -12.5 26t-5 28.5t-3.5 29t-8 27.5q-13 -21 -21.5 -70t-13.5 -121h23.5t22.5 1t22 2.5t22 2.5q22 1 31.5 -9t12.5 -36q-3 0 -6.5 -0.5t-8.5 -1.5q-4 0 -7 -0.5t-7 -1.5q1 -1 1.5 -1t1.5 -1l1 -1q8 -1 16.5 -1t18.5 -1q2 -6 5 -12t6 -14q-42 -7 -82 -13
t-81 -12q-3 -35 -3.5 -68.5t-2.5 -68.5q27 2 51 4.5t48 4.5l96 6q34 3 47 -29q6 -16 13.5 -30.5t3.5 -34.5q-60 -8 -118.5 -17.5t-117.5 -18.5q-25 -4 -49 -7t-47 -7q-17 -2 -30.5 -4.5t-30.5 -2.5q-5 0 -11 3.5t-11 8.5q-8 6 -14 14.5t-12 16.5q1 12 2.5 22t13.5 18
q5 3 6.5 10.5t-0.5 14.5q0 29 -1.5 58.5t-2.5 61.5q-5 -2 -9.5 -4.5t-9.5 -4.5q-13 5 -12 15t1 19q10 0 18 2t13 14q-14 3 -20 -4t-11 -13zM176 378q11 66 22.5 132t38.5 129q-17 -30 -27.5 -61.5t-17 -64.5t-10 -67t-6.5 -68zM87 101q19 6 22.5 8.5t2.5 11.5q-1 30 -3.5 59
t-4.5 58q-12 -32 -12 -66.5t-5 -70.5zM237 312q21 2 43 5.5t42 7.5v5q-21 -2 -42.5 -4t-42.5 -6v-8zM68 189v31h-2v-31h2z" />
    <glyph glyph-name="currency" unicode="&#xa4;" horiz-adv-x="519" 
d="M66 91q-4 1 -8 3.5t-8 3.5t-8 0t-7 -8q-4 5 -6 10t-6 8q-14 17 -2 33q11 15 22.5 29.5t22.5 28.5l10 10l10 10q-32 32 -35.5 67t12.5 73q8 17 17.5 34t20.5 37q-9 11 -20 22.5t-22 24.5q-5 6 -11 10.5t-12 9.5t-9.5 12.5t-1.5 18.5q8 1 14.5 1t14.5 2q-1 5 -1.5 11.5
t-2.5 13.5q3 0 6 0.5t3 -1.5q10 -12 22 -30q2 3 4.5 6t5.5 7q10 -6 17 -15.5t13 -18.5t12 -17.5t15 -12.5q15 1 29 1.5t27 2.5q5 0 8.5 2t7.5 4q12 5 23 11.5t23 11.5q14 6 24.5 9.5t20.5 4.5t20 0t24 -3q14 12 26.5 25t26.5 24q10 8 21 8t16 -11q8 -14 20 -22t25 -19
q-4 -5 -7 -9t-7 -8q-17 -18 -34 -35.5t-34 -35.5q-15 -15 -14 -39q1 -20 -6.5 -38.5t-17.5 -36.5q-5 -8 -9 -15t-9 -15q1 -3 4 -3h6t5 -2t1 -8q-1 -5 4 -9t9 -9q17 -23 33.5 -46t34.5 -48q-8 -1 -13 -1t-10 -1q-3 -11 -5 -13t-13 -5q2 -5 4.5 -9.5t5.5 -9.5q-3 0 -5.5 -0.5
t-3.5 0.5q-7 8 -13.5 15.5t-13.5 15.5v-26q-19 0 -27.5 11.5t-16.5 22.5t-15.5 22.5t-16.5 23.5q-14 -10 -26.5 -20.5t-26.5 -19t-29.5 -13.5t-33.5 -5q14 7 29 13.5t29 15.5q14 8 27.5 17.5t18.5 27.5q-4 -1 -7.5 -3t-7.5 -4q-11 -9 -22.5 -17t-23.5 -17q-23 -15 -46 -19.5
t-50 12.5q-18 -23 -35 -44.5t-36 -44.5zM229 430q-13 2 -24.5 -0.5t-17.5 -19.5q11 5 21 10t21 10q4 -8 7 -10q4 -3 9 -5.5l13 -6.5q-10 -7 -17 -11t-12 -9q-11 -11 -21 -21.5t-21 -20.5q-24 -22 -40.5 -46.5t-17.5 -61.5q11 2 21 3t19 3q63 19 100.5 63t62.5 101
q3 6 3.5 12.5t-6.5 13.5q-12 12 -3 29q2 5 3.5 9.5t3.5 11.5q-33 -3 -59.5 -15.5t-51.5 -26.5q3 -5 4 -7.5t3 -4.5z" />
    <glyph glyph-name="yen" unicode="&#xa5;" horiz-adv-x="504" 
d="M172 -38q-8 -2 -16 -1.5t-15 -1.5q-13 -6 -17.5 -1.5t-3.5 12.5q0 8 2 17t3 19q-7 2 -13.5 4t-12.5 4q-7 2 -14.5 2.5t-17.5 2.5q2 9 2.5 16t1.5 14q11 34 21.5 66.5t20.5 65.5q2 8 4 15.5t4 18.5h-118v41q7 3 18 6q-3 5 -5 19q32 3 63.5 5t64.5 6q4 14 11 37h-128
q1 13 2 25.5t3 25.5q-4 0 -7.5 0.5t-8.5 0.5q9 13 21.5 18t26 6.5t27 2t24.5 6.5q-22 57 -43 111.5t-41 109.5q2 1 3 2t3 2q2 -3 5 -5.5t10 -7.5q-4 11 -5.5 20t-3.5 17q-2 11 -5 22.5t-5 23.5t3.5 16.5t18.5 3.5q12 -2 23 -5.5t23 -5.5q-3 -4 -6.5 -8.5t-2.5 -6.5
q16 -41 31 -80.5t30 -80.5q4 0 6 2q-11 40 -23 79t-23 80q14 5 20 1.5t10 -12.5q17 -51 35 -103t38 -109l7.5 13.5t3.5 7.5q18 54 36 106t36 106q1 5 3 10l4 10q5 8 11 8.5t16 -3.5q-3 -8 -6 -15.5t-7 -15.5q-22 -57 -42.5 -113t-42.5 -114q-3 -7 -7 -15t9 -19q26 72 53 142
t53 141q29 0 49.5 -9.5t39.5 -26.5q-26 -67 -52.5 -133.5t-54.5 -137.5q20 -1 36 -1t31 -1q10 -1 19.5 -1t19.5 -2q17 -3 21 -12t-5 -22q-5 -6 -8 -13t-3 -15q-2 -16 -6 -19t-22 -3h-110q-3 -11 -5.5 -19.5t-4.5 -17.5q16 -7 34 -6t37 -1q15 -2 28 -4t24 -13q7 -6 9 -11.5
t-2 -13.5q-2 -8 -6.5 -15.5t-16.5 -7.5h-39q-23 2 -45.5 3.5t-45.5 0.5q29 -11 58.5 -11.5t58.5 -8.5h-130q-20 -62 -40 -123t-40 -123zM104 236q2 -4 2 -6q5 1 9.5 2t9.5 2q0 1 -0.5 2t-0.5 3q-6 -1 -10.5 -1.5t-9.5 -1.5z" />
    <glyph glyph-name="plusminus" unicode="&#xb1;" horiz-adv-x="348" 
d="M13 245q17 11 32.5 10t30.5 1q11 2 15.5 7t1.5 19q-15 1 -30 1t-32 2q1 8 1.5 14.5t1.5 13.5q2 20 9 26.5t28 7.5h19q5 0 10.5 0.5t12.5 1.5q4 14 7.5 27t8.5 27q5 16 12 18t21 -7q5 -5 11 -5q39 -1 31 -39v-10t-2 -13q8 -1 14.5 -2t13.5 -2q8 -1 16 -0.5t16 -0.5
q20 -1 23.5 -6.5t-4.5 -25.5q-2 -8 -9 -18q-7 -20 -30 -18h-43q-8 0 -9.5 -2t-5.5 -15h49v-4q-13 -1 -25.5 -2t-26.5 -2q-8 -26 -16.5 -51.5t-16.5 -51.5q-13 1 -20.5 9t-15.5 19l-5.5 -11t-4.5 -10q-18 9 -21 13.5t-1 20.5q2 14 4.5 29.5t5.5 33.5q-20 -1 -38.5 -2
t-38.5 -3zM299 85q2 -19 -7 -35t-20 -33h-326q2 6 5 11.5t6 11.5q5 14 13 26t8 28q0 22 24 21q17 -1 34.5 -2t34.5 -3l216 -21q6 0 12 -4zM177 28q-20 2 -41.5 3.5t-41.5 3.5q20 -11 41 -10t42 3zM299 85q-14 5 -27.5 9.5t-27.5 6.5q-23 4 -46.5 6.5t-46.5 6.5q39 -3 78 -3
t81 -9q-4 -5 -6.5 -9t-5.5 -8h1z" />
    <glyph glyph-name="multiply" unicode="&#xd7;" horiz-adv-x="319" 
d="M14 234q4 14 11.5 25.5t18.5 20.5l-11 -29q17 13 29 31t26 37h-14q7 11 2.5 20t-10.5 17q-7 8 -15 16t-16 17q8 14 22 13.5t26 -3.5q11 -2 22 -10t23 -14l52 69q8 -4 15.5 -8.5t15.5 -9.5q9 -14 20.5 -21t24.5 -17q-8 -7 -15 -12.5t-15 -11.5q-11 -10 -22.5 -20.5
t-23.5 -21.5q-8 -8 -7.5 -16.5t5.5 -16.5q14 -23 26 -46l24 -46q4 -6 6.5 -13.5t5.5 -17.5q-11 -1 -19 -2t-16 0q-7 1 -13.5 3.5t-12.5 3.5q-7 0 -13 -1.5t-11 -3.5q-8 20 -16.5 39t-16.5 41q-19 -28 -36 -53t-33 -50q-20 6 -35 16t-26 28l-6 -4q4 20 7.5 26.5t16.5 11.5v6
q12 -1 16.5 7t7.5 17q-11 -8 -20 -17zM72 316q-8 -25 -28 -36zM74 319l-2 -3q0 3 1 4z" />
    <glyph glyph-name="divide" unicode="&#xf7;" horiz-adv-x="348" 
d="M293 329q2 -12 2.5 -19t-1.5 -11t-8 -6.5t-16 -5.5q-5 -2 -9.5 -8t-11.5 -13q-29 2 -58.5 2.5t-59.5 1.5q-25 1 -49.5 0t-50.5 0q-4 0 -8 1.5t-6 3.5q-2 3 -1 7.5t3 8.5q2 5 6.5 11t6.5 12q8 22 28 22q52 -1 104 -1.5t104 -1.5q7 0 12 -1t13 -3zM179 156q3 -10 5 -16
t2.5 -11.5t-1 -11t-5.5 -14.5q-8 -2 -10 -2q-14 1 -27 2t-27 2q-32 3 -25 32q2 11 6 20.5t12 16.5q8 9 25 4.5t26 -14.5q6 -8 19 -8zM210 394q-5 -2 -9.5 -1.5t-4.5 -1.5q-5 -12 -13.5 -12.5t-17.5 -1.5q-13 0 -25 3t-23 11q-9 7 -9.5 15.5t1.5 17.5q2 10 8.5 13t15.5 3
t17.5 0.5t16.5 -0.5q18 0 22 -17q2 -8 8 -14t13 -15zM243 246q-29 -5 -58.5 -5.5t-58.5 0t-58 0.5t-57 -5q-6 20 13 20q24 3 46 3q44 -1 86.5 -2.5t86.5 -2.5v-8z" />
    <glyph glyph-name="quoteleft" unicode="&#x2018;" horiz-adv-x="234" 
d="M141 564q-18 5 -27 10q-5 2 -8.5 3t-9.5 -1q-12 -4 -18 2.5t-4 20.5q2 11 4.5 20.5t4.5 20.5q2 16 5 31.5t6 32.5q10 1 20 -2t22 0q14 3 25.5 -10.5t9.5 -29.5q-3 -26 -11 -49.5t-19 -48.5z" />
    <glyph glyph-name="quoteright" unicode="&#x2019;" horiz-adv-x="234" 
d="M141 564q-18 5 -27 10q-5 2 -8.5 3t-9.5 -1q-12 -4 -18 2.5t-4 20.5q2 11 4.5 20.5t4.5 20.5q2 16 5 31.5t6 32.5q10 1 20 -2t22 0q14 3 25.5 -10.5t9.5 -29.5q-3 -26 -11 -49.5t-19 -48.5z" />
    <glyph glyph-name="quotedblleft" unicode="&#x201c;" 
d="M141 564q-18 5 -27 10q-5 2 -8.5 3t-9.5 -1q-12 -4 -18 2.5t-4 20.5q2 11 4.5 20.5t4.5 20.5q2 16 5 31.5t6 32.5q10 1 20 -2t22 0q14 3 25.5 -10.5t9.5 -29.5q-3 -26 -11 -49.5t-19 -48.5zM260 564q-18 5 -27 10q-5 2 -8.5 3t-9.5 -1q-12 -4 -18 2.5t-4 20.5
q2 11 4.5 20.5t4.5 20.5q2 16 5 31.5t6 32.5q10 1 20 -2t22 0q14 3 25.5 -10.5t9.5 -29.5q-3 -26 -11 -49.5t-19 -48.5z" />
    <glyph glyph-name="quotedblright" unicode="&#x201d;" 
d="M141 564q-18 5 -27 10q-5 2 -8.5 3t-9.5 -1q-12 -4 -18 2.5t-4 20.5q2 11 4.5 20.5t4.5 20.5q2 16 5 31.5t6 32.5q10 1 20 -2t22 0q14 3 25.5 -10.5t9.5 -29.5q-3 -26 -11 -49.5t-19 -48.5zM260 564q-18 5 -27 10q-5 2 -8.5 3t-9.5 -1q-12 -4 -18 2.5t-4 20.5
q2 11 4.5 20.5t4.5 20.5q2 16 5 31.5t6 32.5q10 1 20 -2t22 0q14 3 25.5 -10.5t9.5 -29.5q-3 -26 -11 -49.5t-19 -48.5z" />
    <glyph glyph-name="Euro" unicode="&#x20ac;" horiz-adv-x="635" 
d="M472 474q7 19 13 38t8.5 38t-0.5 38t-13 39q3 -40 -0.5 -79t-20.5 -76q-14 7 -17.5 17.5t-1.5 25.5q6 39 6 77q0 12 -2.5 23t-4.5 22q-36 5 -64 -6.5t-52 -35.5q-20 -20 -39 -41t-42 -46q12 -2 18.5 -3t12.5 -1q11 0 22 1.5t22 0.5q7 -2 15.5 -4.5t10.5 -8.5
q8 -19 19.5 -36t14.5 -43q-17 -3 -33.5 -6t-33.5 -5q-13 -3 -25.5 -4.5t-24.5 -3.5q-13 -2 -20.5 -3.5t-11.5 -6.5t-7 -14.5t-7 -27.5q19 -4 35.5 -1t32.5 4q54 2 60 -62q-24 -6 -49 -12.5t-49 -11.5q-10 -2 -19.5 -4.5t-17.5 -3.5q-12 -1 -17.5 -8t-7.5 -18
q-5 -40 -7.5 -79.5t8.5 -83.5q14 5 26 7.5t24 7.5q32 14 59.5 35t52.5 46q37 38 68.5 79.5t58.5 89.5q9 17 15 34.5t14 35.5q10 -10 15.5 -17t5 -17.5t-7 -28t-18.5 -48.5q9 9 15.5 16.5t11 18t8.5 24.5t8 36q11 -11 21.5 -21t18.5 -21q3 -5 3 -13.5t-1 -16.5
q-4 -10 -8 -21.5t-11 -21.5q-37 -56 -78.5 -106.5t-94.5 -88.5q-38 -29 -79 -42.5t-86 -15.5q-11 0 -13.5 -2t-7.5 -15q-5 5 -12 10t-14 7q-47 14 -72 49.5t-38 85.5q-4 13 -5 25.5t-3 22.5q-15 17 -28.5 31t-27.5 30q-8 9 -6 18.5t10 16.5q7 6 15 10t16 7q13 5 22 15.5
t13.5 23.5t3.5 27t-7 28q-2 7 -3.5 14t-3.5 16q-5 1 -11.5 2t-11 4.5t-7 10t-0.5 19.5q12 12 27 16t30 4q17 -1 28 7.5t19 23.5q23 47 52.5 86t66.5 70q19 16 38.5 27.5t42.5 16.5q19 5 35.5 3.5t33.5 -10.5q30 -19 59 -39t54 -48q14 -16 19.5 -35t3.5 -40q-3 -30 -14 -60
q-8 -27 -19 -30.5t-37 12.5zM168 234q-17 -2 -21.5 -4.5t-4.5 -14.5q0 -23 0.5 -46t3.5 -46q1 -8 4 -18t8 -24q2 42 4 78.5t6 74.5zM169 338q14 1 22 2.5t12 6t5.5 13.5t3.5 25q-12 0 -18.5 -0.5t-10.5 -5t-7 -14t-7 -27.5zM115 221l-4 -32t-2 -32t4 -31.5t15 -30.5
q-3 34 -6 64.5t-7 61.5z" />
    <glyph glyph-name="trademark" unicode="&#x2122;" horiz-adv-x="470" 
d="M276 566q-5 1 -5 7l-7 3l7 -13q-14 -6 -20 4q-5 6 -7.5 12t-6.5 13l-6 11q-1 -17 -3 -35t2 -36l-8 1h-6q-4 5 -4 9.5t1 9.5l2 30t3 30q1 5 1.5 9.5t0.5 9.5q0 3 -1 6t-2 8q-2 -5 -3.5 -17t-2.5 -27t-1.5 -30t0.5 -25l-8 1q-7 0 -9 0.5t-2 8.5q0 9 0.5 18t1.5 18l3 72
q1 6 2 12.5t1 12.5l-6 -14h-1q1 4 2 7t1 7q2 5 4.5 9.5t0.5 9.5q-2 4 5 4q5 1 12.5 -2t9.5 -7q13 -19 22.5 -39t19.5 -40l6 -11q3 4 5 6.5t4 5.5q14 20 31.5 38.5t36.5 35.5q8 7 15 13t13 14q2 4 8 12q4 -2 7.5 -3t3.5 -5q0 -3 -1.5 -6t-3.5 -5l15 -3l-5 -12h1l6 5h2l-1 -3
l-17 -71l-5 -27q0 -2 1 -4.5t0 -5.5l-5 -44v-2q-7 -5 -6 -10.5t0 -11.5v-12h-18q-1 20 -1 38.5v36.5q-4 -19 -6 -38t1 -39l-11 3q-4 16 -3 34q3 41 12 85l2 12l-8 -3q-2 2 0.5 3.5t3.5 3.5l4.5 4.5t3.5 5.5q-6 -3 -16 -13.5t-20.5 -23t-20 -25t-12.5 -19.5l5 4l12 15l3 2
l-21 -33q0 3 -1 4q-5 1 -9 -0.5t-9 2.5v-4zM228 726q5 -2 5 -5.5v-7.5l-6 -3q-7 1 -13.5 2t-12.5 1l-28 3q-7 -109 -6 -216h-15q-9 0 -9 7q-1 4 -1 7t-2 7q0 2 -1 4l-2 4q0 -1 -2 -1q0 -2 1 -3q-8 2 -12 4t-4 4q-2 4 -2.5 8t-1.5 8q-2 20 -1.5 40t2.5 40q2 10 2 20t2 20
l9 42q0 3 1 5q-4 -1 -4 -2t-1 -3t-1 -3t-1 -2q0 6 1 10q-2 0 -3 0.5t-3 0.5q-13 -1 -25 -1t-26 -2q-3 0 -6 4l14 4h-12q1 4 5 3.5t6 1.5q1 4 2 7t2 5q11 4 23.5 5t23.5 2h66q8 0 17 -1t17 -4q9 -3 6 -9l-4 -2v-4zM141 650q-2 -11 -3.5 -28t-2.5 -34.5t-1 -32.5t2 -21z
M380 638q4 12 7 24t8 24q-5 -4 -10 -19t-5 -29zM181 739h-13q16 -2 30.5 -3t28.5 -5q-3 5 -10 5zM404 708q-15 -7 -7 -18zM250 623h-2l6 -15h2zM312 605q1 2 2 3.5t2 3.5q2 -2 0 -3.5t-4 -3.5zM344 645q1 1 4 1q2 -5 -4 -1zM322 619q-1 -2 -1.5 -4t-3.5 -3zM147 696
q-1 -2 -1 -7h1v7zM147 696q2 3 1 7q0 -2 -0.5 -3.5t-0.5 -3.5zM144 662l-1 1v-1h1zM348 647v-1v1z" />
  </font>
</defs>
</svg>
